<svg width="195" height="118" viewBox="0 0 195 118" fill="none" xmlns="http://www.w3.org/2000/svg">
<rect x="0.679932" y="0.369141" width="193.846" height="117.605" rx="14.7953" fill="black"/>
<rect x="0.988167" y="0.677376" width="193.229" height="116.989" rx="14.4871" stroke="white" stroke-opacity="0.5" stroke-width="0.616471"/>
<path d="M28.597 27.9456H25.6609V84.096H28.597V27.9456Z" fill="#406EB2"/>
<path d="M35.1018 27.9456H32.1658V84.096H35.1018V27.9456Z" fill="#406EB2"/>
<path d="M48.1033 27.9456H45.1672V84.096H48.1033V27.9456Z" fill="#406EB2"/>
<path d="M54.5999 27.9456H51.6638V84.096H54.5999V27.9456Z" fill="#406EB2"/>
<path d="M67.6014 27.9456H64.6653V84.096H67.6014V27.9456Z" fill="#406EB2"/>
<path d="M74.1062 27.9456H71.1702V84.096H74.1062V27.9456Z" fill="#406EB2"/>
<path d="M87.1077 27.9456H84.1716V84.096H87.1077V27.9456Z" fill="#406EB2"/>
<path d="M93.6043 27.9456H90.6682V84.096H93.6043V27.9456Z" fill="#406EB2"/>
<path d="M106.606 27.9456H103.67V84.096H106.606V27.9456Z" fill="#406EB2"/>
<path d="M113.102 27.9456H110.166V84.096H113.102V27.9456Z" fill="#406EB2"/>
<path d="M126.104 27.9456H123.168V84.096H126.104V27.9456Z" fill="#406EB2"/>
<path d="M132.609 27.9456H129.673V84.096H132.609V27.9456Z" fill="#406EB2"/>
<path d="M145.61 27.9456H142.674V84.096H145.61V27.9456Z" fill="#406EB2"/>
<path d="M152.107 27.9456H149.171V84.096H152.107V27.9456Z" fill="#406EB2"/>
<path d="M165.108 27.9456H162.172V84.096H165.108V27.9456Z" fill="#406EB2"/>
<path d="M171.613 27.9456H168.677V84.096H171.613V27.9456Z" fill="#406EB2"/>
<path d="M28.597 49.1064H25.6609V84.1042H28.597V49.1064Z" fill="url(#paint0_linear_479_2677)"/>
<path d="M35.1018 63.2756H32.1658V84.0958H35.1018V63.2756Z" fill="url(#paint1_linear_479_2677)"/>
<path d="M48.1033 59.4312H45.1672V84.0958H48.1033V59.4312Z" fill="url(#paint2_linear_479_2677)"/>
<path d="M54.5999 52.7075H51.6638V84.096H54.5999V52.7075Z" fill="url(#paint3_linear_479_2677)"/>
<path d="M67.6014 56.0735H64.6653V84.1041H67.6014V56.0735Z" fill="url(#paint4_linear_479_2677)"/>
<path d="M74.1062 63.9165H71.1702V84.096H74.1062V63.9165Z" fill="url(#paint5_linear_479_2677)"/>
<path d="M87.1077 61.8401H84.1716V84.104H87.1077V61.8401Z" fill="url(#paint6_linear_479_2677)"/>
<path d="M93.6043 54.4675H90.6682V84.096H93.6043V54.4675Z" fill="url(#paint7_linear_479_2677)"/>
<path d="M106.606 46.7056H103.67V84.104H106.606V46.7056Z" fill="url(#paint8_linear_479_2677)"/>
<path d="M113.102 60.7129H110.166V84.0961H113.102V60.7129Z" fill="url(#paint9_linear_479_2677)"/>
<path d="M126.104 49.585H123.168V84.096H126.104V49.585Z" fill="url(#paint10_linear_479_2677)"/>
<path d="M132.609 67.9231H129.673V84.0959H132.609V67.9231Z" fill="url(#paint11_linear_479_2677)"/>
<path d="M145.61 59.196H142.674V84.104H145.61V59.196Z" fill="url(#paint12_linear_479_2677)"/>
<path d="M152.107 54.4675H149.171V84.096H152.107V54.4675Z" fill="url(#paint13_linear_479_2677)"/>
<path d="M165.108 48.1411H162.172V84.0959H165.108V48.1411Z" fill="url(#paint14_linear_479_2677)"/>
<path d="M171.613 57.2739H168.677V84.1042H171.613V57.2739Z" fill="url(#paint15_linear_479_2677)"/>
<path d="M175.052 84.4614H20.1455V27.9622H20.7376V83.8693H175.052V84.4614Z" fill="white"/>
<path d="M25.8633 88.5701H25.3411L25.3445 88.3004H25.8633C26.0419 88.3004 26.1908 88.2632 26.3098 88.1888C26.4289 88.1132 26.5183 88.0078 26.5778 87.8727C26.6385 87.7364 26.6688 87.5773 26.6688 87.3952V87.2423C26.6688 87.0992 26.6517 86.9721 26.6173 86.861C26.5829 86.7488 26.5326 86.6543 26.4661 86.5776C26.3997 86.4998 26.3184 86.4408 26.2222 86.4007C26.1272 86.3606 26.0178 86.3406 25.8942 86.3406H25.3308V86.0692H25.8942C26.0579 86.0692 26.2074 86.0967 26.3425 86.1517C26.4776 86.2055 26.5938 86.2839 26.6912 86.387C26.7896 86.4889 26.8652 86.6125 26.9179 86.758C26.9706 86.9023 26.9969 87.0649 26.9969 87.2458V87.3952C26.9969 87.5761 26.9706 87.7393 26.9179 87.8847C26.8652 88.029 26.7891 88.1521 26.6894 88.254C26.591 88.3559 26.4719 88.4344 26.3322 88.4893C26.1936 88.5432 26.0373 88.5701 25.8633 88.5701ZM25.518 86.0692V88.5701H25.1865V86.0692H25.518ZM28.383 86.2908L27.5551 88.5701H27.2168L28.17 86.0692H28.3882L28.383 86.2908ZM29.0769 88.5701L28.2473 86.2908L28.2422 86.0692H28.4603L29.417 88.5701H29.0769ZM29.034 87.6443V87.9157H27.629V87.6443H29.034ZM30.4528 86.0692V88.5701H30.1264V86.0692H30.4528ZM31.2566 86.0692V86.3406H29.3243V86.0692H31.2566ZM32.416 86.2908L31.5881 88.5701H31.2497L32.203 86.0692H32.4212L32.416 86.2908ZM33.1099 88.5701L32.2803 86.2908L32.2752 86.0692H32.4933L33.45 88.5701H33.1099ZM33.067 87.6443V87.9157H31.662V87.6443H33.067ZM36.145 87.1204V87.5017C36.145 87.7067 36.1266 87.8796 36.09 88.0204C36.0534 88.1613 36.0007 88.2746 35.932 88.3605C35.8633 88.4464 35.7803 88.5088 35.6829 88.5477C35.5867 88.5855 35.478 88.6044 35.3566 88.6044C35.2604 88.6044 35.1716 88.5924 35.0903 88.5684C35.009 88.5443 34.9358 88.5059 34.8705 88.4533C34.8064 88.3995 34.7514 88.3296 34.7056 88.2437C34.6598 88.1578 34.6249 88.0536 34.6008 87.9311C34.5768 87.8086 34.5648 87.6655 34.5648 87.5017V87.1204C34.5648 86.9154 34.5831 86.7437 34.6197 86.6051C34.6575 86.4666 34.7107 86.3555 34.7795 86.2719C34.8482 86.1872 34.9306 86.1265 35.0268 86.0898C35.1241 86.0532 35.2329 86.0349 35.3531 86.0349C35.4505 86.0349 35.5398 86.0469 35.6211 86.0709C35.7035 86.0938 35.7768 86.131 35.8409 86.1826C35.9051 86.233 35.9595 86.3005 36.0041 86.3852C36.0499 86.4688 36.0848 86.5713 36.1089 86.6927C36.1329 86.8141 36.145 86.9566 36.145 87.1204ZM35.8255 87.5532V87.0671C35.8255 86.9549 35.8186 86.8565 35.8049 86.7717C35.7923 86.6858 35.7734 86.6125 35.7482 86.5519C35.723 86.4912 35.6909 86.4419 35.652 86.4041C35.6142 86.3664 35.5701 86.3389 35.5198 86.3217C35.4705 86.3034 35.415 86.2942 35.3531 86.2942C35.2776 86.2942 35.2106 86.3085 35.1522 86.3372C35.0938 86.3646 35.0445 86.4087 35.0045 86.4694C34.9655 86.5301 34.9358 86.6097 34.9151 86.7082C34.8945 86.8066 34.8842 86.9263 34.8842 87.0671V87.5532C34.8842 87.6655 34.8905 87.7645 34.9031 87.8504C34.9169 87.9363 34.9369 88.0107 34.9632 88.0737C34.9896 88.1355 35.0216 88.1865 35.0594 88.2265C35.0972 88.2666 35.1407 88.2964 35.19 88.3159C35.2403 88.3342 35.2959 88.3433 35.3566 88.3433C35.4344 88.3433 35.5026 88.3285 35.561 88.2987C35.6194 88.2689 35.668 88.2225 35.707 88.1596C35.747 88.0954 35.7768 88.0136 35.7963 87.9139C35.8158 87.8132 35.8255 87.6929 35.8255 87.5532ZM37.5981 86.0555V88.5701H37.2803V86.4522L36.6396 86.6858V86.399L37.5483 86.0555H37.5981Z" fill="#F5F7F6"/>
<path d="M44.6052 88.5701H44.083L44.0865 88.3004H44.6052C44.7838 88.3004 44.9327 88.2632 45.0518 88.1888C45.1709 88.1132 45.2602 88.0078 45.3197 87.8727C45.3804 87.7364 45.4108 87.5773 45.4108 87.3952V87.2423C45.4108 87.0992 45.3936 86.9721 45.3592 86.861C45.3249 86.7488 45.2745 86.6543 45.2081 86.5776C45.1417 86.4998 45.0604 86.4408 44.9642 86.4007C44.8691 86.3606 44.7598 86.3406 44.6361 86.3406H44.0727V86.0692H44.6361C44.7999 86.0692 44.9493 86.0967 45.0844 86.1517C45.2195 86.2055 45.3358 86.2839 45.4331 86.387C45.5316 86.4889 45.6072 86.6125 45.6598 86.758C45.7125 86.9023 45.7388 87.0649 45.7388 87.2458V87.3952C45.7388 87.5761 45.7125 87.7393 45.6598 87.8847C45.6072 88.029 45.531 88.1521 45.4314 88.254C45.3329 88.3559 45.2138 88.4344 45.0741 88.4893C44.9356 88.5432 44.7793 88.5701 44.6052 88.5701ZM44.26 86.0692V88.5701H43.9285V86.0692H44.26ZM47.125 86.2908L46.2971 88.5701H45.9587L46.912 86.0692H47.1301L47.125 86.2908ZM47.8189 88.5701L46.9893 86.2908L46.9841 86.0692H47.2023L48.159 88.5701H47.8189ZM47.7759 87.6443V87.9157H46.3709V87.6443H47.7759ZM49.1947 86.0692V88.5701H48.8684V86.0692H49.1947ZM49.9985 86.0692V86.3406H48.0662V86.0692H49.9985ZM51.1579 86.2908L50.3301 88.5701H49.9917L50.945 86.0692H51.1631L51.1579 86.2908ZM51.8519 88.5701L51.0223 86.2908L51.0171 86.0692H51.2352L52.192 88.5701H51.8519ZM51.8089 87.6443V87.9157H50.4039V87.6443H51.8089ZM54.8869 87.1204V87.5017C54.8869 87.7067 54.8686 87.8796 54.8319 88.0204C54.7953 88.1613 54.7426 88.2746 54.6739 88.3605C54.6052 88.4464 54.5222 88.5088 54.4249 88.5477C54.3287 88.5855 54.2199 88.6044 54.0985 88.6044C54.0023 88.6044 53.9136 88.5924 53.8323 88.5684C53.751 88.5443 53.6777 88.5059 53.6124 88.4533C53.5483 88.3995 53.4933 88.3296 53.4475 88.2437C53.4017 88.1578 53.3668 88.0536 53.3428 87.9311C53.3187 87.8086 53.3067 87.6655 53.3067 87.5017V87.1204C53.3067 86.9154 53.325 86.7437 53.3617 86.6051C53.3994 86.4666 53.4527 86.3555 53.5214 86.2719C53.5901 86.1872 53.6725 86.1265 53.7687 86.0898C53.8661 86.0532 53.9749 86.0349 54.0951 86.0349C54.1924 86.0349 54.2817 86.0469 54.363 86.0709C54.4455 86.0938 54.5188 86.131 54.5829 86.1826C54.647 86.233 54.7014 86.3005 54.7461 86.3852C54.7919 86.4688 54.8268 86.5713 54.8508 86.6927C54.8749 86.8141 54.8869 86.9566 54.8869 87.1204ZM54.5674 87.5532V87.0671C54.5674 86.9549 54.5606 86.8565 54.5468 86.7717C54.5342 86.6858 54.5153 86.6125 54.4901 86.5519C54.4649 86.4912 54.4329 86.4419 54.394 86.4041C54.3562 86.3664 54.3121 86.3389 54.2617 86.3217C54.2125 86.3034 54.1569 86.2942 54.0951 86.2942C54.0195 86.2942 53.9525 86.3085 53.8941 86.3372C53.8357 86.3646 53.7865 86.4087 53.7464 86.4694C53.7075 86.5301 53.6777 86.6097 53.6571 86.7082C53.6365 86.8066 53.6262 86.9263 53.6262 87.0671V87.5532C53.6262 87.6655 53.6325 87.7645 53.6451 87.8504C53.6588 87.9363 53.6788 88.0107 53.7052 88.0737C53.7315 88.1355 53.7636 88.1865 53.8014 88.2265C53.8392 88.2666 53.8827 88.2964 53.9319 88.3159C53.9823 88.3342 54.0378 88.3433 54.0985 88.3433C54.1764 88.3433 54.2445 88.3285 54.3029 88.2987C54.3613 88.2689 54.41 88.2225 54.4489 88.1596C54.489 88.0954 54.5188 88.0136 54.5382 87.9139C54.5577 87.8132 54.5674 87.6929 54.5674 87.5532ZM56.9343 88.309V88.5701H55.2974V88.3416L56.1167 87.4296C56.2175 87.3173 56.2954 87.2223 56.3503 87.1444C56.4064 87.0654 56.4454 86.995 56.4671 86.9332C56.49 86.8702 56.5015 86.8061 56.5015 86.7408C56.5015 86.6584 56.4843 86.5839 56.4499 86.5175C56.4167 86.4499 56.3675 86.3961 56.3022 86.356C56.237 86.316 56.158 86.2959 56.0652 86.2959C55.9541 86.2959 55.8614 86.3177 55.7869 86.3612C55.7137 86.4036 55.6587 86.4631 55.6221 86.5398C55.5854 86.6166 55.5671 86.7047 55.5671 86.8043H55.2493C55.2493 86.6635 55.2802 86.5347 55.3421 86.4179C55.4039 86.3011 55.4955 86.2083 55.6169 86.1396C55.7383 86.0698 55.8877 86.0349 56.0652 86.0349C56.2232 86.0349 56.3583 86.0629 56.4706 86.119C56.5828 86.174 56.6687 86.2518 56.7282 86.3526C56.7889 86.4522 56.8192 86.569 56.8192 86.703C56.8192 86.7763 56.8066 86.8507 56.7814 86.9263C56.7574 87.0007 56.7236 87.0752 56.6801 87.1496C56.6377 87.224 56.5879 87.2973 56.5307 87.3694C56.4746 87.4416 56.4145 87.5126 56.3503 87.5824L55.6805 88.309H56.9343Z" fill="#F5F7F6"/>
<path d="M63.449 88.5701H62.9268L62.9302 88.3004H63.449C63.6276 88.3004 63.7765 88.2632 63.8955 88.1888C64.0146 88.1132 64.1039 88.0078 64.1635 87.8727C64.2242 87.7364 64.2545 87.5773 64.2545 87.3952V87.2423C64.2545 87.0992 64.2373 86.9721 64.203 86.861C64.1686 86.7488 64.1183 86.6543 64.0518 86.5776C63.9854 86.4998 63.9041 86.4408 63.8079 86.4007C63.7129 86.3606 63.6035 86.3406 63.4799 86.3406H62.9165V86.0692H63.4799C63.6436 86.0692 63.7931 86.0967 63.9282 86.1517C64.0633 86.2055 64.1795 86.2839 64.2769 86.387C64.3753 86.4889 64.4509 86.6125 64.5036 86.758C64.5563 86.9023 64.5826 87.0649 64.5826 87.2458V87.3952C64.5826 87.5761 64.5563 87.7393 64.5036 87.8847C64.4509 88.029 64.3748 88.1521 64.2751 88.254C64.1767 88.3559 64.0576 88.4344 63.9179 88.4893C63.7793 88.5432 63.623 88.5701 63.449 88.5701ZM63.1037 86.0692V88.5701H62.7722V86.0692H63.1037ZM65.9687 86.2908L65.1408 88.5701H64.8024L65.7557 86.0692H65.9739L65.9687 86.2908ZM66.6626 88.5701L65.833 86.2908L65.8279 86.0692H66.046L67.0027 88.5701H66.6626ZM66.6197 87.6443V87.9157H65.2147V87.6443H66.6197ZM68.0385 86.0692V88.5701H67.7121V86.0692H68.0385ZM68.8423 86.0692V86.3406H66.91V86.0692H68.8423ZM70.0017 86.2908L69.1738 88.5701H68.8354L69.7887 86.0692H70.0068L70.0017 86.2908ZM70.6956 88.5701L69.866 86.2908L69.8609 86.0692H70.079L71.0357 88.5701H70.6956ZM70.6527 87.6443V87.9157H69.2477V87.6443H70.6527ZM73.7307 87.1204V87.5017C73.7307 87.7067 73.7123 87.8796 73.6757 88.0204C73.6391 88.1613 73.5864 88.2746 73.5177 88.3605C73.449 88.4464 73.3659 88.5088 73.2686 88.5477C73.1724 88.5855 73.0636 88.6044 72.9423 88.6044C72.8461 88.6044 72.7573 88.5924 72.676 88.5684C72.5947 88.5443 72.5215 88.5059 72.4562 88.4533C72.3921 88.3995 72.3371 88.3296 72.2913 88.2437C72.2455 88.1578 72.2106 88.0536 72.1865 87.9311C72.1625 87.8086 72.1504 87.6655 72.1504 87.5017V87.1204C72.1504 86.9154 72.1688 86.7437 72.2054 86.6051C72.2432 86.4666 72.2964 86.3555 72.3651 86.2719C72.4339 86.1872 72.5163 86.1265 72.6125 86.0898C72.7098 86.0532 72.8186 86.0349 72.9388 86.0349C73.0362 86.0349 73.1255 86.0469 73.2068 86.0709C73.2892 86.0938 73.3625 86.131 73.4266 86.1826C73.4908 86.233 73.5452 86.3005 73.5898 86.3852C73.6356 86.4688 73.6705 86.5713 73.6946 86.6927C73.7186 86.8141 73.7307 86.9566 73.7307 87.1204ZM73.4112 87.5532V87.0671C73.4112 86.9549 73.4043 86.8565 73.3906 86.7717C73.378 86.6858 73.3591 86.6125 73.3339 86.5519C73.3087 86.4912 73.2766 86.4419 73.2377 86.4041C73.1999 86.3664 73.1558 86.3389 73.1054 86.3217C73.0562 86.3034 73.0007 86.2942 72.9388 86.2942C72.8633 86.2942 72.7963 86.3085 72.7379 86.3372C72.6795 86.3646 72.6302 86.4087 72.5902 86.4694C72.5512 86.5301 72.5215 86.6097 72.5008 86.7082C72.4802 86.8066 72.4699 86.9263 72.4699 87.0671V87.5532C72.4699 87.6655 72.4762 87.7645 72.4888 87.8504C72.5026 87.9363 72.5226 88.0107 72.5489 88.0737C72.5753 88.1355 72.6073 88.1865 72.6451 88.2265C72.6829 88.2666 72.7264 88.2964 72.7757 88.3159C72.826 88.3342 72.8816 88.3433 72.9423 88.3433C73.0201 88.3433 73.0883 88.3285 73.1467 88.2987C73.2051 88.2689 73.2537 88.2225 73.2927 88.1596C73.3327 88.0954 73.3625 88.0136 73.382 87.9139C73.4014 87.8132 73.4112 87.6929 73.4112 87.5532ZM74.6032 87.1633H74.8299C74.941 87.1633 75.0326 87.145 75.1048 87.1084C75.178 87.0706 75.2324 87.0196 75.2679 86.9555C75.3046 86.8902 75.3229 86.8169 75.3229 86.7356C75.3229 86.6395 75.3069 86.5587 75.2748 86.4935C75.2427 86.4282 75.1946 86.379 75.1305 86.3457C75.0664 86.3125 74.9851 86.2959 74.8866 86.2959C74.7973 86.2959 74.7183 86.3137 74.6496 86.3492C74.582 86.3835 74.5288 86.4328 74.4898 86.4969C74.4521 86.561 74.4332 86.6366 74.4332 86.7236H74.1154C74.1154 86.5965 74.1475 86.4809 74.2116 86.3767C74.2757 86.2725 74.3656 86.1894 74.4813 86.1276C74.5981 86.0658 74.7332 86.0349 74.8866 86.0349C75.0378 86.0349 75.17 86.0618 75.2834 86.1156C75.3968 86.1683 75.4849 86.2473 75.5479 86.3526C75.6109 86.4568 75.6424 86.5868 75.6424 86.7425C75.6424 86.8055 75.6275 86.8731 75.5977 86.9452C75.5691 87.0162 75.5239 87.0826 75.462 87.1444C75.4013 87.2063 75.3223 87.2572 75.225 87.2973C75.1277 87.3362 75.0109 87.3557 74.8746 87.3557H74.6032V87.1633ZM74.6032 87.4244V87.2338H74.8746C75.0338 87.2338 75.1654 87.2527 75.2697 87.2904C75.3739 87.3282 75.4557 87.3786 75.5153 87.4416C75.576 87.5046 75.6183 87.5738 75.6424 87.6494C75.6676 87.7239 75.6802 87.7983 75.6802 87.8727C75.6802 87.9895 75.6601 88.0931 75.62 88.1836C75.5811 88.2741 75.5256 88.3508 75.4534 88.4138C75.3824 88.4767 75.2989 88.5243 75.2027 88.5563C75.1065 88.5884 75.0017 88.6044 74.8883 88.6044C74.7796 88.6044 74.6771 88.589 74.5809 88.558C74.4858 88.5271 74.4017 88.4825 74.3284 88.4241C74.2551 88.3645 74.1979 88.2918 74.1566 88.2059C74.1154 88.1189 74.0948 88.0199 74.0948 87.9088H74.4126C74.4126 87.9958 74.4315 88.072 74.4692 88.1372C74.5082 88.2025 74.5631 88.2535 74.6341 88.2901C74.7063 88.3256 74.791 88.3433 74.8883 88.3433C74.9857 88.3433 75.0693 88.3267 75.1391 88.2935C75.2101 88.2592 75.2645 88.2076 75.3023 88.1389C75.3412 88.0702 75.3607 87.9838 75.3607 87.8796C75.3607 87.7754 75.3389 87.6901 75.2954 87.6237C75.2519 87.5561 75.1901 87.5063 75.1099 87.4742C75.0309 87.441 74.9376 87.4244 74.8299 87.4244H74.6032Z" fill="#F5F7F6"/>
<path d="M83.2204 88.5701H82.6983L82.7017 88.3004H83.2204C83.3991 88.3004 83.5479 88.2632 83.667 88.1888C83.7861 88.1132 83.8754 88.0078 83.935 87.8727C83.9957 87.7364 84.026 87.5773 84.026 87.3952V87.2423C84.026 87.0992 84.0088 86.9721 83.9745 86.861C83.9401 86.7488 83.8897 86.6543 83.8233 86.5776C83.7569 86.4998 83.6756 86.4408 83.5794 86.4007C83.4844 86.3606 83.375 86.3406 83.2514 86.3406H82.688V86.0692H83.2514C83.4151 86.0692 83.5645 86.0967 83.6997 86.1517C83.8348 86.2055 83.951 86.2839 84.0483 86.387C84.1468 86.4889 84.2224 86.6125 84.2751 86.758C84.3277 86.9023 84.3541 87.0649 84.3541 87.2458V87.3952C84.3541 87.5761 84.3277 87.7393 84.2751 87.8847C84.2224 88.029 84.1462 88.1521 84.0466 88.254C83.9481 88.3559 83.8291 88.4344 83.6894 88.4893C83.5508 88.5432 83.3945 88.5701 83.2204 88.5701ZM82.8752 86.0692V88.5701H82.5437V86.0692H82.8752ZM85.7402 86.2908L84.9123 88.5701H84.5739L85.5272 86.0692H85.7453L85.7402 86.2908ZM86.4341 88.5701L85.6045 86.2908L85.5994 86.0692H85.8175L86.7742 88.5701H86.4341ZM86.3912 87.6443V87.9157H84.9862V87.6443H86.3912ZM87.8099 86.0692V88.5701H87.4836V86.0692H87.8099ZM88.6138 86.0692V86.3406H86.6815V86.0692H88.6138ZM89.7732 86.2908L88.9453 88.5701H88.6069L89.5602 86.0692H89.7783L89.7732 86.2908ZM90.4671 88.5701L89.6375 86.2908L89.6323 86.0692H89.8505L90.8072 88.5701H90.4671ZM90.4242 87.6443V87.9157H89.0191V87.6443H90.4242ZM93.5021 87.1204V87.5017C93.5021 87.7067 93.4838 87.8796 93.4472 88.0204C93.4105 88.1613 93.3579 88.2746 93.2892 88.3605C93.2205 88.4464 93.1374 88.5088 93.0401 88.5477C92.9439 88.5855 92.8351 88.6044 92.7138 88.6044C92.6176 88.6044 92.5288 88.5924 92.4475 88.5684C92.3662 88.5443 92.2929 88.5059 92.2277 88.4533C92.1635 88.3995 92.1086 88.3296 92.0628 88.2437C92.017 88.1578 91.982 88.0536 91.958 87.9311C91.934 87.8086 91.9219 87.6655 91.9219 87.5017V87.1204C91.9219 86.9154 91.9402 86.7437 91.9769 86.6051C92.0147 86.4666 92.0679 86.3555 92.1366 86.2719C92.2053 86.1872 92.2878 86.1265 92.384 86.0898C92.4813 86.0532 92.5901 86.0349 92.7103 86.0349C92.8077 86.0349 92.897 86.0469 92.9783 86.0709C93.0607 86.0938 93.134 86.131 93.1981 86.1826C93.2622 86.233 93.3166 86.3005 93.3613 86.3852C93.4071 86.4688 93.442 86.5713 93.4661 86.6927C93.4901 86.8141 93.5021 86.9566 93.5021 87.1204ZM93.1827 87.5532V87.0671C93.1827 86.9549 93.1758 86.8565 93.1621 86.7717C93.1495 86.6858 93.1306 86.6125 93.1054 86.5519C93.0802 86.4912 93.0481 86.4419 93.0092 86.4041C92.9714 86.3664 92.9273 86.3389 92.8769 86.3217C92.8277 86.3034 92.7722 86.2942 92.7103 86.2942C92.6347 86.2942 92.5678 86.3085 92.5094 86.3372C92.451 86.3646 92.4017 86.4087 92.3616 86.4694C92.3227 86.5301 92.2929 86.6097 92.2723 86.7082C92.2517 86.8066 92.2414 86.9263 92.2414 87.0671V87.5532C92.2414 87.6655 92.2477 87.7645 92.2603 87.8504C92.274 87.9363 92.2941 88.0107 92.3204 88.0737C92.3468 88.1355 92.3788 88.1865 92.4166 88.2265C92.4544 88.2666 92.4979 88.2964 92.5471 88.3159C92.5975 88.3342 92.6531 88.3433 92.7138 88.3433C92.7916 88.3433 92.8598 88.3285 92.9182 88.2987C92.9766 88.2689 93.0252 88.2225 93.0641 88.1596C93.1042 88.0954 93.134 88.0136 93.1535 87.9139C93.1729 87.8132 93.1827 87.6929 93.1827 87.5532ZM95.6011 87.7284V87.9895H93.7941V87.8023L94.914 86.0692H95.1734L94.8951 86.5708L94.1548 87.7284H95.6011ZM95.2524 86.0692V88.5701H94.9346V86.0692H95.2524Z" fill="#F5F7F6"/>
<path d="M102.752 88.5701H102.23L102.233 88.3004H102.752C102.931 88.3004 103.079 88.2632 103.199 88.1888C103.318 88.1132 103.407 88.0078 103.466 87.8727C103.527 87.7364 103.558 87.5773 103.558 87.3952V87.2423C103.558 87.0992 103.54 86.9721 103.506 86.861C103.472 86.7488 103.421 86.6543 103.355 86.5776C103.288 86.4998 103.207 86.4408 103.111 86.4007C103.016 86.3606 102.907 86.3406 102.783 86.3406H102.219V86.0692H102.783C102.947 86.0692 103.096 86.0967 103.231 86.1517C103.366 86.2055 103.482 86.2839 103.58 86.387C103.678 86.4889 103.754 86.6125 103.807 86.758C103.859 86.9023 103.886 87.0649 103.886 87.2458V87.3952C103.886 87.5761 103.859 87.7393 103.807 87.8847C103.754 88.029 103.678 88.1521 103.578 88.254C103.48 88.3559 103.361 88.4344 103.221 88.4893C103.082 88.5432 102.926 88.5701 102.752 88.5701ZM102.407 86.0692V88.5701H102.075V86.0692H102.407ZM105.272 86.2908L104.444 88.5701H104.105L105.059 86.0692H105.277L105.272 86.2908ZM105.966 88.5701L105.136 86.2908L105.131 86.0692H105.349L106.306 88.5701H105.966ZM105.923 87.6443V87.9157H104.518V87.6443H105.923ZM107.341 86.0692V88.5701H107.015V86.0692H107.341ZM108.145 86.0692V86.3406H106.213V86.0692H108.145ZM109.305 86.2908L108.477 88.5701H108.138L109.092 86.0692H109.31L109.305 86.2908ZM109.999 88.5701L109.169 86.2908L109.164 86.0692H109.382L110.339 88.5701H109.999ZM109.956 87.6443V87.9157H108.551V87.6443H109.956ZM113.034 87.1204V87.5017C113.034 87.7067 113.015 87.8796 112.979 88.0204C112.942 88.1613 112.889 88.2746 112.821 88.3605C112.752 88.4464 112.669 88.5088 112.572 88.5477C112.475 88.5855 112.367 88.6044 112.245 88.6044C112.149 88.6044 112.06 88.5924 111.979 88.5684C111.898 88.5443 111.824 88.5059 111.759 88.4533C111.695 88.3995 111.64 88.3296 111.594 88.2437C111.548 88.1578 111.514 88.0536 111.489 87.9311C111.465 87.8086 111.453 87.6655 111.453 87.5017V87.1204C111.453 86.9154 111.472 86.7437 111.508 86.6051C111.546 86.4666 111.599 86.3555 111.668 86.2719C111.737 86.1872 111.819 86.1265 111.915 86.0898C112.013 86.0532 112.122 86.0349 112.242 86.0349C112.339 86.0349 112.428 86.0469 112.51 86.0709C112.592 86.0938 112.665 86.131 112.73 86.1826C112.794 86.233 112.848 86.3005 112.893 86.3852C112.939 86.4688 112.974 86.5713 112.998 86.6927C113.022 86.8141 113.034 86.9566 113.034 87.1204ZM112.714 87.5532V87.0671C112.714 86.9549 112.707 86.8565 112.694 86.7717C112.681 86.6858 112.662 86.6125 112.637 86.5519C112.612 86.4912 112.58 86.4419 112.541 86.4041C112.503 86.3664 112.459 86.3389 112.408 86.3217C112.359 86.3034 112.304 86.2942 112.242 86.2942C112.166 86.2942 112.099 86.3085 112.041 86.3372C111.982 86.3646 111.933 86.4087 111.893 86.4694C111.854 86.5301 111.824 86.6097 111.804 86.7082C111.783 86.8066 111.773 86.9263 111.773 87.0671V87.5532C111.773 87.6655 111.779 87.7645 111.792 87.8504C111.806 87.9363 111.826 88.0107 111.852 88.0737C111.878 88.1355 111.91 88.1865 111.948 88.2265C111.986 88.2666 112.029 88.2964 112.079 88.3159C112.129 88.3342 112.185 88.3433 112.245 88.3433C112.323 88.3433 112.391 88.3285 112.45 88.2987C112.508 88.2689 112.557 88.2225 112.596 88.1596C112.636 88.0954 112.665 88.0136 112.685 87.9139C112.704 87.8132 112.714 87.6929 112.714 87.5532ZM113.844 87.3798L113.59 87.3145L113.716 86.0692H114.999V86.3629H113.985L113.91 87.0431C113.955 87.0168 114.013 86.9921 114.083 86.9692C114.154 86.9463 114.235 86.9349 114.327 86.9349C114.443 86.9349 114.546 86.9549 114.638 86.995C114.73 87.0339 114.807 87.09 114.871 87.1633C114.937 87.2366 114.987 87.3248 115.021 87.4278C115.055 87.5309 115.072 87.646 115.072 87.7731C115.072 87.8933 115.056 88.0038 115.023 88.1046C114.991 88.2054 114.942 88.2935 114.877 88.3691C114.811 88.4435 114.729 88.5014 114.629 88.5426C114.531 88.5838 114.415 88.6044 114.281 88.6044C114.18 88.6044 114.084 88.5907 113.994 88.5632C113.904 88.5346 113.824 88.4916 113.753 88.4344C113.683 88.376 113.626 88.3038 113.582 88.218C113.538 88.1309 113.511 88.029 113.499 87.9122H113.801C113.815 88.0061 113.843 88.0851 113.884 88.1493C113.925 88.2134 113.979 88.262 114.045 88.2952C114.113 88.3273 114.191 88.3433 114.281 88.3433C114.356 88.3433 114.423 88.3302 114.482 88.3038C114.54 88.2775 114.589 88.2397 114.629 88.1905C114.669 88.1412 114.7 88.0817 114.72 88.0118C114.742 87.942 114.753 87.8636 114.753 87.7765C114.753 87.6975 114.742 87.6242 114.72 87.5567C114.699 87.4891 114.666 87.4301 114.622 87.3798C114.58 87.3294 114.528 87.2904 114.466 87.263C114.404 87.2343 114.333 87.22 114.253 87.22C114.147 87.22 114.066 87.2343 114.011 87.263C113.957 87.2916 113.902 87.3305 113.844 87.3798Z" fill="#F5F7F6"/>
<path d="M122.11 88.5701H121.588L121.591 88.3004H122.11C122.288 88.3004 122.437 88.2632 122.556 88.1888C122.676 88.1132 122.765 88.0078 122.824 87.8727C122.885 87.7364 122.915 87.5773 122.915 87.3952V87.2423C122.915 87.0992 122.898 86.9721 122.864 86.861C122.83 86.7488 122.779 86.6543 122.713 86.5776C122.646 86.4998 122.565 86.4408 122.469 86.4007C122.374 86.3606 122.264 86.3406 122.141 86.3406H121.577V86.0692H122.141C122.305 86.0692 122.454 86.0967 122.589 86.1517C122.724 86.2055 122.84 86.2839 122.938 86.387C123.036 86.4889 123.112 86.6125 123.164 86.758C123.217 86.9023 123.243 87.0649 123.243 87.2458V87.3952C123.243 87.5761 123.217 87.7393 123.164 87.8847C123.112 88.029 123.036 88.1521 122.936 88.254C122.838 88.3559 122.718 88.4344 122.579 88.4893C122.44 88.5432 122.284 88.5701 122.11 88.5701ZM121.765 86.0692V88.5701H121.433V86.0692H121.765ZM124.63 86.2908L123.802 88.5701H123.463L124.417 86.0692H124.635L124.63 86.2908ZM125.324 88.5701L124.494 86.2908L124.489 86.0692H124.707L125.664 88.5701H125.324ZM125.281 87.6443V87.9157H123.876V87.6443H125.281ZM126.699 86.0692V88.5701H126.373V86.0692H126.699ZM127.503 86.0692V86.3406H125.571V86.0692H127.503ZM128.663 86.2908L127.835 88.5701H127.496L128.45 86.0692H128.668L128.663 86.2908ZM129.357 88.5701L128.527 86.2908L128.522 86.0692H128.74L129.697 88.5701H129.357ZM129.314 87.6443V87.9157H127.909V87.6443H129.314ZM132.392 87.1204V87.5017C132.392 87.7067 132.373 87.8796 132.337 88.0204C132.3 88.1613 132.247 88.2746 132.179 88.3605C132.11 88.4464 132.027 88.5088 131.93 88.5477C131.833 88.5855 131.725 88.6044 131.603 88.6044C131.507 88.6044 131.418 88.5924 131.337 88.5684C131.256 88.5443 131.182 88.5059 131.117 88.4533C131.053 88.3995 130.998 88.3296 130.952 88.2437C130.906 88.1578 130.871 88.0536 130.847 87.9311C130.823 87.8086 130.811 87.6655 130.811 87.5017V87.1204C130.811 86.9154 130.83 86.7437 130.866 86.6051C130.904 86.4666 130.957 86.3555 131.026 86.2719C131.095 86.1872 131.177 86.1265 131.273 86.0898C131.371 86.0532 131.479 86.0349 131.6 86.0349C131.697 86.0349 131.786 86.0469 131.868 86.0709C131.95 86.0938 132.023 86.131 132.088 86.1826C132.152 86.233 132.206 86.3005 132.251 86.3852C132.297 86.4688 132.331 86.5713 132.355 86.6927C132.38 86.8141 132.392 86.9566 132.392 87.1204ZM132.072 87.5532V87.0671C132.072 86.9549 132.065 86.8565 132.051 86.7717C132.039 86.6858 132.02 86.6125 131.995 86.5519C131.97 86.4912 131.938 86.4419 131.899 86.4041C131.861 86.3664 131.817 86.3389 131.766 86.3217C131.717 86.3034 131.662 86.2942 131.6 86.2942C131.524 86.2942 131.457 86.3085 131.399 86.3372C131.34 86.3646 131.291 86.4087 131.251 86.4694C131.212 86.5301 131.182 86.6097 131.162 86.7082C131.141 86.8066 131.131 86.9263 131.131 87.0671V87.5532C131.131 87.6655 131.137 87.7645 131.15 87.8504C131.163 87.9363 131.183 88.0107 131.21 88.0737C131.236 88.1355 131.268 88.1865 131.306 88.2265C131.344 88.2666 131.387 88.2964 131.437 88.3159C131.487 88.3342 131.542 88.3433 131.603 88.3433C131.681 88.3433 131.749 88.3285 131.808 88.2987C131.866 88.2689 131.915 88.2225 131.954 88.1596C131.994 88.0954 132.023 88.0136 132.043 87.9139C132.062 87.8132 132.072 87.6929 132.072 87.5532ZM134.02 86.0658H134.047V86.3354H134.02C133.852 86.3354 133.711 86.3629 133.597 86.4179C133.484 86.4717 133.394 86.5444 133.328 86.636C133.261 86.7265 133.213 86.8284 133.183 86.9418C133.155 87.0551 133.14 87.1702 133.14 87.287V87.6546C133.14 87.7656 133.154 87.8641 133.18 87.95C133.206 88.0347 133.242 88.1063 133.288 88.1647C133.334 88.2231 133.385 88.2672 133.443 88.297C133.501 88.3267 133.562 88.3416 133.625 88.3416C133.698 88.3416 133.763 88.3279 133.821 88.3004C133.878 88.2718 133.926 88.2323 133.965 88.1819C134.005 88.1304 134.035 88.0697 134.056 87.9998C134.077 87.93 134.087 87.8532 134.087 87.7697C134.087 87.6952 134.078 87.6237 134.059 87.555C134.041 87.4851 134.013 87.4233 133.975 87.3694C133.937 87.3145 133.89 87.2715 133.833 87.2406C133.777 87.2086 133.71 87.1925 133.632 87.1925C133.544 87.1925 133.461 87.2143 133.384 87.2578C133.309 87.3002 133.246 87.3563 133.197 87.4261C133.149 87.4948 133.122 87.5698 133.115 87.6511L132.946 87.6494C132.962 87.5212 132.992 87.4118 133.036 87.3214C133.08 87.2297 133.135 87.1553 133.201 87.0981C133.267 87.0397 133.341 86.9973 133.422 86.971C133.505 86.9435 133.592 86.9297 133.683 86.9297C133.808 86.9297 133.916 86.9532 134.006 87.0002C134.097 87.0471 134.171 87.1101 134.229 87.1891C134.288 87.267 134.331 87.3551 134.358 87.4536C134.387 87.5509 134.401 87.6511 134.401 87.7542C134.401 87.8721 134.385 87.9826 134.351 88.0857C134.318 88.1888 134.268 88.2792 134.202 88.3571C134.137 88.4349 134.056 88.4956 133.96 88.5392C133.864 88.5827 133.752 88.6044 133.625 88.6044C133.49 88.6044 133.372 88.5769 133.271 88.522C133.17 88.4659 133.087 88.3914 133.02 88.2987C132.954 88.2059 132.904 88.1029 132.871 87.9895C132.838 87.8761 132.821 87.7611 132.821 87.6443V87.4948C132.821 87.3185 132.839 87.1456 132.874 86.9761C132.91 86.8066 132.971 86.6532 133.058 86.5158C133.146 86.3784 133.268 86.269 133.424 86.1877C133.58 86.1064 133.778 86.0658 134.02 86.0658Z" fill="#F5F7F6"/>
<path d="M141.366 88.5701H140.844L140.848 88.3004H141.366C141.545 88.3004 141.694 88.2632 141.813 88.1888C141.932 88.1132 142.021 88.0078 142.081 87.8727C142.142 87.7364 142.172 87.5773 142.172 87.3952V87.2423C142.172 87.0992 142.155 86.9721 142.12 86.861C142.086 86.7488 142.036 86.6543 141.969 86.5776C141.903 86.4998 141.822 86.4408 141.725 86.4007C141.63 86.3606 141.521 86.3406 141.397 86.3406H140.834V86.0692H141.397C141.561 86.0692 141.711 86.0967 141.846 86.1517C141.981 86.2055 142.097 86.2839 142.194 86.387C142.293 86.4889 142.368 86.6125 142.421 86.758C142.474 86.9023 142.5 87.0649 142.5 87.2458V87.3952C142.5 87.5761 142.474 87.7393 142.421 87.8847C142.368 88.029 142.292 88.1521 142.193 88.254C142.094 88.3559 141.975 88.4344 141.835 88.4893C141.697 88.5432 141.54 88.5701 141.366 88.5701ZM141.021 86.0692V88.5701H140.69V86.0692H141.021ZM143.886 86.2908L143.058 88.5701H142.72L143.673 86.0692H143.891L143.886 86.2908ZM144.58 88.5701L143.751 86.2908L143.745 86.0692H143.963L144.92 88.5701H144.58ZM144.537 87.6443V87.9157H143.132V87.6443H144.537ZM145.956 86.0692V88.5701H145.63V86.0692H145.956ZM146.76 86.0692V86.3406H144.827V86.0692H146.76ZM147.919 86.2908L147.091 88.5701H146.753L147.706 86.0692H147.924L147.919 86.2908ZM148.613 88.5701L147.783 86.2908L147.778 86.0692H147.996L148.953 88.5701H148.613ZM148.57 87.6443V87.9157H147.165V87.6443H148.57ZM151.648 87.1204V87.5017C151.648 87.7067 151.63 87.8796 151.593 88.0204C151.557 88.1613 151.504 88.2746 151.435 88.3605C151.366 88.4464 151.283 88.5088 151.186 88.5477C151.09 88.5855 150.981 88.6044 150.86 88.6044C150.764 88.6044 150.675 88.5924 150.594 88.5684C150.512 88.5443 150.439 88.5059 150.374 88.4533C150.31 88.3995 150.255 88.3296 150.209 88.2437C150.163 88.1578 150.128 88.0536 150.104 87.9311C150.08 87.8086 150.068 87.6655 150.068 87.5017V87.1204C150.068 86.9154 150.086 86.7437 150.123 86.6051C150.161 86.4666 150.214 86.3555 150.283 86.2719C150.351 86.1872 150.434 86.1265 150.53 86.0898C150.627 86.0532 150.736 86.0349 150.856 86.0349C150.954 86.0349 151.043 86.0469 151.124 86.0709C151.207 86.0938 151.28 86.131 151.344 86.1826C151.408 86.233 151.463 86.3005 151.507 86.3852C151.553 86.4688 151.588 86.5713 151.612 86.6927C151.636 86.8141 151.648 86.9566 151.648 87.1204ZM151.329 87.5532V87.0671C151.329 86.9549 151.322 86.8565 151.308 86.7717C151.295 86.6858 151.277 86.6125 151.251 86.5519C151.226 86.4912 151.194 86.4419 151.155 86.4041C151.117 86.3664 151.073 86.3389 151.023 86.3217C150.974 86.3034 150.918 86.2942 150.856 86.2942C150.781 86.2942 150.714 86.3085 150.655 86.3372C150.597 86.3646 150.548 86.4087 150.508 86.4694C150.469 86.5301 150.439 86.6097 150.418 86.7082C150.398 86.8066 150.387 86.9263 150.387 87.0671V87.5532C150.387 87.6655 150.394 87.7645 150.406 87.8504C150.42 87.9363 150.44 88.0107 150.466 88.0737C150.493 88.1355 150.525 88.1865 150.563 88.2265C150.6 88.2666 150.644 88.2964 150.693 88.3159C150.744 88.3342 150.799 88.3433 150.86 88.3433C150.938 88.3433 151.006 88.3285 151.064 88.2987C151.123 88.2689 151.171 88.2225 151.21 88.1596C151.25 88.0954 151.28 88.0136 151.299 87.9139C151.319 87.8132 151.329 87.6929 151.329 87.5532ZM153.673 86.0692V86.2478L152.637 88.5701H152.303L153.337 86.3303H151.983V86.0692H153.673Z" fill="#F5F7F6"/>
<path d="M160.313 88.5701H159.791L159.795 88.3004H160.313C160.492 88.3004 160.641 88.2632 160.76 88.1888C160.879 88.1132 160.968 88.0078 161.028 87.8727C161.089 87.7364 161.119 87.5773 161.119 87.3952V87.2423C161.119 87.0992 161.102 86.9721 161.067 86.861C161.033 86.7488 160.983 86.6543 160.916 86.5776C160.85 86.4998 160.769 86.4408 160.672 86.4007C160.577 86.3606 160.468 86.3406 160.344 86.3406H159.781V86.0692H160.344C160.508 86.0692 160.658 86.0967 160.793 86.1517C160.928 86.2055 161.044 86.2839 161.141 86.387C161.24 86.4889 161.315 86.6125 161.368 86.758C161.421 86.9023 161.447 87.0649 161.447 87.2458V87.3952C161.447 87.5761 161.421 87.7393 161.368 87.8847C161.315 88.029 161.239 88.1521 161.14 88.254C161.041 88.3559 160.922 88.4344 160.782 88.4893C160.644 88.5432 160.488 88.5701 160.313 88.5701ZM159.968 86.0692V88.5701H159.637V86.0692H159.968ZM162.833 86.2908L162.005 88.5701H161.667L162.62 86.0692H162.838L162.833 86.2908ZM163.527 88.5701L162.698 86.2908L162.692 86.0692H162.911L163.867 88.5701H163.527ZM163.484 87.6443V87.9157H162.079V87.6443H163.484ZM164.903 86.0692V88.5701H164.577V86.0692H164.903ZM165.707 86.0692V86.3406H163.774V86.0692H165.707ZM166.866 86.2908L166.038 88.5701H165.7L166.653 86.0692H166.871L166.866 86.2908ZM167.56 88.5701L166.731 86.2908L166.725 86.0692H166.943L167.9 88.5701H167.56ZM167.517 87.6443V87.9157H166.112V87.6443H167.517ZM170.595 87.1204V87.5017C170.595 87.7067 170.577 87.8796 170.54 88.0204C170.504 88.1613 170.451 88.2746 170.382 88.3605C170.313 88.4464 170.23 88.5088 170.133 88.5477C170.037 88.5855 169.928 88.6044 169.807 88.6044C169.711 88.6044 169.622 88.5924 169.541 88.5684C169.459 88.5443 169.386 88.5059 169.321 88.4533C169.257 88.3995 169.202 88.3296 169.156 88.2437C169.11 88.1578 169.075 88.0536 169.051 87.9311C169.027 87.8086 169.015 87.6655 169.015 87.5017V87.1204C169.015 86.9154 169.033 86.7437 169.07 86.6051C169.108 86.4666 169.161 86.3555 169.23 86.2719C169.298 86.1872 169.381 86.1265 169.477 86.0898C169.574 86.0532 169.683 86.0349 169.803 86.0349C169.901 86.0349 169.99 86.0469 170.071 86.0709C170.154 86.0938 170.227 86.131 170.291 86.1826C170.355 86.233 170.41 86.3005 170.454 86.3852C170.5 86.4688 170.535 86.5713 170.559 86.6927C170.583 86.8141 170.595 86.9566 170.595 87.1204ZM170.276 87.5532V87.0671C170.276 86.9549 170.269 86.8565 170.255 86.7717C170.242 86.6858 170.224 86.6125 170.198 86.5519C170.173 86.4912 170.141 86.4419 170.102 86.4041C170.064 86.3664 170.02 86.3389 169.97 86.3217C169.921 86.3034 169.865 86.2942 169.803 86.2942C169.728 86.2942 169.661 86.3085 169.602 86.3372C169.544 86.3646 169.495 86.4087 169.455 86.4694C169.416 86.5301 169.386 86.6097 169.365 86.7082C169.345 86.8066 169.334 86.9263 169.334 87.0671V87.5532C169.334 87.6655 169.341 87.7645 169.353 87.8504C169.367 87.9363 169.387 88.0107 169.413 88.0737C169.44 88.1355 169.472 88.1865 169.51 88.2265C169.547 88.2666 169.591 88.2964 169.64 88.3159C169.691 88.3342 169.746 88.3433 169.807 88.3433C169.885 88.3433 169.953 88.3285 170.011 88.2987C170.07 88.2689 170.118 88.2225 170.157 88.1596C170.197 88.0954 170.227 88.0136 170.246 87.9139C170.266 87.8132 170.276 87.6929 170.276 87.5532ZM172.581 87.8933C172.581 88.0456 172.545 88.175 172.474 88.2815C172.404 88.3869 172.309 88.467 172.189 88.522C172.07 88.5769 171.935 88.6044 171.785 88.6044C171.635 88.6044 171.5 88.5769 171.38 88.522C171.26 88.467 171.165 88.3869 171.095 88.2815C171.025 88.175 170.99 88.0456 170.99 87.8933C170.99 87.7937 171.009 87.7027 171.047 87.6202C171.086 87.5366 171.14 87.4639 171.21 87.4021C171.281 87.3402 171.365 87.2927 171.461 87.2595C171.558 87.2252 171.665 87.208 171.782 87.208C171.935 87.208 172.072 87.2378 172.193 87.2973C172.313 87.3557 172.407 87.4364 172.476 87.5395C172.546 87.6426 172.581 87.7605 172.581 87.8933ZM172.261 87.8865C172.261 87.7937 172.241 87.7118 172.201 87.6408C172.161 87.5687 172.105 87.5126 172.033 87.4725C171.961 87.4324 171.877 87.4124 171.782 87.4124C171.685 87.4124 171.601 87.4324 171.53 87.4725C171.46 87.5126 171.405 87.5687 171.366 87.6408C171.327 87.7118 171.308 87.7937 171.308 87.8865C171.308 87.9826 171.327 88.0651 171.365 88.1338C171.404 88.2014 171.459 88.2535 171.53 88.2901C171.602 88.3256 171.687 88.3433 171.785 88.3433C171.884 88.3433 171.969 88.3256 172.04 88.2901C172.111 88.2535 172.165 88.2014 172.203 88.1338C172.242 88.0651 172.261 87.9826 172.261 87.8865ZM172.522 86.7202C172.522 86.8416 172.49 86.9509 172.426 87.0483C172.362 87.1456 172.274 87.2223 172.163 87.2784C172.052 87.3345 171.926 87.3626 171.785 87.3626C171.642 87.3626 171.515 87.3345 171.402 87.2784C171.291 87.2223 171.204 87.1456 171.141 87.0483C171.078 86.9509 171.047 86.8416 171.047 86.7202C171.047 86.5748 171.078 86.4511 171.141 86.3492C171.205 86.2473 171.293 86.1694 171.404 86.1156C171.515 86.0618 171.642 86.0349 171.784 86.0349C171.927 86.0349 172.054 86.0618 172.165 86.1156C172.276 86.1694 172.363 86.2473 172.426 86.3492C172.49 86.4511 172.522 86.5748 172.522 86.7202ZM172.205 86.7253C172.205 86.6417 172.187 86.5679 172.151 86.5038C172.116 86.4396 172.067 86.3893 172.004 86.3526C171.941 86.3148 171.867 86.2959 171.784 86.2959C171.7 86.2959 171.627 86.3137 171.564 86.3492C171.502 86.3835 171.453 86.4328 171.418 86.4969C171.384 86.561 171.366 86.6372 171.366 86.7253C171.366 86.8112 171.384 86.8862 171.418 86.9503C171.453 87.0145 171.503 87.0643 171.566 87.0998C171.629 87.1353 171.702 87.153 171.785 87.153C171.869 87.153 171.942 87.1353 172.004 87.0998C172.067 87.0643 172.116 87.0145 172.151 86.9503C172.187 86.8862 172.205 86.8112 172.205 86.7253Z" fill="#F5F7F6"/>
<defs>
<linearGradient id="paint0_linear_479_2677" x1="27.131" y1="97.6365" x2="27.131" y2="37.761" gradientUnits="userSpaceOnUse">
<stop stop-color="#27B7FF"/>
<stop offset="0.9899" stop-color="#F408AB"/>
</linearGradient>
<linearGradient id="paint1_linear_479_2677" x1="33.6316" y1="97.6362" x2="33.6316" y2="37.7608" gradientUnits="userSpaceOnUse">
<stop stop-color="#27B7FF"/>
<stop offset="0.9899" stop-color="#F408AB"/>
</linearGradient>
<linearGradient id="paint2_linear_479_2677" x1="46.6328" y1="97.6363" x2="46.6328" y2="37.7609" gradientUnits="userSpaceOnUse">
<stop stop-color="#27B7FF"/>
<stop offset="0.9899" stop-color="#F408AB"/>
</linearGradient>
<linearGradient id="paint3_linear_479_2677" x1="53.1332" y1="97.6364" x2="53.1332" y2="37.7611" gradientUnits="userSpaceOnUse">
<stop stop-color="#27B7FF"/>
<stop offset="0.9899" stop-color="#F408AB"/>
</linearGradient>
<linearGradient id="paint4_linear_479_2677" x1="66.1345" y1="97.6364" x2="66.1345" y2="37.7612" gradientUnits="userSpaceOnUse">
<stop stop-color="#27B7FF"/>
<stop offset="0.9899" stop-color="#F408AB"/>
</linearGradient>
<linearGradient id="paint5_linear_479_2677" x1="72.6351" y1="97.6364" x2="72.6351" y2="37.761" gradientUnits="userSpaceOnUse">
<stop stop-color="#27B7FF"/>
<stop offset="0.9899" stop-color="#F408AB"/>
</linearGradient>
<linearGradient id="paint6_linear_479_2677" x1="85.6363" y1="97.6363" x2="85.6363" y2="37.761" gradientUnits="userSpaceOnUse">
<stop stop-color="#27B7FF"/>
<stop offset="0.9899" stop-color="#F408AB"/>
</linearGradient>
<linearGradient id="paint7_linear_479_2677" x1="92.1367" y1="97.6364" x2="92.1367" y2="37.7609" gradientUnits="userSpaceOnUse">
<stop stop-color="#27B7FF"/>
<stop offset="0.9899" stop-color="#F408AB"/>
</linearGradient>
<linearGradient id="paint8_linear_479_2677" x1="105.138" y1="97.6363" x2="105.138" y2="37.7611" gradientUnits="userSpaceOnUse">
<stop stop-color="#27B7FF"/>
<stop offset="0.9899" stop-color="#F408AB"/>
</linearGradient>
<linearGradient id="paint9_linear_479_2677" x1="111.638" y1="97.6365" x2="111.638" y2="37.7611" gradientUnits="userSpaceOnUse">
<stop stop-color="#27B7FF"/>
<stop offset="0.9899" stop-color="#F408AB"/>
</linearGradient>
<linearGradient id="paint10_linear_479_2677" x1="124.64" y1="97.6365" x2="124.64" y2="37.7609" gradientUnits="userSpaceOnUse">
<stop stop-color="#27B7FF"/>
<stop offset="0.9899" stop-color="#F408AB"/>
</linearGradient>
<linearGradient id="paint11_linear_479_2677" x1="131.14" y1="97.6363" x2="131.14" y2="37.7609" gradientUnits="userSpaceOnUse">
<stop stop-color="#27B7FF"/>
<stop offset="0.9899" stop-color="#F408AB"/>
</linearGradient>
<linearGradient id="paint12_linear_479_2677" x1="144.141" y1="97.6363" x2="144.141" y2="37.7611" gradientUnits="userSpaceOnUse">
<stop stop-color="#27B7FF"/>
<stop offset="0.9899" stop-color="#F408AB"/>
</linearGradient>
<linearGradient id="paint13_linear_479_2677" x1="150.642" y1="97.6364" x2="150.642" y2="37.7609" gradientUnits="userSpaceOnUse">
<stop stop-color="#27B7FF"/>
<stop offset="0.9899" stop-color="#F408AB"/>
</linearGradient>
<linearGradient id="paint14_linear_479_2677" x1="163.643" y1="97.6363" x2="163.643" y2="37.7609" gradientUnits="userSpaceOnUse">
<stop stop-color="#27B7FF"/>
<stop offset="0.9899" stop-color="#F408AB"/>
</linearGradient>
<linearGradient id="paint15_linear_479_2677" x1="170.144" y1="97.6365" x2="170.144" y2="37.7611" gradientUnits="userSpaceOnUse">
<stop stop-color="#27B7FF"/>
<stop offset="0.9899" stop-color="#F408AB"/>
</linearGradient>
</defs>
</svg>
