<svg width="282" height="57" viewBox="0 0 282 57" fill="none" xmlns="http://www.w3.org/2000/svg">
<path d="M23.403 6.12639C24.551 5.87633 25.7445 5.72857 26.9493 5.66037V0C25.233 0.0681975 23.5621 0.295507 21.9368 0.659227L23.403 6.12639Z" fill="url(#paint0_linear_479_2896)"/>
<path d="M13.0485 11.4231C13.9351 10.6275 14.8785 9.9 15.8901 9.24076L13.0599 4.33057C11.6277 5.23987 10.2865 6.27419 9.04761 7.41081L13.0485 11.4231Z" fill="url(#paint1_linear_479_2896)"/>
<path d="M17.879 8.09275C18.9361 7.54717 20.0386 7.0925 21.1866 6.72878L19.7204 1.25024C18.095 1.76173 16.5378 2.40963 15.0488 3.1939L17.879 8.09275Z" fill="url(#paint2_linear_479_2896)"/>
<path d="M9.24065 15.8898C9.88852 14.8896 10.6159 13.9348 11.4229 13.0483L7.42204 9.04736C6.28542 10.2863 5.2511 11.6275 4.3418 13.0596L9.24065 15.8898Z" fill="url(#paint3_linear_479_2896)"/>
<path d="M5.66039 26.9608C5.71722 25.7446 5.87635 24.5625 6.12641 23.4145L0.659244 21.9482C0.295525 23.5736 0.0795637 25.2445 0 26.9608H5.66039Z" fill="url(#paint4_linear_479_2896)"/>
<path d="M6.71731 21.1866C7.0924 20.0386 7.54706 18.9361 8.08127 17.879L3.18241 15.0488C2.39813 16.5378 1.75025 18.095 1.23877 19.7203L6.71731 21.1866Z" fill="url(#paint5_linear_479_2896)"/>
<path d="M53.0234 15.0488L48.1245 17.879C48.6701 18.9361 49.1248 20.0386 49.4885 21.1866L54.967 19.7203C54.4555 18.095 53.7963 16.5264 53.0234 15.0488Z" fill="url(#paint6_linear_479_2896)"/>
<path d="M44.783 13.0483C45.5786 13.9348 46.3061 14.8782 46.9653 15.8898L51.8755 13.0596C50.9662 11.6275 49.9319 10.2863 48.7952 9.04736L44.783 13.0483Z" fill="url(#paint7_linear_479_2896)"/>
<path opacity="0.43" d="M35.0195 6.72878C36.1675 7.10387 37.2701 7.55853 38.3271 8.09275L41.1573 3.1939C39.6683 2.40963 38.1112 1.76173 36.4858 1.25024L35.0195 6.72878Z" fill="#406EB2"/>
<path opacity="0.43" d="M40.3162 9.24065C41.3164 9.88852 42.2712 10.616 43.1577 11.423L47.1586 7.42208C45.9197 6.28545 44.5785 5.2511 43.1463 4.3418L40.3162 9.24065Z" fill="#406EB2"/>
<path opacity="0.43" d="M29.2566 5.66037C30.4728 5.7172 31.6549 5.87633 32.8029 6.12639L34.2691 0.659227C32.6437 0.295507 30.9729 0.0795637 29.2566 0V5.66037Z" fill="#406EB2"/>
<path d="M6.12641 32.8029C5.87635 31.6549 5.72858 30.4614 5.66039 29.2566H0C0.0681975 30.9729 0.295525 32.6437 0.659244 34.2691L6.12641 32.8029Z" fill="url(#paint8_linear_479_2896)"/>
<path d="M8.09271 38.3269C7.54713 37.2698 7.09249 36.1673 6.72877 35.0193L1.25024 36.4855C1.76173 38.1109 2.40959 39.6681 3.19386 41.1571L8.09271 38.3269Z" fill="url(#paint9_linear_479_2896)"/>
<path d="M43.1577 44.783C42.2712 45.5786 41.3278 46.306 40.3162 46.9653L43.1463 51.8755C44.5785 50.9662 45.9197 49.9319 47.1586 48.7952L43.1577 44.783Z" fill="url(#paint10_linear_479_2896)"/>
<path d="M49.4885 35.0308C49.1134 36.1788 48.6587 37.2813 48.1245 38.3383L53.0234 41.1686C53.8076 39.6796 54.4555 38.1224 54.967 36.497L49.4885 35.0308Z" fill="url(#paint11_linear_479_2896)"/>
<path d="M38.3271 48.1133C37.2701 48.6589 36.1675 49.1135 35.0195 49.4772L36.4858 54.9558C38.1112 54.4443 39.6683 53.7964 41.1573 53.0121L38.3271 48.1133Z" fill="url(#paint12_linear_479_2896)"/>
<path d="M50.0798 23.403C50.3299 24.551 50.4777 25.7445 50.5459 26.9493H56.2063C56.1381 25.233 55.9107 23.5621 55.547 21.9368L50.0798 23.403Z" fill="url(#paint13_linear_479_2896)"/>
<path d="M50.5459 29.2566C50.489 30.4728 50.3299 31.6549 50.0798 32.8029L55.547 34.2691C55.9107 32.6437 56.1267 30.9729 56.2063 29.2566H50.5459Z" fill="url(#paint14_linear_479_2896)"/>
<path d="M46.9653 40.3274C46.3174 41.3276 45.59 42.2824 44.783 43.169L48.7839 47.1699C49.9205 45.931 50.9548 44.5898 51.8641 43.1576L46.9653 40.3274Z" fill="url(#paint15_linear_479_2896)"/>
<path d="M15.8901 46.9653C14.8899 46.3174 13.9351 45.59 13.0485 44.783L9.04761 48.7839C10.2865 49.9205 11.6277 50.9548 13.0599 51.8641L15.8901 46.9653Z" fill="url(#paint16_linear_479_2896)"/>
<path d="M11.4231 43.1575C10.6275 42.2709 9.90004 41.3275 9.24079 40.3159L4.33057 43.1461C5.23987 44.5782 6.2742 45.9195 7.41083 47.1584L11.4231 43.1575Z" fill="url(#paint17_linear_479_2896)"/>
<path d="M26.9493 50.5456C25.7331 50.4888 24.551 50.3296 23.403 50.0796L21.9368 55.5468C23.5621 55.9105 25.233 56.1264 26.9493 56.206V50.5456Z" fill="url(#paint18_linear_479_2896)"/>
<path d="M21.1866 49.4884C20.0386 49.1134 18.9361 48.6587 17.879 48.1245L15.0488 53.0234C16.5378 53.8076 18.095 54.4555 19.7204 54.967L21.1866 49.4884Z" fill="url(#paint19_linear_479_2896)"/>
<path d="M32.8029 50.0796C31.6549 50.3296 30.4614 50.4774 29.2566 50.5456V56.206C30.9729 56.1378 32.6437 55.9105 34.2691 55.5468L32.8029 50.0796Z" fill="url(#paint20_linear_479_2896)"/>
<path d="M98.1247 6.12639C99.2727 5.87633 100.466 5.72857 101.671 5.66037V0C99.9547 0.0681975 98.2838 0.295507 96.6584 0.659227L98.1247 6.12639Z" fill="url(#paint21_linear_479_2896)"/>
<path d="M87.7587 11.4231C88.6453 10.6275 89.5887 9.9 90.6003 9.24076L87.7701 4.33057C86.3379 5.23987 84.9967 6.27419 83.7578 7.41081L87.7587 11.4231Z" fill="url(#paint22_linear_479_2896)"/>
<path d="M92.5892 8.09275C93.6463 7.54717 94.7488 7.0925 95.8968 6.72878L94.4306 1.25024C92.8052 1.76173 91.248 2.40963 89.759 3.1939L92.5892 8.09275Z" fill="url(#paint23_linear_479_2896)"/>
<path d="M83.9623 15.8898C84.6102 14.8896 85.3377 13.9348 86.1447 13.0483L82.1437 9.04736C81.0071 10.2863 79.9728 11.6275 79.0635 13.0596L83.9623 15.8898Z" fill="url(#paint24_linear_479_2896)"/>
<path d="M80.3818 26.9608C80.4387 25.7446 80.5978 24.5625 80.8479 23.4145L75.3807 21.9482C75.017 23.5736 74.801 25.2445 74.7214 26.9608H80.3818Z" fill="url(#paint25_linear_479_2896)"/>
<path d="M81.439 21.1866C81.814 20.0386 82.2687 18.9361 82.8029 17.879L77.9041 15.0488C77.1198 16.5378 76.4719 18.095 75.9604 19.7203L81.439 21.1866Z" fill="url(#paint26_linear_479_2896)"/>
<path opacity="0.43" d="M127.734 15.0488L122.835 17.879C123.38 18.9361 123.835 20.0386 124.199 21.1866L129.677 19.7203C129.166 18.095 128.518 16.5264 127.734 15.0488Z" fill="#406EB2"/>
<path opacity="0.43" d="M119.493 13.0483C120.289 13.9348 121.016 14.8782 121.675 15.8898L126.586 13.0596C125.676 11.6275 124.642 10.2863 123.505 9.04736L119.493 13.0483Z" fill="#406EB2"/>
<path opacity="0.43" d="M109.741 6.72878C110.889 7.10387 111.991 7.55853 113.049 8.09275L115.879 3.1939C114.39 2.40963 112.833 1.76173 111.207 1.25024L109.741 6.72878Z" fill="#406EB2"/>
<path opacity="0.43" d="M115.038 9.24065C116.038 9.88852 116.993 10.616 117.879 11.423L121.88 7.42208C120.641 6.28545 119.3 5.2511 117.868 4.3418L115.038 9.24065Z" fill="#406EB2"/>
<path opacity="0.43" d="M103.967 5.66037C105.183 5.7172 106.365 5.87633 107.513 6.12639L108.979 0.659227C107.354 0.295507 105.683 0.0795637 103.967 0V5.66037Z" fill="#406EB2"/>
<path d="M80.8366 32.8029C80.5865 31.6549 80.4388 30.4614 80.3706 29.2566H74.7102C74.7784 30.9729 75.0057 32.6437 75.3694 34.2691L80.8366 32.8029Z" fill="url(#paint27_linear_479_2896)"/>
<path d="M82.8029 38.3269C82.2573 37.2698 81.8027 36.1673 81.439 35.0193L75.9604 36.4855C76.4719 38.1109 77.1198 39.6681 77.9041 41.1571L82.8029 38.3269Z" fill="url(#paint28_linear_479_2896)"/>
<path d="M117.868 44.783C116.981 45.5786 116.038 46.306 115.026 46.9653L117.856 51.8755C119.288 50.9662 120.63 49.9319 121.869 48.7952L117.868 44.783Z" fill="url(#paint29_linear_479_2896)"/>
<path d="M124.199 35.0308C123.824 36.1788 123.369 37.2813 122.835 38.3383L127.734 41.1686C128.518 39.6796 129.166 38.1224 129.677 36.497L124.199 35.0308Z" fill="url(#paint30_linear_479_2896)"/>
<path d="M113.049 48.1133C111.991 48.6589 110.889 49.1135 109.741 49.4772L111.207 54.9558C112.833 54.4443 114.39 53.7964 115.879 53.0121L113.049 48.1133Z" fill="url(#paint31_linear_479_2896)"/>
<path opacity="0.43" d="M124.79 23.403C125.04 24.551 125.188 25.7445 125.256 26.9493H130.916C130.848 25.233 130.621 23.5621 130.257 21.9368L124.79 23.403Z" fill="#406EB2"/>
<path d="M125.256 29.2566C125.199 30.4728 125.04 31.6549 124.79 32.8029L130.257 34.2691C130.621 32.6437 130.837 30.9729 130.916 29.2566H125.256Z" fill="url(#paint32_linear_479_2896)"/>
<path d="M121.675 40.3274C121.028 41.3276 120.3 42.2824 119.493 43.169L123.494 47.1699C124.631 45.931 125.665 44.5898 126.574 43.1576L121.675 40.3274Z" fill="url(#paint33_linear_479_2896)"/>
<path d="M90.6003 46.9653C89.6001 46.3174 88.6453 45.59 87.7587 44.783L83.7578 48.7839C84.9967 49.9205 86.3379 50.9548 87.7701 51.8641L90.6003 46.9653Z" fill="url(#paint34_linear_479_2896)"/>
<path d="M86.1333 43.1575C85.3377 42.2709 84.6102 41.3275 83.951 40.3159L79.0408 43.1461C79.9501 44.5782 80.9844 45.9195 82.121 47.1584L86.1333 43.1575Z" fill="url(#paint35_linear_479_2896)"/>
<path d="M101.671 50.5456C100.455 50.4888 99.2727 50.3296 98.1247 50.0796L96.6584 55.5468C98.2838 55.9105 99.9547 56.1264 101.671 56.206V50.5456Z" fill="url(#paint36_linear_479_2896)"/>
<path d="M95.8968 49.4884C94.7488 49.1134 93.6463 48.6587 92.5892 48.1245L89.759 53.0234C91.248 53.8076 92.8052 54.4555 94.4306 54.967L95.8968 49.4884Z" fill="url(#paint37_linear_479_2896)"/>
<path d="M107.513 50.0796C106.365 50.3296 105.172 50.4774 103.967 50.5456V56.206C105.683 56.1378 107.354 55.9105 108.979 55.5468L107.513 50.0796Z" fill="url(#paint38_linear_479_2896)"/>
<path d="M176.12 6.12639C177.268 5.87633 178.462 5.72857 179.666 5.66037V0C177.95 0.0681975 176.279 0.295507 174.654 0.659227L176.12 6.12639Z" fill="url(#paint39_linear_479_2896)"/>
<path d="M165.765 11.4231C166.652 10.6275 167.595 9.9 168.607 9.24076L165.777 4.33057C164.345 5.23987 163.003 6.27419 161.764 7.41081L165.765 11.4231Z" fill="url(#paint40_linear_479_2896)"/>
<path d="M170.585 8.09275C171.642 7.54717 172.744 7.0925 173.892 6.72878L172.426 1.25024C170.801 1.76173 169.243 2.40963 167.754 3.1939L170.585 8.09275Z" fill="url(#paint41_linear_479_2896)"/>
<path d="M161.958 15.8898C162.606 14.8896 163.333 13.9348 164.14 13.0483L160.139 9.04736C159.002 10.2863 157.968 11.6275 157.059 13.0596L161.958 15.8898Z" fill="url(#paint42_linear_479_2896)"/>
<path d="M158.377 26.9608C158.434 25.7446 158.593 24.5625 158.843 23.4145L153.376 21.9482C153.013 23.5736 152.797 25.2445 152.717 26.9608H158.377Z" fill="url(#paint43_linear_479_2896)"/>
<path d="M159.434 21.1866C159.809 20.0386 160.264 18.9361 160.798 17.879L155.899 15.0488C155.115 16.5378 154.467 18.095 153.956 19.7203L159.434 21.1866Z" fill="url(#paint44_linear_479_2896)"/>
<path opacity="0.43" d="M205.729 15.0488L200.83 17.879C201.376 18.9361 201.831 20.0386 202.194 21.1866L207.673 19.7203C207.161 18.095 206.513 16.5264 205.729 15.0488Z" fill="#406EB2"/>
<path opacity="0.43" d="M197.489 13.0483C198.284 13.9348 199.012 14.8782 199.671 15.8898L204.581 13.0596C203.672 11.6275 202.638 10.2863 201.501 9.04736L197.489 13.0483Z" fill="#406EB2"/>
<path opacity="0.43" d="M187.737 6.72878C188.885 7.10387 189.987 7.55853 191.044 8.09275L193.874 3.1939C192.385 2.40963 190.828 1.76173 189.203 1.25024L187.737 6.72878Z" fill="#406EB2"/>
<path opacity="0.43" d="M193.033 9.24065C194.033 9.88852 194.988 10.616 195.875 11.423L199.876 7.42208C198.637 6.28545 197.296 5.2511 195.863 4.3418L193.033 9.24065Z" fill="#406EB2"/>
<path opacity="0.43" d="M181.962 5.66037C183.179 5.7172 184.361 5.87633 185.509 6.12639L186.975 0.659227C185.35 0.295507 183.679 0.0795637 181.962 0V5.66037Z" fill="#406EB2"/>
<path d="M158.832 32.8029C158.582 31.6549 158.434 30.4614 158.366 29.2566H152.706C152.774 30.9729 153.001 32.6437 153.365 34.2691L158.832 32.8029Z" fill="url(#paint45_linear_479_2896)"/>
<path d="M160.798 38.3269C160.253 37.2698 159.798 36.1673 159.434 35.0193L153.956 36.4855C154.467 38.1109 155.115 39.6681 155.899 41.1571L160.798 38.3269Z" fill="url(#paint46_linear_479_2896)"/>
<path opacity="0.43" d="M195.863 44.783C194.977 45.5786 194.033 46.306 193.022 46.9653L195.852 51.8755C197.284 50.9662 198.625 49.9319 199.864 48.7952L195.863 44.783Z" fill="#406EB2"/>
<path opacity="0.43" d="M202.194 35.0308C201.819 36.1788 201.365 37.2813 200.83 38.3383L205.729 41.1686C206.513 39.6796 207.161 38.1224 207.673 36.497L202.194 35.0308Z" fill="#406EB2"/>
<path opacity="0.43" d="M191.044 48.1133C189.987 48.6589 188.885 49.1135 187.737 49.4772L189.203 54.9558C190.828 54.4443 192.385 53.7964 193.874 53.0121L191.044 48.1133Z" fill="#406EB2"/>
<path opacity="0.43" d="M202.785 23.403C203.035 24.551 203.183 25.7445 203.251 26.9493H208.912C208.844 25.233 208.616 23.5621 208.253 21.9368L202.785 23.403Z" fill="#406EB2"/>
<path opacity="0.43" d="M203.251 29.2566C203.195 30.4728 203.035 31.6549 202.785 32.8029L208.253 34.2691C208.616 32.6437 208.832 30.9729 208.912 29.2566H203.251Z" fill="#406EB2"/>
<path opacity="0.43" d="M199.671 40.3274C199.023 41.3276 198.296 42.2824 197.489 43.169L201.49 47.1699C202.626 45.931 203.661 44.5898 204.57 43.1576L199.671 40.3274Z" fill="#406EB2"/>
<path d="M168.596 46.9653C167.595 46.3174 166.641 45.59 165.754 44.783L161.753 48.7839C162.992 49.9205 164.333 50.9548 165.765 51.8641L168.596 46.9653Z" fill="url(#paint47_linear_479_2896)"/>
<path d="M164.129 43.1575C163.333 42.2709 162.606 41.3275 161.946 40.3159L157.036 43.1461C157.945 44.5782 158.98 45.9195 160.116 47.1584L164.129 43.1575Z" fill="url(#paint48_linear_479_2896)"/>
<path d="M179.666 50.5456C178.45 50.4888 177.268 50.3296 176.12 50.0796L174.654 55.5468C176.279 55.9105 177.95 56.1264 179.666 56.206V50.5456Z" fill="url(#paint49_linear_479_2896)"/>
<path d="M173.892 49.4884C172.744 49.1134 171.642 48.6587 170.585 48.1245L167.754 53.0234C169.243 53.8076 170.801 54.4555 172.426 54.967L173.892 49.4884Z" fill="url(#paint50_linear_479_2896)"/>
<path opacity="0.43" d="M185.509 50.0796C184.361 50.3296 183.167 50.4774 181.962 50.5456V56.206C183.679 56.1378 185.35 55.9105 186.975 55.5468L185.509 50.0796Z" fill="#406EB2"/>
<path d="M248.33 6.12639C249.478 5.87633 250.671 5.72857 251.876 5.66037V0C250.16 0.0681975 248.489 0.295507 246.864 0.659227L248.33 6.12639Z" fill="url(#paint51_linear_479_2896)"/>
<path d="M237.975 11.4231C238.862 10.6275 239.805 9.9 240.817 9.24076L237.987 4.33057C236.555 5.23987 235.213 6.27419 233.974 7.41081L237.975 11.4231Z" fill="url(#paint52_linear_479_2896)"/>
<path d="M242.795 8.09275C243.852 7.54717 244.954 7.0925 246.102 6.72878L244.636 1.25024C243.011 1.76173 241.453 2.40963 239.964 3.1939L242.795 8.09275Z" fill="url(#paint53_linear_479_2896)"/>
<path d="M234.167 15.8898C234.815 14.8896 235.543 13.9348 236.35 13.0483L232.349 9.04736C231.212 10.2863 230.178 11.6275 229.269 13.0596L234.167 15.8898Z" fill="url(#paint54_linear_479_2896)"/>
<path d="M230.587 26.9608C230.644 25.7446 230.803 24.5625 231.053 23.4145L225.586 21.9482C225.222 23.5736 225.006 25.2445 224.927 26.9608H230.587Z" fill="url(#paint55_linear_479_2896)"/>
<path d="M231.644 21.1866C232.019 20.0386 232.474 18.9361 233.008 17.879L228.109 15.0488C227.325 16.5378 226.677 18.095 226.166 19.7203L231.644 21.1866Z" fill="url(#paint56_linear_479_2896)"/>
<path opacity="0.43" d="M277.939 15.0488L273.04 17.879C273.586 18.9361 274.04 20.0386 274.404 21.1866L279.883 19.7203C279.371 18.095 278.723 16.5264 277.939 15.0488Z" fill="#406EB2"/>
<path opacity="0.43" d="M269.71 13.0483C270.505 13.9348 271.233 14.8782 271.892 15.8898L276.802 13.0596C275.893 11.6275 274.859 10.2863 273.722 9.04736L269.71 13.0483Z" fill="#406EB2"/>
<path opacity="0.43" d="M259.946 6.72878C261.094 7.10387 262.197 7.55853 263.254 8.09275L266.084 3.1939C264.595 2.40963 263.038 1.76173 261.413 1.25024L259.946 6.72878Z" fill="#406EB2"/>
<path opacity="0.43" d="M265.243 9.24065C266.243 9.88852 267.198 10.616 268.084 11.423L272.085 7.42208C270.846 6.28545 269.505 5.2511 268.073 4.3418L265.243 9.24065Z" fill="#406EB2"/>
<path opacity="0.43" d="M254.172 5.66037C255.388 5.7172 256.57 5.87633 257.718 6.12639L259.185 0.659227C257.559 0.295507 255.888 0.0795637 254.172 0V5.66037Z" fill="#406EB2"/>
<path opacity="0.43" d="M231.053 32.8029C230.803 31.6549 230.655 30.4614 230.587 29.2566H224.927C224.995 30.9729 225.222 32.6437 225.586 34.2691L231.053 32.8029Z" fill="#406EB2"/>
<path opacity="0.43" d="M233.008 38.3269C232.462 37.2698 232.008 36.1673 231.644 35.0193L226.166 36.4855C226.677 38.1109 227.325 39.6681 228.109 41.1571L233.008 38.3269Z" fill="#406EB2"/>
<path opacity="0.43" d="M268.084 44.783C267.198 45.5786 266.255 46.306 265.243 46.9653L268.073 51.8755C269.505 50.9662 270.846 49.9319 272.085 48.7952L268.084 44.783Z" fill="#406EB2"/>
<path opacity="0.43" d="M274.404 35.0308C274.029 36.1788 273.574 37.2813 273.04 38.3383L277.939 41.1686C278.723 39.6796 279.371 38.1224 279.883 36.497L274.404 35.0308Z" fill="#406EB2"/>
<path opacity="0.43" d="M263.254 48.1133C262.197 48.6589 261.094 49.1135 259.946 49.4772L261.413 54.9558C263.038 54.4443 264.595 53.7964 266.084 53.0121L263.254 48.1133Z" fill="#406EB2"/>
<path opacity="0.43" d="M275.006 23.403C275.256 24.551 275.404 25.7445 275.472 26.9493H281.133C281.065 25.233 280.837 23.5621 280.474 21.9368L275.006 23.403Z" fill="#406EB2"/>
<path opacity="0.43" d="M275.461 29.2566C275.404 30.4728 275.245 31.6549 274.995 32.8029L280.462 34.2691C280.826 32.6437 281.042 30.9729 281.122 29.2566H275.461Z" fill="#406EB2"/>
<path opacity="0.43" d="M271.881 40.3274C271.233 41.3276 270.505 42.2824 269.698 43.169L273.699 47.1699C274.836 45.931 275.87 44.5898 276.78 43.1576L271.881 40.3274Z" fill="#406EB2"/>
<path opacity="0.43" d="M240.805 46.9653C239.805 46.3174 238.85 45.59 237.964 44.783L233.963 48.7839C235.202 49.9205 236.543 50.9548 237.975 51.8641L240.805 46.9653Z" fill="#406EB2"/>
<path opacity="0.43" d="M236.35 43.1575C235.554 42.2709 234.827 41.3275 234.168 40.3159L229.257 43.1461C230.167 44.5782 231.201 45.9195 232.338 47.1584L236.35 43.1575Z" fill="#406EB2"/>
<path opacity="0.43" d="M251.876 50.5456C250.66 50.4888 249.478 50.3296 248.33 50.0796L246.864 55.5468C248.489 55.9105 250.16 56.1264 251.876 56.206V50.5456Z" fill="#406EB2"/>
<path opacity="0.43" d="M246.102 49.4884C244.954 49.1134 243.852 48.6587 242.795 48.1245L239.964 53.0234C241.453 53.8076 243.011 54.4555 244.636 54.967L246.102 49.4884Z" fill="#406EB2"/>
<path opacity="0.43" d="M257.718 50.0796C256.57 50.3296 255.377 50.4774 254.172 50.5456V56.206C255.888 56.1378 257.559 55.9105 259.185 55.5468L257.718 50.0796Z" fill="#406EB2"/>
<path d="M20.7311 33.425C20.7311 34.0043 20.5961 34.4965 20.3261 34.9016C20.0604 35.3023 19.6988 35.6072 19.2415 35.8163C18.7885 36.0254 18.2767 36.1299 17.706 36.1299C17.1354 36.1299 16.6214 36.0254 16.1641 35.8163C15.7067 35.6072 15.3452 35.3023 15.0795 34.9016C14.8138 34.4965 14.6809 34.0043 14.6809 33.425C14.6809 33.046 14.7528 32.6997 14.8965 32.3861C15.0446 32.0682 15.2515 31.7916 15.5173 31.5563C15.7873 31.3211 16.1053 31.1404 16.4712 31.014C16.8414 30.8834 17.2487 30.818 17.693 30.818C18.2767 30.818 18.7972 30.9313 19.2545 31.1578C19.7119 31.3799 20.0712 31.687 20.3326 32.079C20.5983 32.4711 20.7311 32.9197 20.7311 33.425ZM19.5159 33.3989C19.5159 33.046 19.4397 32.7346 19.2872 32.4645C19.1347 32.1901 18.9213 31.9767 18.6469 31.8242C18.3725 31.6718 18.0545 31.5955 17.693 31.5955C17.3227 31.5955 17.0026 31.6718 16.7325 31.8242C16.4668 31.9767 16.2599 32.1901 16.1118 32.4645C15.9637 32.7346 15.8897 33.046 15.8897 33.3989C15.8897 33.7647 15.9615 34.0784 16.1053 34.3397C16.2534 34.5967 16.4625 34.7949 16.7325 34.9343C17.0069 35.0693 17.3314 35.1368 17.706 35.1368C18.0806 35.1368 18.403 35.0693 18.673 34.9343C18.9431 34.7949 19.15 34.5967 19.2937 34.3397C19.4418 34.0784 19.5159 33.7647 19.5159 33.3989ZM20.509 28.9625C20.509 29.4242 20.387 29.8402 20.1431 30.2104C19.8992 30.5806 19.566 30.8725 19.1435 31.0859C18.7209 31.2994 18.2418 31.4061 17.706 31.4061C17.1616 31.4061 16.6759 31.2994 16.249 31.0859C15.8265 30.8725 15.4955 30.5806 15.2559 30.2104C15.0163 29.8402 14.8965 29.4242 14.8965 28.9625C14.8965 28.4093 15.0163 27.9389 15.2559 27.5512C15.4998 27.1635 15.833 26.8673 16.2556 26.6626C16.6781 26.4579 17.1594 26.3555 17.6995 26.3555C18.244 26.3555 18.7275 26.4579 19.15 26.6626C19.5725 26.8673 19.9035 27.1635 20.1431 27.5512C20.387 27.9389 20.509 28.4093 20.509 28.9625ZM19.3003 28.9821C19.3003 28.6641 19.2328 28.3831 19.0977 28.1392C18.9627 27.8953 18.7754 27.7036 18.5358 27.5643C18.2963 27.4205 18.0175 27.3486 17.6995 27.3486C17.3815 27.3486 17.1028 27.4162 16.8632 27.5512C16.628 27.6819 16.4429 27.8692 16.3078 28.1131C16.1772 28.357 16.1118 28.6467 16.1118 28.9821C16.1118 29.3088 16.1772 29.5941 16.3078 29.838C16.4429 30.0819 16.6302 30.2714 16.8697 30.4064C17.1093 30.5414 17.3881 30.609 17.706 30.609C18.024 30.609 18.3006 30.5414 18.5358 30.4064C18.7754 30.2714 18.9627 30.0819 19.0977 29.838C19.2328 29.5941 19.3003 29.3088 19.3003 28.9821ZM28.2318 30.4848V31.9353C28.2318 32.715 28.1621 33.3727 28.0228 33.9085C27.8834 34.4442 27.683 34.8755 27.4217 35.2022C27.1603 35.5288 26.8445 35.7662 26.4743 35.9143C26.1084 36.0581 25.6946 36.1299 25.2329 36.1299C24.867 36.1299 24.5294 36.0842 24.2201 35.9927C23.9109 35.9013 23.6321 35.7553 23.3838 35.555C23.1399 35.3503 22.9308 35.0845 22.7566 34.7579C22.5824 34.4312 22.4495 34.0348 22.358 33.5687C22.2666 33.1027 22.2208 32.5582 22.2208 31.9353V30.4848C22.2208 29.7051 22.2905 29.0518 22.4299 28.5247C22.5737 27.9977 22.7762 27.5751 23.0375 27.2572C23.2989 26.9348 23.6125 26.704 23.9784 26.5646C24.3486 26.4252 24.7624 26.3555 25.2198 26.3555C25.59 26.3555 25.9298 26.4013 26.2391 26.4927C26.5527 26.5798 26.8315 26.7214 27.0754 26.9174C27.3193 27.1091 27.5262 27.3661 27.6961 27.6884C27.8703 28.0064 28.0032 28.3962 28.0946 28.8579C28.1861 29.3196 28.2318 29.8619 28.2318 30.4848ZM27.0166 32.1313V30.2823C27.0166 29.8554 26.9904 29.4808 26.9382 29.1585C26.8903 28.8318 26.8184 28.553 26.7226 28.3222C26.6267 28.0913 26.5048 27.904 26.3567 27.7603C26.2129 27.6165 26.0452 27.512 25.8536 27.4466C25.6663 27.377 25.455 27.3421 25.2198 27.3421C24.9323 27.3421 24.6775 27.3966 24.4554 27.5054C24.2332 27.61 24.0459 27.7777 23.8935 28.0085C23.7454 28.2394 23.6321 28.5421 23.5537 28.9167C23.4753 29.2913 23.4361 29.7465 23.4361 30.2823V32.1313C23.4361 32.5582 23.4601 32.935 23.508 33.2616C23.5602 33.5883 23.6365 33.8715 23.7367 34.111C23.8368 34.3462 23.9588 34.5401 24.1025 34.6925C24.2463 34.845 24.4118 34.9582 24.5991 35.0323C24.7908 35.102 25.002 35.1368 25.2329 35.1368C25.5291 35.1368 25.7882 35.0802 26.0104 34.9669C26.2325 34.8537 26.4176 34.6773 26.5657 34.4377C26.7182 34.1938 26.8315 33.8823 26.9055 33.5034C26.9795 33.1201 27.0166 32.6627 27.0166 32.1313ZM29.6823 28.8187V28.3156C29.6823 27.9541 29.7607 27.6252 29.9175 27.329C30.0743 27.0328 30.2987 26.7955 30.5905 26.6169C30.8823 26.4383 31.2286 26.349 31.6294 26.349C32.0388 26.349 32.3873 26.4383 32.6748 26.6169C32.9666 26.7955 33.1909 27.0328 33.3477 27.329C33.5045 27.6252 33.5829 27.9541 33.5829 28.3156V28.8187C33.5829 29.1715 33.5045 29.4961 33.3477 29.7922C33.1953 30.0884 32.9731 30.3258 32.6813 30.5044C32.3938 30.683 32.0475 30.7723 31.6424 30.7723C31.2373 30.7723 30.8867 30.683 30.5905 30.5044C30.2987 30.3258 30.0743 30.0884 29.9175 29.7922C29.7607 29.4961 29.6823 29.1715 29.6823 28.8187ZM30.5905 28.3156V28.8187C30.5905 29.0191 30.6275 29.2086 30.7016 29.3872C30.78 29.5657 30.8976 29.7117 31.0544 29.8249C31.2112 29.9338 31.4072 29.9883 31.6424 29.9883C31.8776 29.9883 32.0715 29.9338 32.2239 29.8249C32.3764 29.7117 32.4896 29.5657 32.5637 29.3872C32.6377 29.2086 32.6748 29.0191 32.6748 28.8187V28.3156C32.6748 28.1109 32.6356 27.9193 32.5572 27.7407C32.4831 27.5577 32.3677 27.4118 32.2109 27.3029C32.0584 27.1897 31.8646 27.133 31.6294 27.133C31.3985 27.133 31.2047 27.1897 31.0479 27.3029C30.8954 27.4118 30.78 27.5577 30.7016 27.7407C30.6275 27.9193 30.5905 28.1109 30.5905 28.3156ZM34.3147 34.1764V33.6667C34.3147 33.3096 34.3931 32.9829 34.5499 32.6867C34.7067 32.3905 34.9311 32.1531 35.2229 31.9745C35.5147 31.7959 35.861 31.7066 36.2618 31.7066C36.6712 31.7066 37.0197 31.7959 37.3072 31.9745C37.599 32.1531 37.8233 32.3905 37.9801 32.6867C38.1369 32.9829 38.2153 33.3096 38.2153 33.6667V34.1764C38.2153 34.5335 38.1369 34.8602 37.9801 35.1564C37.8277 35.4526 37.6055 35.69 37.3137 35.8686C37.0262 36.0472 36.6799 36.1365 36.2748 36.1365C35.8697 36.1365 35.5213 36.0472 35.2294 35.8686C34.9376 35.69 34.7111 35.4526 34.5499 35.1564C34.3931 34.8602 34.3147 34.5335 34.3147 34.1764ZM35.2229 33.6667V34.1764C35.2229 34.3767 35.2599 34.5684 35.334 34.7513C35.4124 34.9299 35.53 35.0758 35.6868 35.1891C35.8436 35.298 36.0396 35.3524 36.2748 35.3524C36.51 35.3524 36.7039 35.298 36.8563 35.1891C37.0131 35.0758 37.1286 34.9299 37.2026 34.7513C37.2767 34.5727 37.3137 34.3811 37.3137 34.1764V33.6667C37.3137 33.462 37.2745 33.2704 37.1961 33.0918C37.122 32.9132 37.0066 32.7694 36.8498 32.6605C36.6973 32.5473 36.5013 32.4907 36.2618 32.4907C36.0309 32.4907 35.8371 32.5473 35.6803 32.6605C35.5278 32.7694 35.4124 32.9132 35.334 33.0918C35.2599 33.2704 35.2229 33.462 35.2229 33.6667ZM36.5623 27.8387L31.9169 35.274L31.2373 34.8428L35.8828 27.4074L36.5623 27.8387Z" fill="#F5F7F6"/>
<path d="M16.3903 21.8323H15.454L15.4602 21.3487H16.3903C16.7107 21.3487 16.9776 21.282 17.1912 21.1485C17.4047 21.013 17.5649 20.8241 17.6717 20.5818C17.7805 20.3374 17.8349 20.052 17.8349 19.7255V19.4514C17.8349 19.1947 17.8041 18.9668 17.7425 18.7676C17.6809 18.5663 17.5906 18.3969 17.4715 18.2594C17.3524 18.1197 17.2066 18.014 17.0341 17.9421C16.8637 17.8702 16.6676 17.8343 16.4458 17.8343H15.4355V17.3477H16.4458C16.7394 17.3477 17.0074 17.3969 17.2497 17.4955C17.492 17.592 17.7004 17.7327 17.875 17.9175C18.0515 18.1002 18.1871 18.322 18.2815 18.5828C18.376 18.8415 18.4232 19.1331 18.4232 19.4575V19.7255C18.4232 20.0499 18.376 20.3425 18.2815 20.6033C18.1871 20.862 18.0505 21.0828 17.8719 21.2655C17.6953 21.4483 17.4817 21.5889 17.2312 21.6875C16.9828 21.784 16.7025 21.8323 16.3903 21.8323ZM15.7712 17.3477V21.8323H15.1768V17.3477H15.7712ZM20.9088 17.745L19.4242 21.8323H18.8175L20.5269 17.3477H20.9181L20.9088 17.745ZM22.1532 21.8323L20.6655 17.745L20.6563 17.3477H21.0475L22.7631 21.8323H22.1532ZM22.0762 20.1721V20.6588H19.5567V20.1721H22.0762ZM24.6204 17.3477V21.8323H24.0351V17.3477H24.6204ZM26.0619 17.3477V17.8343H22.5967V17.3477H26.0619ZM28.1409 17.745L26.6563 21.8323H26.0495L27.759 17.3477H28.1502L28.1409 17.745ZM29.3853 21.8323L27.8976 17.745L27.8884 17.3477H28.2795L29.9951 21.8323H29.3853ZM29.3083 20.1721V20.6588H26.7888V20.1721H29.3083ZM34.8278 19.2327V19.9165C34.8278 20.284 34.795 20.5941 34.7292 20.8466C34.6635 21.0992 34.5691 21.3025 34.4459 21.4565C34.3227 21.6105 34.1738 21.7224 33.9993 21.7922C33.8268 21.86 33.6317 21.8939 33.414 21.8939C33.2416 21.8939 33.0824 21.8723 32.9366 21.8292C32.7908 21.7861 32.6594 21.7173 32.5424 21.6228C32.4274 21.5263 32.3288 21.4011 32.2467 21.2471C32.1646 21.0931 32.1019 20.9062 32.0588 20.6865C32.0157 20.4668 31.9941 20.2101 31.9941 19.9165V19.2327C31.9941 18.8651 32.027 18.5571 32.0927 18.3086C32.1604 18.0602 32.2559 17.861 32.3791 17.7111C32.5023 17.5592 32.6502 17.4503 32.8227 17.3846C32.9972 17.3189 33.1923 17.2861 33.4079 17.2861C33.5824 17.2861 33.7426 17.3076 33.8884 17.3507C34.0362 17.3918 34.1676 17.4585 34.2826 17.5509C34.3976 17.6413 34.4952 17.7624 34.5752 17.9144C34.6574 18.0643 34.72 18.2481 34.7631 18.4657C34.8063 18.6834 34.8278 18.939 34.8278 19.2327ZM34.2549 20.0089V19.1372C34.2549 18.936 34.2426 18.7594 34.218 18.6074C34.1954 18.4534 34.1615 18.322 34.1163 18.2132C34.0711 18.1043 34.0136 18.016 33.9438 17.9483C33.8761 17.8805 33.797 17.8312 33.7067 17.8004C33.6184 17.7676 33.5188 17.7511 33.4079 17.7511C33.2724 17.7511 33.1522 17.7768 33.0475 17.8281C32.9428 17.8774 32.8545 17.9565 32.7826 18.0653C32.7128 18.1741 32.6594 18.3169 32.6225 18.4934C32.5855 18.67 32.567 18.8846 32.567 19.1372V20.0089C32.567 20.2101 32.5783 20.3877 32.6009 20.5417C32.6255 20.6957 32.6615 20.8292 32.7087 20.9421C32.7559 21.053 32.8134 21.1444 32.8812 21.2163C32.949 21.2881 33.027 21.3415 33.1153 21.3764C33.2056 21.4093 33.3052 21.4257 33.414 21.4257C33.5537 21.4257 33.6759 21.399 33.7806 21.3456C33.8853 21.2922 33.9726 21.2091 34.0424 21.0961C34.1143 20.9811 34.1676 20.8343 34.2026 20.6557C34.2375 20.475 34.2549 20.2594 34.2549 20.0089ZM37.4336 17.323V21.8323H36.8638V18.0345L35.7149 18.4534V17.939L37.3443 17.323H37.4336Z" fill="#F5F7F6"/>
<path d="M97.1756 26.4862V27.1657L93.2358 35.9993H91.9617L95.895 27.4793H90.7464V26.4862H97.1756ZM100.083 31.4714L99.1161 31.2231L99.5931 26.4862H104.474V27.6035H100.619L100.331 30.1908C100.506 30.0906 100.726 29.997 100.991 29.9099C101.261 29.8227 101.571 29.7792 101.919 29.7792C102.359 29.7792 102.753 29.8554 103.102 30.0079C103.45 30.156 103.746 30.3694 103.99 30.6482C104.239 30.9269 104.428 31.2623 104.559 31.6544C104.689 32.0464 104.755 32.4841 104.755 32.9676C104.755 33.425 104.692 33.8453 104.565 34.2286C104.443 34.6119 104.258 34.9473 104.01 35.2348C103.762 35.518 103.448 35.7379 103.069 35.8947C102.694 36.0515 102.252 36.1299 101.743 36.1299C101.359 36.1299 100.996 36.0777 100.652 35.9731C100.312 35.8642 100.007 35.7009 99.7368 35.4831C99.4711 35.261 99.2533 34.9865 99.0835 34.6599C98.9179 34.3288 98.8134 33.9412 98.7698 33.4969H99.9198C99.972 33.854 100.077 34.1546 100.233 34.3985C100.39 34.6424 100.595 34.8276 100.848 34.9539C101.105 35.0758 101.403 35.1368 101.743 35.1368C102.03 35.1368 102.285 35.0867 102.507 34.9865C102.729 34.8864 102.917 34.7426 103.069 34.5553C103.221 34.368 103.337 34.1415 103.415 33.8758C103.498 33.6101 103.539 33.3117 103.539 32.9807C103.539 32.6801 103.498 32.4014 103.415 32.1444C103.333 31.8874 103.208 31.6631 103.043 31.4714C102.882 31.2798 102.684 31.1317 102.448 31.0271C102.213 30.9182 101.943 30.8638 101.638 30.8638C101.233 30.8638 100.926 30.9182 100.717 31.0271C100.512 31.136 100.301 31.2841 100.083 31.4714ZM105.977 28.8187V28.3156C105.977 27.9541 106.055 27.6252 106.212 27.329C106.369 27.0328 106.593 26.7955 106.885 26.6169C107.177 26.4383 107.523 26.349 107.924 26.349C108.333 26.349 108.681 26.4383 108.969 26.6169C109.261 26.7955 109.485 27.0328 109.642 27.329C109.799 27.6252 109.877 27.9541 109.877 28.3156V28.8187C109.877 29.1715 109.799 29.4961 109.642 29.7922C109.489 30.0884 109.267 30.3258 108.975 30.5044C108.688 30.683 108.342 30.7723 107.937 30.7723C107.532 30.7723 107.181 30.683 106.885 30.5044C106.593 30.3258 106.369 30.0884 106.212 29.7922C106.055 29.4961 105.977 29.1715 105.977 28.8187ZM106.885 28.3156V28.8187C106.885 29.0191 106.922 29.2086 106.996 29.3872C107.074 29.5657 107.192 29.7117 107.349 29.8249C107.505 29.9338 107.701 29.9883 107.937 29.9883C108.172 29.9883 108.366 29.9338 108.518 29.8249C108.671 29.7117 108.784 29.5657 108.858 29.3872C108.932 29.2086 108.969 29.0191 108.969 28.8187V28.3156C108.969 28.1109 108.93 27.9193 108.851 27.7407C108.777 27.5577 108.662 27.4118 108.505 27.3029C108.353 27.1897 108.159 27.133 107.924 27.133C107.693 27.133 107.499 27.1897 107.342 27.3029C107.19 27.4118 107.074 27.5577 106.996 27.7407C106.922 27.9193 106.885 28.1109 106.885 28.3156ZM110.609 34.1764V33.6667C110.609 33.3096 110.687 32.9829 110.844 32.6867C111.001 32.3905 111.225 32.1531 111.517 31.9745C111.809 31.7959 112.155 31.7066 112.556 31.7066C112.965 31.7066 113.314 31.7959 113.601 31.9745C113.893 32.1531 114.118 32.3905 114.274 32.6867C114.431 32.9829 114.51 33.3096 114.51 33.6667V34.1764C114.51 34.5335 114.431 34.8602 114.274 35.1564C114.122 35.4526 113.9 35.69 113.608 35.8686C113.32 36.0472 112.974 36.1365 112.569 36.1365C112.164 36.1365 111.815 36.0472 111.524 35.8686C111.232 35.69 111.005 35.4526 110.844 35.1564C110.687 34.8602 110.609 34.5335 110.609 34.1764ZM111.517 33.6667V34.1764C111.517 34.3767 111.554 34.5684 111.628 34.7513C111.707 34.9299 111.824 35.0758 111.981 35.1891C112.138 35.298 112.334 35.3524 112.569 35.3524C112.804 35.3524 112.998 35.298 113.151 35.1891C113.307 35.0758 113.423 34.9299 113.497 34.7513C113.571 34.5727 113.608 34.3811 113.608 34.1764V33.6667C113.608 33.462 113.569 33.2704 113.49 33.0918C113.416 32.9132 113.301 32.7694 113.144 32.6605C112.992 32.5473 112.796 32.4907 112.556 32.4907C112.325 32.4907 112.131 32.5473 111.974 32.6605C111.822 32.7694 111.707 32.9132 111.628 33.0918C111.554 33.2704 111.517 33.462 111.517 33.6667ZM112.857 27.8387L108.211 35.274L107.532 34.8428L112.177 27.4074L112.857 27.8387Z" fill="#F5F7F6"/>
<path d="M92.6845 21.8323H91.7482L91.7543 21.3487H92.6845C93.0049 21.3487 93.2718 21.282 93.4854 21.1485C93.6989 21.013 93.8591 20.8241 93.9659 20.5818C94.0747 20.3374 94.1291 20.052 94.1291 19.7255V19.4514C94.1291 19.1947 94.0983 18.9668 94.0367 18.7676C93.9751 18.5663 93.8847 18.3969 93.7656 18.2594C93.6466 18.1197 93.5008 18.014 93.3283 17.9421C93.1578 17.8702 92.9617 17.8343 92.74 17.8343H91.7297V17.3477H92.74C93.0336 17.3477 93.3016 17.3969 93.5439 17.4955C93.7862 17.592 93.9946 17.7327 94.1691 17.9175C94.3457 18.1002 94.4813 18.322 94.5757 18.5828C94.6702 18.8415 94.7174 19.1331 94.7174 19.4575V19.7255C94.7174 20.0499 94.6702 20.3425 94.5757 20.6033C94.4813 20.862 94.3447 21.0828 94.1661 21.2655C93.9895 21.4483 93.7759 21.5889 93.5254 21.6875C93.2769 21.784 92.9967 21.8323 92.6845 21.8323ZM92.0654 17.3477V21.8323H91.471V17.3477H92.0654ZM97.203 17.745L95.7184 21.8323H95.1117L96.8211 17.3477H97.2123L97.203 17.745ZM98.4474 21.8323L96.9597 17.745L96.9505 17.3477H97.3416L99.0573 21.8323H98.4474ZM98.3704 20.1721V20.6588H95.8509V20.1721H98.3704ZM100.915 17.3477V21.8323H100.329V17.3477H100.915ZM102.356 17.3477V17.8343H98.8909V17.3477H102.356ZM104.435 17.745L102.951 21.8323H102.344L104.053 17.3477H104.444L104.435 17.745ZM105.679 21.8323L104.192 17.745L104.183 17.3477H104.574L106.289 21.8323H105.679ZM105.602 20.1721V20.6588H103.083V20.1721H105.602ZM111.122 19.2327V19.9165C111.122 20.284 111.089 20.5941 111.023 20.8466C110.958 21.0992 110.863 21.3025 110.74 21.4565C110.617 21.6105 110.468 21.7224 110.293 21.7922C110.121 21.86 109.926 21.8939 109.708 21.8939C109.536 21.8939 109.377 21.8723 109.231 21.8292C109.085 21.7861 108.954 21.7173 108.837 21.6228C108.722 21.5263 108.623 21.4011 108.541 21.2471C108.459 21.0931 108.396 20.9062 108.353 20.6865C108.31 20.4668 108.288 20.2101 108.288 19.9165V19.2327C108.288 18.8651 108.321 18.5571 108.387 18.3086C108.455 18.0602 108.55 17.861 108.673 17.7111C108.797 17.5592 108.944 17.4503 109.117 17.3846C109.291 17.3189 109.486 17.2861 109.702 17.2861C109.877 17.2861 110.037 17.3076 110.183 17.3507C110.33 17.3918 110.462 17.4585 110.577 17.5509C110.692 17.6413 110.789 17.7624 110.869 17.9144C110.952 18.0643 111.014 18.2481 111.057 18.4657C111.1 18.6834 111.122 18.939 111.122 19.2327ZM110.549 20.0089V19.1372C110.549 18.936 110.537 18.7594 110.512 18.6074C110.49 18.4534 110.456 18.322 110.41 18.2132C110.365 18.1043 110.308 18.016 110.238 17.9483C110.17 17.8805 110.091 17.8312 110.001 17.8004C109.913 17.7676 109.813 17.7511 109.702 17.7511C109.567 17.7511 109.446 17.7768 109.342 17.8281C109.237 17.8774 109.149 17.9565 109.077 18.0653C109.007 18.1741 108.954 18.3169 108.917 18.4934C108.88 18.67 108.861 18.8846 108.861 19.1372V20.0089C108.861 20.2101 108.873 20.3877 108.895 20.5417C108.92 20.6957 108.956 20.8292 109.003 20.9421C109.05 21.053 109.108 21.1444 109.175 21.2163C109.243 21.2881 109.321 21.3415 109.409 21.3764C109.5 21.4093 109.599 21.4257 109.708 21.4257C109.848 21.4257 109.97 21.399 110.075 21.3456C110.179 21.2922 110.267 21.2091 110.337 21.0961C110.408 20.9811 110.462 20.8343 110.497 20.6557C110.532 20.475 110.549 20.2594 110.549 20.0089ZM113.728 17.323V21.8323H113.158V18.0345L112.009 18.4534V17.939L113.638 17.323H113.728Z" fill="#F5F7F6"/>
<path d="M170.243 31.4714L169.276 31.2231L169.753 26.4862H174.634V27.6035H170.779L170.491 30.1908C170.666 30.0906 170.886 29.997 171.151 29.9099C171.421 29.8227 171.731 29.7792 172.079 29.7792C172.519 29.7792 172.913 29.8554 173.262 30.0079C173.61 30.156 173.906 30.3694 174.15 30.6482C174.398 30.9269 174.588 31.2623 174.719 31.6544C174.849 32.0464 174.915 32.4841 174.915 32.9676C174.915 33.425 174.851 33.8453 174.725 34.2286C174.603 34.6119 174.418 34.9473 174.17 35.2348C173.922 35.518 173.608 35.7379 173.229 35.8947C172.854 36.0515 172.412 36.1299 171.903 36.1299C171.519 36.1299 171.156 36.0777 170.811 35.9731C170.472 35.8642 170.167 35.7009 169.897 35.4831C169.631 35.261 169.413 34.9865 169.243 34.6599C169.078 34.3288 168.973 33.9412 168.93 33.4969H170.08C170.132 33.854 170.237 34.1546 170.393 34.3985C170.55 34.6424 170.755 34.8276 171.007 34.9539C171.264 35.0758 171.563 35.1368 171.903 35.1368C172.19 35.1368 172.445 35.0867 172.667 34.9865C172.889 34.8864 173.077 34.7426 173.229 34.5553C173.381 34.368 173.497 34.1415 173.575 33.8758C173.658 33.6101 173.699 33.3117 173.699 32.9807C173.699 32.6801 173.658 32.4014 173.575 32.1444C173.492 31.8874 173.368 31.6631 173.203 31.4714C173.042 31.2798 172.843 31.1317 172.608 31.0271C172.373 30.9182 172.103 30.8638 171.798 30.8638C171.393 30.8638 171.086 30.9182 170.877 31.0271C170.672 31.136 170.461 31.2841 170.243 31.4714ZM182.213 30.4848V31.9353C182.213 32.715 182.143 33.3727 182.004 33.9085C181.864 34.4442 181.664 34.8755 181.403 35.2022C181.141 35.5288 180.825 35.7662 180.455 35.9143C180.089 36.0581 179.676 36.1299 179.214 36.1299C178.848 36.1299 178.51 36.0842 178.201 35.9927C177.892 35.9013 177.613 35.7553 177.365 35.555C177.121 35.3503 176.912 35.0845 176.738 34.7579C176.563 34.4312 176.43 34.0348 176.339 33.5687C176.248 33.1027 176.202 32.5582 176.202 31.9353V30.4848C176.202 29.7051 176.271 29.0518 176.411 28.5247C176.555 27.9977 176.757 27.5751 177.019 27.2572C177.28 26.9348 177.593 26.704 177.959 26.5646C178.33 26.4252 178.743 26.3555 179.201 26.3555C179.571 26.3555 179.911 26.4013 180.22 26.4927C180.534 26.5798 180.812 26.7214 181.056 26.9174C181.3 27.1091 181.507 27.3661 181.677 27.6884C181.851 28.0064 181.984 28.3962 182.076 28.8579C182.167 29.3196 182.213 29.8619 182.213 30.4848ZM180.998 32.1313V30.2823C180.998 29.8554 180.971 29.4808 180.919 29.1585C180.871 28.8318 180.799 28.553 180.704 28.3222C180.608 28.0913 180.486 27.904 180.338 27.7603C180.194 27.6165 180.026 27.512 179.835 27.4466C179.647 27.377 179.436 27.3421 179.201 27.3421C178.913 27.3421 178.658 27.3966 178.436 27.5054C178.214 27.61 178.027 27.7777 177.874 28.0085C177.726 28.2394 177.613 28.5421 177.535 28.9167C177.456 29.2913 177.417 29.7465 177.417 30.2823V32.1313C177.417 32.5582 177.441 32.935 177.489 33.2616C177.541 33.5883 177.617 33.8715 177.718 34.111C177.818 34.3462 177.94 34.5401 178.083 34.6925C178.227 34.845 178.393 34.9582 178.58 35.0323C178.772 35.102 178.983 35.1368 179.214 35.1368C179.51 35.1368 179.769 35.0802 179.991 34.9669C180.213 34.8537 180.399 34.6773 180.547 34.4377C180.699 34.1938 180.812 33.8823 180.886 33.5034C180.961 33.1201 180.998 32.6627 180.998 32.1313ZM183.663 28.8187V28.3156C183.663 27.9541 183.742 27.6252 183.898 27.329C184.055 27.0328 184.28 26.7955 184.571 26.6169C184.863 26.4383 185.21 26.349 185.61 26.349C186.02 26.349 186.368 26.4383 186.656 26.6169C186.948 26.7955 187.172 27.0328 187.329 27.329C187.485 27.6252 187.564 27.9541 187.564 28.3156V28.8187C187.564 29.1715 187.485 29.4961 187.329 29.7922C187.176 30.0884 186.954 30.3258 186.662 30.5044C186.375 30.683 186.028 30.7723 185.623 30.7723C185.218 30.7723 184.868 30.683 184.571 30.5044C184.28 30.3258 184.055 30.0884 183.898 29.7922C183.742 29.4961 183.663 29.1715 183.663 28.8187ZM184.571 28.3156V28.8187C184.571 29.0191 184.608 29.2086 184.683 29.3872C184.761 29.5657 184.879 29.7117 185.035 29.8249C185.192 29.9338 185.388 29.9883 185.623 29.9883C185.859 29.9883 186.052 29.9338 186.205 29.8249C186.357 29.7117 186.471 29.5657 186.545 29.3872C186.619 29.2086 186.656 29.0191 186.656 28.8187V28.3156C186.656 28.1109 186.617 27.9193 186.538 27.7407C186.464 27.5577 186.349 27.4118 186.192 27.3029C186.039 27.1897 185.846 27.133 185.61 27.133C185.379 27.133 185.186 27.1897 185.029 27.3029C184.876 27.4118 184.761 27.5577 184.683 27.7407C184.608 27.9193 184.571 28.1109 184.571 28.3156ZM188.296 34.1764V33.6667C188.296 33.3096 188.374 32.9829 188.531 32.6867C188.688 32.3905 188.912 32.1531 189.204 31.9745C189.496 31.7959 189.842 31.7066 190.243 31.7066C190.652 31.7066 191.001 31.7959 191.288 31.9745C191.58 32.1531 191.804 32.3905 191.961 32.6867C192.118 32.9829 192.196 33.3096 192.196 33.6667V34.1764C192.196 34.5335 192.118 34.8602 191.961 35.1564C191.809 35.4526 191.586 35.69 191.295 35.8686C191.007 36.0472 190.661 36.1365 190.256 36.1365C189.851 36.1365 189.502 36.0472 189.21 35.8686C188.919 35.69 188.692 35.4526 188.531 35.1564C188.374 34.8602 188.296 34.5335 188.296 34.1764ZM189.204 33.6667V34.1764C189.204 34.3767 189.241 34.5684 189.315 34.7513C189.393 34.9299 189.511 35.0758 189.668 35.1891C189.825 35.298 190.021 35.3524 190.256 35.3524C190.491 35.3524 190.685 35.298 190.837 35.1891C190.994 35.0758 191.11 34.9299 191.184 34.7513C191.258 34.5727 191.295 34.3811 191.295 34.1764V33.6667C191.295 33.462 191.255 33.2704 191.177 33.0918C191.103 32.9132 190.988 32.7694 190.831 32.6605C190.678 32.5473 190.482 32.4907 190.243 32.4907C190.012 32.4907 189.818 32.5473 189.661 32.6605C189.509 32.7694 189.393 32.9132 189.315 33.0918C189.241 33.2704 189.204 33.462 189.204 33.6667ZM190.543 27.8387L185.898 35.274L185.218 34.8428L189.864 27.4074L190.543 27.8387Z" fill="#F5F7F6"/>
<path d="M170.372 21.8323H169.435L169.441 21.3487H170.372C170.692 21.3487 170.959 21.282 171.172 21.1485C171.386 21.013 171.546 20.8241 171.653 20.5818C171.762 20.3374 171.816 20.052 171.816 19.7255V19.4514C171.816 19.1947 171.785 18.9668 171.724 18.7676C171.662 18.5663 171.572 18.3969 171.453 18.2594C171.334 18.1197 171.188 18.014 171.015 17.9421C170.845 17.8702 170.649 17.8343 170.427 17.8343H169.417V17.3477H170.427C170.721 17.3477 170.989 17.3969 171.231 17.4955C171.473 17.592 171.682 17.7327 171.856 17.9175C172.033 18.1002 172.168 18.322 172.263 18.5828C172.357 18.8415 172.404 19.1331 172.404 19.4575V19.7255C172.404 20.0499 172.357 20.3425 172.263 20.6033C172.168 20.862 172.032 21.0828 171.853 21.2655C171.676 21.4483 171.463 21.5889 171.212 21.6875C170.964 21.784 170.684 21.8323 170.372 21.8323ZM169.752 17.3477V21.8323H169.158V17.3477H169.752ZM174.89 17.745L173.405 21.8323H172.799L174.508 17.3477H174.899L174.89 17.745ZM176.134 21.8323L174.647 17.745L174.637 17.3477H175.029L176.744 21.8323H176.134ZM176.057 20.1721V20.6588H173.538V20.1721H176.057ZM178.602 17.3477V21.8323H178.016V17.3477H178.602ZM180.043 17.3477V17.8343H176.578V17.3477H180.043ZM182.122 17.745L180.638 21.8323H180.031L181.74 17.3477H182.131L182.122 17.745ZM183.366 21.8323L181.879 17.745L181.87 17.3477H182.261L183.976 21.8323H183.366ZM183.289 20.1721V20.6588H180.77V20.1721H183.289ZM188.809 19.2327V19.9165C188.809 20.284 188.776 20.5941 188.71 20.8466C188.645 21.0992 188.55 21.3025 188.427 21.4565C188.304 21.6105 188.155 21.7224 187.98 21.7922C187.808 21.86 187.613 21.8939 187.395 21.8939C187.223 21.8939 187.064 21.8723 186.918 21.8292C186.772 21.7861 186.641 21.7173 186.524 21.6228C186.409 21.5263 186.31 21.4011 186.228 21.2471C186.146 21.0931 186.083 20.9062 186.04 20.6865C185.997 20.4668 185.975 20.2101 185.975 19.9165V19.2327C185.975 18.8651 186.008 18.5571 186.074 18.3086C186.142 18.0602 186.237 17.861 186.36 17.7111C186.484 17.5592 186.631 17.4503 186.804 17.3846C186.978 17.3189 187.173 17.2861 187.389 17.2861C187.564 17.2861 187.724 17.3076 187.87 17.3507C188.017 17.3918 188.149 17.4585 188.264 17.5509C188.379 17.6413 188.476 17.7624 188.556 17.9144C188.639 18.0643 188.701 18.2481 188.744 18.4657C188.787 18.6834 188.809 18.939 188.809 19.2327ZM188.236 20.0089V19.1372C188.236 18.936 188.224 18.7594 188.199 18.6074C188.177 18.4534 188.143 18.322 188.098 18.2132C188.052 18.1043 187.995 18.016 187.925 17.9483C187.857 17.8805 187.778 17.8312 187.688 17.8004C187.6 17.7676 187.5 17.7511 187.389 17.7511C187.254 17.7511 187.133 17.7768 187.029 17.8281C186.924 17.8774 186.836 17.9565 186.764 18.0653C186.694 18.1741 186.641 18.3169 186.604 18.4934C186.567 18.67 186.548 18.8846 186.548 19.1372V20.0089C186.548 20.2101 186.56 20.3877 186.582 20.5417C186.607 20.6957 186.643 20.8292 186.69 20.9421C186.737 21.053 186.795 21.1444 186.862 21.2163C186.93 21.2881 187.008 21.3415 187.096 21.3764C187.187 21.4093 187.286 21.4257 187.395 21.4257C187.535 21.4257 187.657 21.399 187.762 21.3456C187.867 21.2922 187.954 21.2091 188.024 21.0961C188.095 20.9811 188.149 20.8343 188.184 20.6557C188.219 20.475 188.236 20.2594 188.236 20.0089ZM191.415 17.323V21.8323H190.845V18.0345L189.696 18.4534V17.939L191.325 17.323H191.415Z" fill="#F5F7F6"/>
<path d="M243.69 26.4339V35.9993H242.482V27.9432L240.045 28.8318V27.7407L243.501 26.4339H243.69ZM248.774 31.4714L247.807 31.2231L248.284 26.4862H253.164V27.6035H249.309L249.022 30.1908C249.196 30.0906 249.416 29.997 249.682 29.9099C249.952 29.8227 250.261 29.7792 250.61 29.7792C251.049 29.7792 251.444 29.8554 251.792 30.0079C252.141 30.156 252.437 30.3694 252.681 30.6482C252.929 30.9269 253.118 31.2623 253.249 31.6544C253.38 32.0464 253.445 32.4841 253.445 32.9676C253.445 33.425 253.382 33.8453 253.256 34.2286C253.134 34.6119 252.949 34.9473 252.7 35.2348C252.452 35.518 252.138 35.7379 251.759 35.8947C251.385 36.0515 250.943 36.1299 250.433 36.1299C250.05 36.1299 249.686 36.0777 249.342 35.9731C249.002 35.8642 248.697 35.7009 248.427 35.4831C248.162 35.261 247.944 34.9865 247.774 34.6599C247.608 34.3288 247.504 33.9412 247.46 33.4969H248.61C248.662 33.854 248.767 34.1546 248.924 34.3985C249.081 34.6424 249.285 34.8276 249.538 34.9539C249.795 35.0758 250.093 35.1368 250.433 35.1368C250.721 35.1368 250.975 35.0867 251.198 34.9865C251.42 34.8864 251.607 34.7426 251.759 34.5553C251.912 34.368 252.027 34.1415 252.106 33.8758C252.188 33.6101 252.23 33.3117 252.23 32.9807C252.23 32.6801 252.188 32.4014 252.106 32.1444C252.023 31.8874 251.899 31.6631 251.733 31.4714C251.572 31.2798 251.374 31.1317 251.139 31.0271C250.904 30.9182 250.633 30.8638 250.329 30.8638C249.923 30.8638 249.616 30.9182 249.407 31.0271C249.203 31.136 248.991 31.2841 248.774 31.4714ZM254.667 28.8187V28.3156C254.667 27.9541 254.745 27.6252 254.902 27.329C255.059 27.0328 255.283 26.7955 255.575 26.6169C255.867 26.4383 256.213 26.349 256.614 26.349C257.023 26.349 257.372 26.4383 257.659 26.6169C257.951 26.7955 258.176 27.0328 258.332 27.329C258.489 27.6252 258.568 27.9541 258.568 28.3156V28.8187C258.568 29.1715 258.489 29.4961 258.332 29.7922C258.18 30.0884 257.958 30.3258 257.666 30.5044C257.378 30.683 257.032 30.7723 256.627 30.7723C256.222 30.7723 255.871 30.683 255.575 30.5044C255.283 30.3258 255.059 30.0884 254.902 29.7922C254.745 29.4961 254.667 29.1715 254.667 28.8187ZM255.575 28.3156V28.8187C255.575 29.0191 255.612 29.2086 255.686 29.3872C255.765 29.5657 255.882 29.7117 256.039 29.8249C256.196 29.9338 256.392 29.9883 256.627 29.9883C256.862 29.9883 257.056 29.9338 257.209 29.8249C257.361 29.7117 257.474 29.5657 257.548 29.3872C257.622 29.2086 257.659 29.0191 257.659 28.8187V28.3156C257.659 28.1109 257.62 27.9193 257.542 27.7407C257.468 27.5577 257.352 27.4118 257.195 27.3029C257.043 27.1897 256.849 27.133 256.614 27.133C256.383 27.133 256.189 27.1897 256.032 27.3029C255.88 27.4118 255.765 27.5577 255.686 27.7407C255.612 27.9193 255.575 28.1109 255.575 28.3156ZM259.299 34.1764V33.6667C259.299 33.3096 259.378 32.9829 259.535 32.6867C259.691 32.3905 259.916 32.1531 260.208 31.9745C260.499 31.7959 260.846 31.7066 261.246 31.7066C261.656 31.7066 262.004 31.7959 262.292 31.9745C262.584 32.1531 262.808 32.3905 262.965 32.6867C263.122 32.9829 263.2 33.3096 263.2 33.6667V34.1764C263.2 34.5335 263.122 34.8602 262.965 35.1564C262.812 35.4526 262.59 35.69 262.298 35.8686C262.011 36.0472 261.665 36.1365 261.259 36.1365C260.854 36.1365 260.506 36.0472 260.214 35.8686C259.922 35.69 259.696 35.4526 259.535 35.1564C259.378 34.8602 259.299 34.5335 259.299 34.1764ZM260.208 33.6667V34.1764C260.208 34.3767 260.245 34.5684 260.319 34.7513C260.397 34.9299 260.515 35.0758 260.671 35.1891C260.828 35.298 261.024 35.3524 261.259 35.3524C261.495 35.3524 261.688 35.298 261.841 35.1891C261.998 35.0758 262.113 34.9299 262.187 34.7513C262.261 34.5727 262.298 34.3811 262.298 34.1764V33.6667C262.298 33.462 262.259 33.2704 262.181 33.0918C262.107 32.9132 261.991 32.7694 261.834 32.6605C261.682 32.5473 261.486 32.4907 261.246 32.4907C261.016 32.4907 260.822 32.5473 260.665 32.6605C260.512 32.7694 260.397 32.9132 260.319 33.0918C260.245 33.2704 260.208 33.462 260.208 33.6667ZM261.547 27.8387L256.901 35.274L256.222 34.8428L260.867 27.4074L261.547 27.8387Z" fill="#F5F7F6"/>
<path d="M241.375 21.8323H240.439L240.445 21.3487H241.375C241.695 21.3487 241.962 21.282 242.176 21.1485C242.389 21.013 242.55 20.8241 242.656 20.5818C242.765 20.3374 242.82 20.052 242.82 19.7255V19.4514C242.82 19.1947 242.789 18.9668 242.727 18.7676C242.666 18.5663 242.575 18.3969 242.456 18.2594C242.337 18.1197 242.191 18.014 242.019 17.9421C241.848 17.8702 241.652 17.8343 241.43 17.8343H240.42V17.3477H241.43C241.724 17.3477 241.992 17.3969 242.234 17.4955C242.477 17.592 242.685 17.7327 242.86 17.9175C243.036 18.1002 243.172 18.322 243.266 18.5828C243.361 18.8415 243.408 19.1331 243.408 19.4575V19.7255C243.408 20.0499 243.361 20.3425 243.266 20.6033C243.172 20.862 243.035 21.0828 242.856 21.2655C242.68 21.4483 242.466 21.5889 242.216 21.6875C241.967 21.784 241.687 21.8323 241.375 21.8323ZM240.756 17.3477V21.8323H240.161V17.3477H240.756ZM245.893 17.745L244.409 21.8323H243.802L245.512 17.3477H245.903L245.893 17.745ZM247.138 21.8323L245.65 17.745L245.641 17.3477H246.032L247.748 21.8323H247.138ZM247.061 20.1721V20.6588H244.541V20.1721H247.061ZM249.605 17.3477V21.8323H249.02V17.3477H249.605ZM251.046 17.3477V17.8343H247.581V17.3477H251.046ZM253.126 17.745L251.641 21.8323H251.034L252.744 17.3477H253.135L253.126 17.745ZM254.37 21.8323L252.882 17.745L252.873 17.3477H253.264L254.98 21.8323H254.37ZM254.293 20.1721V20.6588H251.773V20.1721H254.293ZM259.812 19.2327V19.9165C259.812 20.284 259.78 20.5941 259.714 20.8466C259.648 21.0992 259.554 21.3025 259.43 21.4565C259.307 21.6105 259.158 21.7224 258.984 21.7922C258.811 21.86 258.616 21.8939 258.399 21.8939C258.226 21.8939 258.067 21.8723 257.921 21.8292C257.775 21.7861 257.644 21.7173 257.527 21.6228C257.412 21.5263 257.313 21.4011 257.231 21.2471C257.149 21.0931 257.087 20.9062 257.043 20.6865C257 20.4668 256.979 20.2101 256.979 19.9165V19.2327C256.979 18.8651 257.012 18.5571 257.077 18.3086C257.145 18.0602 257.241 17.861 257.364 17.7111C257.487 17.5592 257.635 17.4503 257.807 17.3846C257.982 17.3189 258.177 17.2861 258.393 17.2861C258.567 17.2861 258.727 17.3076 258.873 17.3507C259.021 17.3918 259.152 17.4585 259.267 17.5509C259.382 17.6413 259.48 17.7624 259.56 17.9144C259.642 18.0643 259.705 18.2481 259.748 18.4657C259.791 18.6834 259.812 18.939 259.812 19.2327ZM259.24 20.0089V19.1372C259.24 18.936 259.227 18.7594 259.203 18.6074C259.18 18.4534 259.146 18.322 259.101 18.2132C259.056 18.1043 258.998 18.016 258.928 17.9483C258.861 17.8805 258.782 17.8312 258.691 17.8004C258.603 17.7676 258.503 17.7511 258.393 17.7511C258.257 17.7511 258.137 17.7768 258.032 17.8281C257.927 17.8774 257.839 17.9565 257.767 18.0653C257.697 18.1741 257.644 18.3169 257.607 18.4934C257.57 18.67 257.552 18.8846 257.552 19.1372V20.0089C257.552 20.2101 257.563 20.3877 257.586 20.5417C257.61 20.6957 257.646 20.8292 257.693 20.9421C257.741 21.053 257.798 21.1444 257.866 21.2163C257.934 21.2881 258.012 21.3415 258.1 21.3764C258.19 21.4093 258.29 21.4257 258.399 21.4257C258.538 21.4257 258.66 21.399 258.765 21.3456C258.87 21.2922 258.957 21.2091 259.027 21.0961C259.099 20.9811 259.152 20.8343 259.187 20.6557C259.222 20.475 259.24 20.2594 259.24 20.0089ZM262.418 17.323V21.8323H261.848V18.0345L260.699 18.4534V17.939L262.329 17.323H262.418Z" fill="#F5F7F6"/>
<defs>
<linearGradient id="paint0_linear_479_2896" x1="-4.60924" y1="3.06638" x2="266.194" y2="3.06638" gradientUnits="userSpaceOnUse">
<stop offset="0.0101" stop-color="#F408AB"/>
<stop offset="1" stop-color="#27B7FF"/>
</linearGradient>
<linearGradient id="paint1_linear_479_2896" x1="-4.60899" y1="7.88252" x2="266.195" y2="7.88252" gradientUnits="userSpaceOnUse">
<stop offset="0.0101" stop-color="#F408AB"/>
<stop offset="1" stop-color="#27B7FF"/>
</linearGradient>
<linearGradient id="paint2_linear_479_2896" x1="-4.6093" y1="4.67127" x2="266.195" y2="4.67127" gradientUnits="userSpaceOnUse">
<stop offset="0.0101" stop-color="#F408AB"/>
<stop offset="1" stop-color="#27B7FF"/>
</linearGradient>
<linearGradient id="paint3_linear_479_2896" x1="-4.60887" y1="12.4679" x2="266.188" y2="12.4679" gradientUnits="userSpaceOnUse">
<stop offset="0.0101" stop-color="#F408AB"/>
<stop offset="1" stop-color="#27B7FF"/>
</linearGradient>
<linearGradient id="paint4_linear_479_2896" x1="-4.60901" y1="24.4485" x2="266.193" y2="24.4485" gradientUnits="userSpaceOnUse">
<stop offset="0.0101" stop-color="#F408AB"/>
<stop offset="1" stop-color="#27B7FF"/>
</linearGradient>
<linearGradient id="paint5_linear_479_2896" x1="-4.60907" y1="18.1166" x2="266.191" y2="18.1166" gradientUnits="userSpaceOnUse">
<stop offset="0.0101" stop-color="#F408AB"/>
<stop offset="1" stop-color="#27B7FF"/>
</linearGradient>
<linearGradient id="paint6_linear_479_2896" x1="50.001" y1="18.1166" x2="77.4211" y2="18.1166" gradientUnits="userSpaceOnUse">
<stop offset="0.0101" stop-color="#F408AB"/>
<stop offset="1" stop-color="#27B7FF"/>
</linearGradient>
<linearGradient id="paint7_linear_479_2896" x1="50.0011" y1="12.4679" x2="77.4214" y2="12.4679" gradientUnits="userSpaceOnUse">
<stop offset="0.0101" stop-color="#F408AB"/>
<stop offset="1" stop-color="#27B7FF"/>
</linearGradient>
<linearGradient id="paint8_linear_479_2896" x1="-4.60901" y1="31.7625" x2="266.193" y2="31.7625" gradientUnits="userSpaceOnUse">
<stop offset="0.0101" stop-color="#F408AB"/>
<stop offset="1" stop-color="#27B7FF"/>
</linearGradient>
<linearGradient id="paint9_linear_479_2896" x1="-4.60893" y1="38.0943" x2="266.19" y2="38.0943" gradientUnits="userSpaceOnUse">
<stop offset="0.0101" stop-color="#F408AB"/>
<stop offset="1" stop-color="#27B7FF"/>
</linearGradient>
<linearGradient id="paint10_linear_479_2896" x1="-4.6092" y1="48.3285" x2="266.193" y2="48.3285" gradientUnits="userSpaceOnUse">
<stop offset="0.0101" stop-color="#F408AB"/>
<stop offset="1" stop-color="#27B7FF"/>
</linearGradient>
<linearGradient id="paint11_linear_479_2896" x1="-4.60914" y1="38.0944" x2="266.192" y2="38.0944" gradientUnits="userSpaceOnUse">
<stop offset="0.0101" stop-color="#F408AB"/>
<stop offset="1" stop-color="#27B7FF"/>
</linearGradient>
<linearGradient id="paint12_linear_479_2896" x1="-4.60908" y1="51.5397" x2="266.193" y2="51.5397" gradientUnits="userSpaceOnUse">
<stop offset="0.0101" stop-color="#F408AB"/>
<stop offset="1" stop-color="#27B7FF"/>
</linearGradient>
<linearGradient id="paint13_linear_479_2896" x1="50.0013" y1="24.4484" x2="77.4215" y2="24.4484" gradientUnits="userSpaceOnUse">
<stop offset="0.0101" stop-color="#F408AB"/>
<stop offset="1" stop-color="#27B7FF"/>
</linearGradient>
<linearGradient id="paint14_linear_479_2896" x1="-4.60925" y1="31.7625" x2="266.194" y2="31.7625" gradientUnits="userSpaceOnUse">
<stop offset="0.0101" stop-color="#F408AB"/>
<stop offset="1" stop-color="#27B7FF"/>
</linearGradient>
<linearGradient id="paint15_linear_479_2896" x1="-4.60939" y1="43.7431" x2="266.193" y2="43.7431" gradientUnits="userSpaceOnUse">
<stop offset="0.0101" stop-color="#F408AB"/>
<stop offset="1" stop-color="#27B7FF"/>
</linearGradient>
<linearGradient id="paint16_linear_479_2896" x1="-4.60899" y1="48.3285" x2="266.195" y2="48.3285" gradientUnits="userSpaceOnUse">
<stop offset="0.0101" stop-color="#F408AB"/>
<stop offset="1" stop-color="#27B7FF"/>
</linearGradient>
<linearGradient id="paint17_linear_479_2896" x1="-4.60875" y1="43.7429" x2="266.188" y2="43.7429" gradientUnits="userSpaceOnUse">
<stop offset="0.0101" stop-color="#F408AB"/>
<stop offset="1" stop-color="#27B7FF"/>
</linearGradient>
<linearGradient id="paint18_linear_479_2896" x1="-4.60924" y1="53.1446" x2="266.194" y2="53.1446" gradientUnits="userSpaceOnUse">
<stop offset="0.0101" stop-color="#F408AB"/>
<stop offset="1" stop-color="#27B7FF"/>
</linearGradient>
<linearGradient id="paint19_linear_479_2896" x1="-4.6093" y1="51.5396" x2="266.195" y2="51.5396" gradientUnits="userSpaceOnUse">
<stop offset="0.0101" stop-color="#F408AB"/>
<stop offset="1" stop-color="#27B7FF"/>
</linearGradient>
<linearGradient id="paint20_linear_479_2896" x1="-4.6094" y1="53.1446" x2="266.194" y2="53.1446" gradientUnits="userSpaceOnUse">
<stop offset="0.0101" stop-color="#F408AB"/>
<stop offset="1" stop-color="#27B7FF"/>
</linearGradient>
<linearGradient id="paint21_linear_479_2896" x1="-4.61037" y1="3.06638" x2="266.193" y2="3.06638" gradientUnits="userSpaceOnUse">
<stop offset="0.0101" stop-color="#F408AB"/>
<stop offset="1" stop-color="#27B7FF"/>
</linearGradient>
<linearGradient id="paint22_linear_479_2896" x1="-4.60995" y1="7.88251" x2="266.193" y2="7.88251" gradientUnits="userSpaceOnUse">
<stop offset="0.0101" stop-color="#F408AB"/>
<stop offset="1" stop-color="#27B7FF"/>
</linearGradient>
<linearGradient id="paint23_linear_479_2896" x1="-4.60994" y1="4.67127" x2="266.192" y2="4.67127" gradientUnits="userSpaceOnUse">
<stop offset="0.0101" stop-color="#F408AB"/>
<stop offset="1" stop-color="#27B7FF"/>
</linearGradient>
<linearGradient id="paint24_linear_479_2896" x1="-4.60852" y1="12.4679" x2="266.189" y2="12.4679" gradientUnits="userSpaceOnUse">
<stop offset="0.0101" stop-color="#F408AB"/>
<stop offset="1" stop-color="#27B7FF"/>
</linearGradient>
<linearGradient id="paint25_linear_479_2896" x1="-4.60871" y1="24.4485" x2="266.19" y2="24.4485" gradientUnits="userSpaceOnUse">
<stop offset="0.0101" stop-color="#F408AB"/>
<stop offset="1" stop-color="#27B7FF"/>
</linearGradient>
<linearGradient id="paint26_linear_479_2896" x1="-4.60986" y1="18.1166" x2="266.194" y2="18.1166" gradientUnits="userSpaceOnUse">
<stop offset="0.0101" stop-color="#F408AB"/>
<stop offset="1" stop-color="#27B7FF"/>
</linearGradient>
<linearGradient id="paint27_linear_479_2896" x1="-4.60813" y1="31.7625" x2="266.189" y2="31.7625" gradientUnits="userSpaceOnUse">
<stop offset="0.0101" stop-color="#F408AB"/>
<stop offset="1" stop-color="#27B7FF"/>
</linearGradient>
<linearGradient id="paint28_linear_479_2896" x1="-4.60986" y1="38.0943" x2="266.194" y2="38.0943" gradientUnits="userSpaceOnUse">
<stop offset="0.0101" stop-color="#F408AB"/>
<stop offset="1" stop-color="#27B7FF"/>
</linearGradient>
<linearGradient id="paint29_linear_479_2896" x1="-4.60797" y1="48.3285" x2="266.19" y2="48.3285" gradientUnits="userSpaceOnUse">
<stop offset="0.0101" stop-color="#F408AB"/>
<stop offset="1" stop-color="#27B7FF"/>
</linearGradient>
<linearGradient id="paint30_linear_479_2896" x1="-4.60866" y1="38.0944" x2="266.19" y2="38.0944" gradientUnits="userSpaceOnUse">
<stop offset="0.0101" stop-color="#F408AB"/>
<stop offset="1" stop-color="#27B7FF"/>
</linearGradient>
<linearGradient id="paint31_linear_479_2896" x1="-4.61072" y1="51.5397" x2="266.193" y2="51.5397" gradientUnits="userSpaceOnUse">
<stop offset="0.0101" stop-color="#F408AB"/>
<stop offset="1" stop-color="#27B7FF"/>
</linearGradient>
<linearGradient id="paint32_linear_479_2896" x1="-4.60921" y1="31.7625" x2="266.192" y2="31.7625" gradientUnits="userSpaceOnUse">
<stop offset="0.0101" stop-color="#F408AB"/>
<stop offset="1" stop-color="#27B7FF"/>
</linearGradient>
<linearGradient id="paint33_linear_479_2896" x1="-4.61013" y1="43.7431" x2="266.192" y2="43.7431" gradientUnits="userSpaceOnUse">
<stop offset="0.0101" stop-color="#F408AB"/>
<stop offset="1" stop-color="#27B7FF"/>
</linearGradient>
<linearGradient id="paint34_linear_479_2896" x1="-4.60995" y1="48.3285" x2="266.193" y2="48.3285" gradientUnits="userSpaceOnUse">
<stop offset="0.0101" stop-color="#F408AB"/>
<stop offset="1" stop-color="#27B7FF"/>
</linearGradient>
<linearGradient id="paint35_linear_479_2896" x1="-4.60821" y1="43.7429" x2="266.189" y2="43.7429" gradientUnits="userSpaceOnUse">
<stop offset="0.0101" stop-color="#F408AB"/>
<stop offset="1" stop-color="#27B7FF"/>
</linearGradient>
<linearGradient id="paint36_linear_479_2896" x1="-4.61037" y1="53.1446" x2="266.193" y2="53.1446" gradientUnits="userSpaceOnUse">
<stop offset="0.0101" stop-color="#F408AB"/>
<stop offset="1" stop-color="#27B7FF"/>
</linearGradient>
<linearGradient id="paint37_linear_479_2896" x1="-4.60994" y1="51.5396" x2="266.192" y2="51.5396" gradientUnits="userSpaceOnUse">
<stop offset="0.0101" stop-color="#F408AB"/>
<stop offset="1" stop-color="#27B7FF"/>
</linearGradient>
<linearGradient id="paint38_linear_479_2896" x1="-4.61041" y1="53.1446" x2="266.193" y2="53.1446" gradientUnits="userSpaceOnUse">
<stop offset="0.0101" stop-color="#F408AB"/>
<stop offset="1" stop-color="#27B7FF"/>
</linearGradient>
<linearGradient id="paint39_linear_479_2896" x1="-4.60687" y1="3.06637" x2="266.191" y2="3.06637" gradientUnits="userSpaceOnUse">
<stop offset="0.0101" stop-color="#F408AB"/>
<stop offset="1" stop-color="#27B7FF"/>
</linearGradient>
<linearGradient id="paint40_linear_479_2896" x1="-4.6074" y1="7.88252" x2="266.191" y2="7.88252" gradientUnits="userSpaceOnUse">
<stop offset="0.0101" stop-color="#F408AB"/>
<stop offset="1" stop-color="#27B7FF"/>
</linearGradient>
<linearGradient id="paint41_linear_479_2896" x1="-4.60696" y1="4.67127" x2="266.19" y2="4.67127" gradientUnits="userSpaceOnUse">
<stop offset="0.0101" stop-color="#F408AB"/>
<stop offset="1" stop-color="#27B7FF"/>
</linearGradient>
<linearGradient id="paint42_linear_479_2896" x1="-4.60998" y1="12.4679" x2="266.192" y2="12.4679" gradientUnits="userSpaceOnUse">
<stop offset="0.0101" stop-color="#F408AB"/>
<stop offset="1" stop-color="#27B7FF"/>
</linearGradient>
<linearGradient id="paint43_linear_479_2896" x1="-4.60979" y1="24.4485" x2="266.192" y2="24.4485" gradientUnits="userSpaceOnUse">
<stop offset="0.0101" stop-color="#F408AB"/>
<stop offset="1" stop-color="#27B7FF"/>
</linearGradient>
<linearGradient id="paint44_linear_479_2896" x1="-4.6083" y1="18.1166" x2="266.191" y2="18.1166" gradientUnits="userSpaceOnUse">
<stop offset="0.0101" stop-color="#F408AB"/>
<stop offset="1" stop-color="#27B7FF"/>
</linearGradient>
<linearGradient id="paint45_linear_479_2896" x1="-4.6099" y1="31.7625" x2="266.192" y2="31.7625" gradientUnits="userSpaceOnUse">
<stop offset="0.0101" stop-color="#F408AB"/>
<stop offset="1" stop-color="#27B7FF"/>
</linearGradient>
<linearGradient id="paint46_linear_479_2896" x1="-4.6083" y1="38.0943" x2="266.191" y2="38.0943" gradientUnits="userSpaceOnUse">
<stop offset="0.0101" stop-color="#F408AB"/>
<stop offset="1" stop-color="#27B7FF"/>
</linearGradient>
<linearGradient id="paint47_linear_479_2896" x1="-4.60811" y1="48.3285" x2="266.191" y2="48.3285" gradientUnits="userSpaceOnUse">
<stop offset="0.0101" stop-color="#F408AB"/>
<stop offset="1" stop-color="#27B7FF"/>
</linearGradient>
<linearGradient id="paint48_linear_479_2896" x1="-4.60941" y1="43.7429" x2="266.192" y2="43.7429" gradientUnits="userSpaceOnUse">
<stop offset="0.0101" stop-color="#F408AB"/>
<stop offset="1" stop-color="#27B7FF"/>
</linearGradient>
<linearGradient id="paint49_linear_479_2896" x1="-4.60687" y1="53.1446" x2="266.191" y2="53.1446" gradientUnits="userSpaceOnUse">
<stop offset="0.0101" stop-color="#F408AB"/>
<stop offset="1" stop-color="#27B7FF"/>
</linearGradient>
<linearGradient id="paint50_linear_479_2896" x1="-4.60696" y1="51.5396" x2="266.19" y2="51.5396" gradientUnits="userSpaceOnUse">
<stop offset="0.0101" stop-color="#F408AB"/>
<stop offset="1" stop-color="#27B7FF"/>
</linearGradient>
<linearGradient id="paint51_linear_479_2896" x1="-4.61255" y1="3.06638" x2="266.192" y2="3.06638" gradientUnits="userSpaceOnUse">
<stop offset="0.0101" stop-color="#F408AB"/>
<stop offset="1" stop-color="#27B7FF"/>
</linearGradient>
<linearGradient id="paint52_linear_479_2896" x1="-4.61062" y1="7.88251" x2="266.192" y2="7.88251" gradientUnits="userSpaceOnUse">
<stop offset="0.0101" stop-color="#F408AB"/>
<stop offset="1" stop-color="#27B7FF"/>
</linearGradient>
<linearGradient id="paint53_linear_479_2896" x1="-4.61045" y1="4.67127" x2="266.192" y2="4.67127" gradientUnits="userSpaceOnUse">
<stop offset="0.0101" stop-color="#F408AB"/>
<stop offset="1" stop-color="#27B7FF"/>
</linearGradient>
<linearGradient id="paint54_linear_479_2896" x1="-4.60687" y1="12.4679" x2="266.191" y2="12.4679" gradientUnits="userSpaceOnUse">
<stop offset="0.0101" stop-color="#F408AB"/>
<stop offset="1" stop-color="#27B7FF"/>
</linearGradient>
<linearGradient id="paint55_linear_479_2896" x1="-4.60543" y1="24.4485" x2="266.191" y2="24.4485" gradientUnits="userSpaceOnUse">
<stop offset="0.0101" stop-color="#F408AB"/>
<stop offset="1" stop-color="#27B7FF"/>
</linearGradient>
<linearGradient id="paint56_linear_479_2896" x1="-4.60778" y1="18.1166" x2="266.191" y2="18.1166" gradientUnits="userSpaceOnUse">
<stop offset="0.0101" stop-color="#F408AB"/>
<stop offset="1" stop-color="#27B7FF"/>
</linearGradient>
</defs>
</svg>
