<svg width="253" height="151" viewBox="0 0 253 151" fill="none" xmlns="http://www.w3.org/2000/svg">
<rect x="0.262207" width="252.243" height="150.048" rx="14.7953" fill="black"/>
<rect x="0.570442" y="0.308235" width="251.627" height="149.432" rx="14.4871" stroke="white" stroke-opacity="0.5" stroke-width="0.616471"/>
<path d="M228.583 27.6831H34.0718V28.2752H228.583V27.6831Z" fill="#FDFEFF"/>
<path d="M228.583 34.3096H34.0718V34.9016H228.583V34.3096Z" fill="#FDFEFF"/>
<path d="M228.583 40.936H34.0718V41.5281H228.583V40.936Z" fill="#FDFEFF"/>
<path d="M228.583 47.5708H34.0718V48.171H228.583V47.5708Z" fill="#FDFEFF"/>
<path d="M228.583 54.1973H34.0718V54.7975H228.583V54.1973Z" fill="#FDFEFF"/>
<path d="M228.583 60.8232H34.0718V61.4234H228.583V60.8232Z" fill="#FDFEFF"/>
<path d="M228.583 67.4502H34.0718V68.0423H228.583V67.4502Z" fill="#FDFEFF"/>
<path d="M228.583 74.0762H34.0718V74.6764H228.583V74.0762Z" fill="#FDFEFF"/>
<path d="M228.583 80.7026H34.0718V81.2947H228.583V80.7026Z" fill="#FDFEFF"/>
<path d="M228.583 87.3374H34.0718V87.9295H228.583V87.3374Z" fill="#FDFEFF"/>
<path d="M228.583 93.9639H34.0718V94.556H228.583V93.9639Z" fill="#FDFEFF"/>
<path d="M228.583 100.59H34.0718V101.182H228.583V100.59Z" fill="#FDFEFF"/>
<path d="M228.583 107.217H34.0718V107.809H228.583V107.217Z" fill="#FDFEFF"/>
<path d="M228.583 113.843H34.0718V114.435H228.583V113.843Z" fill="#FDFEFF"/>
<path d="M34.1448 27.8613H33.5527V114.403H34.1448V27.8613Z" fill="#FDFEFF"/>
<path d="M51.8423 27.8613H51.2502V114.403H51.8423V27.8613Z" fill="#FDFEFF"/>
<path d="M69.5401 27.8613H68.948V114.403H69.5401V27.8613Z" fill="#FDFEFF"/>
<path d="M87.2376 27.8613H86.6455V114.403H87.2376V27.8613Z" fill="#FDFEFF"/>
<path d="M104.935 27.8613H104.343V114.403H104.935V27.8613Z" fill="#FDFEFF"/>
<path d="M122.625 27.8613H122.032V114.403H122.625V27.8613Z" fill="#FDFEFF"/>
<path d="M140.322 27.8613H139.73V114.403H140.322V27.8613Z" fill="#FDFEFF"/>
<path d="M158.02 27.8613H157.428V114.403H158.02V27.8613Z" fill="#FDFEFF"/>
<path d="M175.717 27.8613H175.125V114.403H175.717V27.8613Z" fill="#FDFEFF"/>
<path d="M193.415 27.8613H192.823V114.403H193.415V27.8613Z" fill="#FDFEFF"/>
<path d="M211.112 27.8613H210.52V114.403H211.112V27.8613Z" fill="#FDFEFF"/>
<path d="M228.802 27.8613H228.21V114.403H228.802V27.8613Z" fill="#FDFEFF"/>
<path d="M47.3793 123.976V124.374H44.8809V124.025L46.1314 122.633C46.2852 122.462 46.4041 122.317 46.4879 122.198C46.5736 122.077 46.633 121.97 46.6662 121.876C46.7012 121.779 46.7186 121.682 46.7186 121.582C46.7186 121.456 46.6924 121.343 46.64 121.241C46.5893 121.138 46.5142 121.056 46.4145 120.995C46.3149 120.934 46.1943 120.903 46.0528 120.903C45.8832 120.903 45.7416 120.936 45.628 121.003C45.5162 121.067 45.4323 121.158 45.3764 121.275C45.3204 121.392 45.2925 121.527 45.2925 121.679H44.8075C44.8075 121.464 44.8547 121.267 44.949 121.089C45.0434 120.911 45.1832 120.769 45.3685 120.664C45.5538 120.558 45.7818 120.504 46.0528 120.504C46.2939 120.504 46.5002 120.547 46.6715 120.633C46.8427 120.717 46.9738 120.836 47.0647 120.989C47.1573 121.142 47.2037 121.32 47.2037 121.524C47.2037 121.636 47.1844 121.75 47.146 121.865C47.1093 121.979 47.0577 122.092 46.9913 122.206C46.9266 122.32 46.8506 122.431 46.7632 122.541C46.6776 122.652 46.5858 122.76 46.4879 122.867L45.4655 123.976H47.3793ZM50.2946 122.161V122.743C50.2946 123.056 50.2666 123.32 50.2107 123.535C50.1548 123.75 50.0744 123.923 49.9695 124.054C49.8646 124.185 49.7379 124.281 49.5893 124.34C49.4425 124.398 49.2765 124.426 49.0912 124.426C48.9444 124.426 48.809 124.408 48.6849 124.371C48.5608 124.335 48.4489 124.276 48.3493 124.196C48.2514 124.114 48.1675 124.007 48.0976 123.876C48.0277 123.745 47.9744 123.586 47.9377 123.399C47.901 123.212 47.8827 122.993 47.8827 122.743V122.161C47.8827 121.849 47.9106 121.586 47.9666 121.375C48.0242 121.163 48.1055 120.994 48.2104 120.866C48.3152 120.737 48.4411 120.644 48.5879 120.588C48.7364 120.532 48.9025 120.504 49.086 120.504C49.2346 120.504 49.3709 120.523 49.495 120.56C49.6208 120.594 49.7327 120.651 49.8305 120.73C49.9284 120.807 50.0114 120.91 50.0796 121.039C50.1495 121.167 50.2028 121.323 50.2395 121.509C50.2762 121.694 50.2946 121.911 50.2946 122.161ZM49.8069 122.822V122.08C49.8069 121.909 49.7965 121.758 49.7755 121.629C49.7563 121.498 49.7274 121.386 49.689 121.294C49.6505 121.201 49.6016 121.126 49.5422 121.068C49.4845 121.01 49.4172 120.969 49.3403 120.942C49.2651 120.914 49.1804 120.9 49.086 120.9C48.9706 120.9 48.8684 120.922 48.7793 120.966C48.6901 121.008 48.615 121.075 48.5538 121.168C48.4944 121.26 48.4489 121.382 48.4175 121.532C48.386 121.682 48.3703 121.865 48.3703 122.08V122.822C48.3703 122.993 48.3799 123.144 48.3991 123.276C48.4201 123.407 48.4507 123.52 48.4909 123.616C48.5311 123.711 48.58 123.789 48.6377 123.85C48.6954 123.911 48.7618 123.956 48.8369 123.986C48.9138 124.014 48.9986 124.028 49.0912 124.028C49.2101 124.028 49.3141 124.005 49.4032 123.96C49.4923 123.914 49.5666 123.844 49.6261 123.747C49.6872 123.65 49.7327 123.525 49.7624 123.373C49.7921 123.219 49.8069 123.035 49.8069 122.822ZM52.5125 120.536V124.374H52.0275V121.142L51.0496 121.498V121.06L52.4365 120.536H52.5125ZM54.5521 122.557L54.1641 122.458L54.3555 120.557H56.3139V121.005H54.7671L54.6517 122.043C54.7217 122.003 54.8099 121.966 54.9165 121.931C55.0249 121.896 55.149 121.878 55.2888 121.878C55.4653 121.878 55.6235 121.909 55.7633 121.97C55.9031 122.029 56.022 122.115 56.1199 122.227C56.2195 122.339 56.2955 122.473 56.3479 122.631C56.4004 122.788 56.4266 122.964 56.4266 123.158C56.4266 123.341 56.4013 123.51 56.3506 123.664C56.3016 123.817 56.2274 123.952 56.1277 124.067C56.0281 124.181 55.9023 124.269 55.7502 124.332C55.5999 124.395 55.4225 124.426 55.218 124.426C55.0642 124.426 54.9183 124.405 54.7802 124.364C54.6439 124.32 54.5215 124.254 54.4132 124.167C54.3066 124.078 54.2192 123.968 54.151 123.837C54.0846 123.704 54.0426 123.548 54.0252 123.37H54.4866C54.5076 123.513 54.5495 123.634 54.6124 123.732C54.6753 123.83 54.7575 123.904 54.8589 123.955C54.962 124.003 55.0817 124.028 55.218 124.028C55.3334 124.028 55.4356 124.008 55.5248 123.968C55.6139 123.927 55.689 123.87 55.7502 123.795C55.8114 123.719 55.8577 123.629 55.8892 123.522C55.9224 123.415 55.939 123.296 55.939 123.163C55.939 123.042 55.9224 122.93 55.8892 122.827C55.856 122.724 55.8061 122.634 55.7397 122.557C55.6751 122.48 55.5955 122.421 55.5012 122.379C55.4068 122.335 55.2984 122.313 55.1761 122.313C55.0135 122.313 54.8903 122.335 54.8064 122.379C54.7243 122.423 54.6395 122.482 54.5521 122.557Z" fill="#F5F7F6"/>
<path d="M65.7814 123.976V124.374H63.283V124.025L64.5335 122.633C64.6873 122.462 64.8062 122.317 64.89 122.198C64.9757 122.077 65.0351 121.97 65.0683 121.876C65.1033 121.779 65.1207 121.682 65.1207 121.582C65.1207 121.456 65.0945 121.343 65.0421 121.241C64.9914 121.138 64.9163 121.056 64.8166 120.995C64.717 120.934 64.5964 120.903 64.4549 120.903C64.2853 120.903 64.1437 120.936 64.0301 121.003C63.9183 121.067 63.8344 121.158 63.7785 121.275C63.7225 121.392 63.6946 121.527 63.6946 121.679H63.2096C63.2096 121.464 63.2568 121.267 63.3511 121.089C63.4455 120.911 63.5853 120.769 63.7706 120.664C63.9559 120.558 64.1839 120.504 64.4549 120.504C64.696 120.504 64.9023 120.547 65.0736 120.633C65.2448 120.717 65.3759 120.836 65.4668 120.989C65.5594 121.142 65.6058 121.32 65.6058 121.524C65.6058 121.636 65.5865 121.75 65.5481 121.865C65.5114 121.979 65.4598 122.092 65.3934 122.206C65.3287 122.32 65.2527 122.431 65.1653 122.541C65.0797 122.652 64.9879 122.76 64.89 122.867L63.8676 123.976H65.7814ZM68.6967 122.161V122.743C68.6967 123.056 68.6687 123.32 68.6128 123.535C68.5569 123.75 68.4765 123.923 68.3716 124.054C68.2667 124.185 68.14 124.281 67.9914 124.34C67.8446 124.398 67.6786 124.426 67.4933 124.426C67.3465 124.426 67.2111 124.408 67.087 124.371C66.9629 124.335 66.851 124.276 66.7514 124.196C66.6535 124.114 66.5696 124.007 66.4997 123.876C66.4298 123.745 66.3765 123.586 66.3398 123.399C66.3031 123.212 66.2848 122.993 66.2848 122.743V122.161C66.2848 121.849 66.3127 121.586 66.3687 121.375C66.4263 121.163 66.5076 120.994 66.6125 120.866C66.7173 120.737 66.8432 120.644 66.99 120.588C67.1385 120.532 67.3046 120.504 67.4881 120.504C67.6367 120.504 67.773 120.523 67.8971 120.56C68.0229 120.594 68.1348 120.651 68.2326 120.73C68.3305 120.807 68.4135 120.91 68.4817 121.039C68.5516 121.167 68.6049 121.323 68.6416 121.509C68.6783 121.694 68.6967 121.911 68.6967 122.161ZM68.209 122.822V122.08C68.209 121.909 68.1986 121.758 68.1776 121.629C68.1584 121.498 68.1295 121.386 68.0911 121.294C68.0526 121.201 68.0037 121.126 67.9443 121.068C67.8866 121.01 67.8193 120.969 67.7424 120.942C67.6672 120.914 67.5825 120.9 67.4881 120.9C67.3727 120.9 67.2705 120.922 67.1814 120.966C67.0922 121.008 67.0171 121.075 66.9559 121.168C66.8965 121.26 66.851 121.382 66.8196 121.532C66.7881 121.682 66.7724 121.865 66.7724 122.08V122.822C66.7724 122.993 66.782 123.144 66.8012 123.276C66.8222 123.407 66.8528 123.52 66.893 123.616C66.9332 123.711 66.9821 123.789 67.0398 123.85C67.0975 123.911 67.1639 123.956 67.239 123.986C67.3159 124.014 67.4007 124.028 67.4933 124.028C67.6122 124.028 67.7162 124.005 67.8053 123.96C67.8944 123.914 67.9687 123.844 68.0282 123.747C68.0893 123.65 68.1348 123.525 68.1645 123.373C68.1942 123.219 68.209 123.035 68.209 122.822ZM70.9146 120.536V124.374H70.4296V121.142L69.4517 121.498V121.06L70.8386 120.536H70.9146ZM74.2021 120.552H74.2441V120.963H74.2021C73.9452 120.963 73.7302 121.005 73.5572 121.089C73.3842 121.171 73.247 121.282 73.1456 121.422C73.0442 121.56 72.9708 121.716 72.9254 121.889C72.8817 122.062 72.8598 122.237 72.8598 122.416V122.977C72.8598 123.146 72.8799 123.297 72.9201 123.428C72.9603 123.557 73.0154 123.666 73.0853 123.755C73.1552 123.844 73.2339 123.912 73.3213 123.957C73.4104 124.003 73.503 124.025 73.5991 124.025C73.711 124.025 73.8106 124.004 73.898 123.962C73.9854 123.919 74.0588 123.858 74.1182 123.782C74.1794 123.703 74.2257 123.61 74.2572 123.504C74.2886 123.397 74.3044 123.28 74.3044 123.152C74.3044 123.039 74.2904 122.929 74.2624 122.825C74.2345 122.718 74.1916 122.624 74.134 122.541C74.0763 122.458 74.0038 122.392 73.9164 122.345C73.8307 122.296 73.7285 122.271 73.6096 122.271C73.4751 122.271 73.3492 122.305 73.2321 122.371C73.1168 122.436 73.0215 122.521 72.9464 122.628C72.873 122.733 72.831 122.847 72.8205 122.971L72.5636 122.969C72.5881 122.773 72.6335 122.606 72.6999 122.468C72.7681 122.328 72.852 122.215 72.9516 122.127C73.053 122.038 73.1657 121.973 73.2898 121.933C73.4156 121.891 73.5485 121.87 73.6883 121.87C73.8788 121.87 74.0431 121.906 74.1812 121.978C74.3192 122.049 74.4328 122.146 74.522 122.266C74.6111 122.385 74.6766 122.52 74.7186 122.67C74.7623 122.819 74.7841 122.971 74.7841 123.129C74.7841 123.309 74.7588 123.477 74.7081 123.635C74.6574 123.792 74.5814 123.93 74.48 124.049C74.3804 124.168 74.2572 124.26 74.1104 124.327C73.9636 124.393 73.7931 124.426 73.5991 124.426C73.3929 124.426 73.2129 124.385 73.0591 124.301C72.9053 124.215 72.7777 124.101 72.6763 123.96C72.575 123.818 72.4989 123.661 72.4482 123.488C72.3976 123.315 72.3722 123.139 72.3722 122.961V122.733C72.3722 122.464 72.3993 122.2 72.4535 121.941C72.5077 121.682 72.6012 121.448 72.734 121.239C72.8686 121.029 73.0547 120.862 73.2924 120.738C73.5301 120.614 73.8333 120.552 74.2021 120.552Z" fill="#F5F7F6"/>
<path d="M83.9543 123.976V124.374H81.4558V124.025L82.7064 122.633C82.8602 122.462 82.979 122.317 83.0629 122.198C83.1485 122.077 83.208 121.97 83.2412 121.876C83.2761 121.779 83.2936 121.682 83.2936 121.582C83.2936 121.456 83.2674 121.343 83.215 121.241C83.1643 121.138 83.0891 121.056 82.9895 120.995C82.8899 120.934 82.7693 120.903 82.6277 120.903C82.4582 120.903 82.3166 120.936 82.203 121.003C82.0911 121.067 82.0072 121.158 81.9513 121.275C81.8954 121.392 81.8674 121.527 81.8674 121.679H81.3824C81.3824 121.464 81.4296 121.267 81.524 121.089C81.6184 120.911 81.7582 120.769 81.9435 120.664C82.1287 120.558 82.3568 120.504 82.6277 120.504C82.8689 120.504 83.0751 120.547 83.2464 120.633C83.4177 120.717 83.5488 120.836 83.6397 120.989C83.7323 121.142 83.7786 121.32 83.7786 121.524C83.7786 121.636 83.7594 121.75 83.7209 121.865C83.6842 121.979 83.6327 122.092 83.5663 122.206C83.5016 122.32 83.4256 122.431 83.3382 122.541C83.2525 122.652 83.1608 122.76 83.0629 122.867L82.0405 123.976H83.9543ZM86.8695 122.161V122.743C86.8695 123.056 86.8416 123.32 86.7856 123.535C86.7297 123.75 86.6493 123.923 86.5444 124.054C86.4396 124.185 86.3129 124.281 86.1643 124.34C86.0175 124.398 85.8515 124.426 85.6662 124.426C85.5194 124.426 85.3839 124.408 85.2598 124.371C85.1357 124.335 85.0239 124.276 84.9243 124.196C84.8264 124.114 84.7425 124.007 84.6726 123.876C84.6027 123.745 84.5494 123.586 84.5127 123.399C84.476 123.212 84.4576 122.993 84.4576 122.743V122.161C84.4576 121.849 84.4856 121.586 84.5415 121.375C84.5992 121.163 84.6804 120.994 84.7853 120.866C84.8902 120.737 85.016 120.644 85.1628 120.588C85.3114 120.532 85.4774 120.504 85.6609 120.504C85.8095 120.504 85.9458 120.523 86.0699 120.56C86.1958 120.594 86.3076 120.651 86.4055 120.73C86.5034 120.807 86.5864 120.91 86.6545 121.039C86.7245 121.167 86.7778 121.323 86.8145 121.509C86.8512 121.694 86.8695 121.911 86.8695 122.161ZM86.3819 122.822V122.08C86.3819 121.909 86.3714 121.758 86.3504 121.629C86.3312 121.498 86.3024 121.386 86.2639 121.294C86.2255 121.201 86.1765 121.126 86.1171 121.068C86.0594 121.01 85.9921 120.969 85.9152 120.942C85.8401 120.914 85.7553 120.9 85.6609 120.9C85.5456 120.9 85.4433 120.922 85.3542 120.966C85.2651 121.008 85.1899 121.075 85.1288 121.168C85.0693 121.26 85.0239 121.382 84.9924 121.532C84.961 121.682 84.9452 121.865 84.9452 122.08V122.822C84.9452 122.993 84.9548 123.144 84.9741 123.276C84.995 123.407 85.0256 123.52 85.0658 123.616C85.106 123.711 85.155 123.789 85.2126 123.85C85.2703 123.911 85.3367 123.956 85.4119 123.986C85.4888 124.014 85.5736 124.028 85.6662 124.028C85.785 124.028 85.889 124.005 85.9782 123.96C86.0673 123.914 86.1416 123.844 86.201 123.747C86.2622 123.65 86.3076 123.525 86.3373 123.373C86.367 123.219 86.3819 123.035 86.3819 122.822ZM89.0874 120.536V124.374H88.6024V121.142L87.6246 121.498V121.06L89.0114 120.536H89.0874ZM92.9806 120.557V120.83L91.3997 124.374H90.8885L92.4667 120.955H90.4009V120.557H92.9806Z" fill="#F5F7F6"/>
<path d="M101.131 123.976V124.374H98.6323V124.025L99.8829 122.633C100.037 122.462 100.156 122.317 100.239 122.198C100.325 122.077 100.384 121.97 100.418 121.876C100.453 121.779 100.47 121.682 100.47 121.582C100.47 121.456 100.444 121.343 100.391 121.241C100.341 121.138 100.266 121.056 100.166 120.995C100.066 120.934 99.9458 120.903 99.8042 120.903C99.6347 120.903 99.4931 120.936 99.3795 121.003C99.2677 121.067 99.1838 121.158 99.1278 121.275C99.0719 121.392 99.0439 121.527 99.0439 121.679H98.5589C98.5589 121.464 98.6061 121.267 98.7005 121.089C98.7949 120.911 98.9347 120.769 99.12 120.664C99.3052 120.558 99.5333 120.504 99.8042 120.504C100.045 120.504 100.252 120.547 100.423 120.633C100.594 120.717 100.725 120.836 100.816 120.989C100.909 121.142 100.955 121.32 100.955 121.524C100.955 121.636 100.936 121.75 100.897 121.865C100.861 121.979 100.809 122.092 100.743 122.206C100.678 122.32 100.602 122.431 100.515 122.541C100.429 122.652 100.337 122.76 100.239 122.867L99.217 123.976H101.131ZM104.046 122.161V122.743C104.046 123.056 104.018 123.32 103.962 123.535C103.906 123.75 103.826 123.923 103.721 124.054C103.616 124.185 103.489 124.281 103.341 124.34C103.194 124.398 103.028 124.426 102.843 124.426C102.696 124.426 102.56 124.408 102.436 124.371C102.312 124.335 102.2 124.276 102.101 124.196C102.003 124.114 101.919 124.007 101.849 123.876C101.779 123.745 101.726 123.586 101.689 123.399C101.652 123.212 101.634 122.993 101.634 122.743V122.161C101.634 121.849 101.662 121.586 101.718 121.375C101.776 121.163 101.857 120.994 101.962 120.866C102.067 120.737 102.193 120.644 102.339 120.588C102.488 120.532 102.654 120.504 102.837 120.504C102.986 120.504 103.122 120.523 103.246 120.56C103.372 120.594 103.484 120.651 103.582 120.73C103.68 120.807 103.763 120.91 103.831 121.039C103.901 121.167 103.954 121.323 103.991 121.509C104.028 121.694 104.046 121.911 104.046 122.161ZM103.558 122.822V122.08C103.558 121.909 103.548 121.758 103.527 121.629C103.508 121.498 103.479 121.386 103.44 121.294C103.402 121.201 103.353 121.126 103.294 121.068C103.236 121.01 103.169 120.969 103.092 120.942C103.017 120.914 102.932 120.9 102.837 120.9C102.722 120.9 102.62 120.922 102.531 120.966C102.442 121.008 102.366 121.075 102.305 121.168C102.246 121.26 102.2 121.382 102.169 121.532C102.137 121.682 102.122 121.865 102.122 122.08V122.822C102.122 122.993 102.131 123.144 102.151 123.276C102.172 123.407 102.202 123.52 102.242 123.616C102.283 123.711 102.331 123.789 102.389 123.85C102.447 123.911 102.513 123.956 102.588 123.986C102.665 124.014 102.75 124.028 102.843 124.028C102.962 124.028 103.066 124.005 103.155 123.96C103.244 123.914 103.318 123.844 103.378 123.747C103.439 123.65 103.484 123.525 103.514 123.373C103.544 123.219 103.558 123.035 103.558 122.822ZM106.264 120.536V124.374H105.779V121.142L104.801 121.498V121.06L106.188 120.536H106.264ZM110.097 123.341C110.097 123.574 110.043 123.771 109.934 123.934C109.828 124.094 109.683 124.217 109.499 124.301C109.317 124.385 109.112 124.426 108.883 124.426C108.654 124.426 108.448 124.385 108.264 124.301C108.081 124.217 107.936 124.094 107.829 123.934C107.722 123.771 107.669 123.574 107.669 123.341C107.669 123.189 107.698 123.05 107.756 122.924C107.815 122.797 107.898 122.686 108.005 122.591C108.113 122.497 108.241 122.424 108.387 122.374C108.536 122.321 108.699 122.295 108.878 122.295C109.112 122.295 109.321 122.341 109.504 122.431C109.688 122.521 109.832 122.644 109.937 122.801C110.043 122.958 110.097 123.138 110.097 123.341ZM109.609 123.331C109.609 123.189 109.579 123.064 109.517 122.956C109.456 122.846 109.371 122.76 109.26 122.699C109.15 122.638 109.023 122.607 108.878 122.607C108.729 122.607 108.601 122.638 108.492 122.699C108.386 122.76 108.303 122.846 108.243 122.956C108.184 123.064 108.154 123.189 108.154 123.331C108.154 123.477 108.183 123.603 108.241 123.708C108.3 123.811 108.384 123.891 108.492 123.947C108.602 124.001 108.733 124.028 108.883 124.028C109.033 124.028 109.163 124.001 109.271 123.947C109.379 123.891 109.462 123.811 109.52 123.708C109.579 123.603 109.609 123.477 109.609 123.331ZM110.008 121.551C110.008 121.736 109.959 121.903 109.861 122.051C109.763 122.2 109.629 122.317 109.46 122.403C109.29 122.488 109.098 122.531 108.883 122.531C108.665 122.531 108.47 122.488 108.298 122.403C108.129 122.317 107.996 122.2 107.9 122.051C107.804 121.903 107.756 121.736 107.756 121.551C107.756 121.329 107.804 121.14 107.9 120.984C107.998 120.829 108.131 120.71 108.301 120.628C108.47 120.546 108.664 120.504 108.88 120.504C109.099 120.504 109.293 120.546 109.462 120.628C109.632 120.71 109.765 120.829 109.861 120.984C109.959 121.14 110.008 121.329 110.008 121.551ZM109.523 121.558C109.523 121.431 109.496 121.318 109.441 121.22C109.387 121.122 109.312 121.045 109.216 120.989C109.12 120.932 109.008 120.903 108.88 120.903C108.753 120.903 108.641 120.93 108.545 120.984C108.45 121.037 108.376 121.112 108.322 121.21C108.27 121.308 108.243 121.424 108.243 121.558C108.243 121.689 108.27 121.804 108.322 121.902C108.376 122 108.451 122.076 108.547 122.13C108.644 122.184 108.755 122.211 108.883 122.211C109.011 122.211 109.122 122.184 109.216 122.13C109.312 122.076 109.387 122 109.441 121.902C109.496 121.804 109.523 121.689 109.523 121.558Z" fill="#F5F7F6"/>
<path d="M118.998 123.976V124.374H116.5V124.025L117.75 122.633C117.904 122.462 118.023 122.317 118.107 122.198C118.192 122.077 118.252 121.97 118.285 121.876C118.32 121.779 118.337 121.682 118.337 121.582C118.337 121.456 118.311 121.343 118.259 121.241C118.208 121.138 118.133 121.056 118.033 120.995C117.934 120.934 117.813 120.903 117.671 120.903C117.502 120.903 117.36 120.936 117.247 121.003C117.135 121.067 117.051 121.158 116.995 121.275C116.939 121.392 116.911 121.527 116.911 121.679H116.426C116.426 121.464 116.473 121.267 116.568 121.089C116.662 120.911 116.802 120.769 116.987 120.664C117.172 120.558 117.4 120.504 117.671 120.504C117.913 120.504 118.119 120.547 118.29 120.633C118.461 120.717 118.592 120.836 118.683 120.989C118.776 121.142 118.822 121.32 118.822 121.524C118.822 121.636 118.803 121.75 118.765 121.865C118.728 121.979 118.676 122.092 118.61 122.206C118.545 122.32 118.469 122.431 118.382 122.541C118.296 122.652 118.204 122.76 118.107 122.867L117.084 123.976H118.998ZM121.913 122.161V122.743C121.913 123.056 121.885 123.32 121.829 123.535C121.773 123.75 121.693 123.923 121.588 124.054C121.483 124.185 121.357 124.281 121.208 124.34C121.061 124.398 120.895 124.426 120.71 124.426C120.563 124.426 120.428 124.408 120.304 124.371C120.179 124.335 120.068 124.276 119.968 124.196C119.87 124.114 119.786 124.007 119.716 123.876C119.646 123.745 119.593 123.586 119.556 123.399C119.52 123.212 119.501 122.993 119.501 122.743V122.161C119.501 121.849 119.529 121.586 119.585 121.375C119.643 121.163 119.724 120.994 119.829 120.866C119.934 120.737 120.06 120.644 120.207 120.588C120.355 120.532 120.521 120.504 120.705 120.504C120.853 120.504 120.99 120.523 121.114 120.56C121.239 120.594 121.351 120.651 121.449 120.73C121.547 120.807 121.63 120.91 121.698 121.039C121.768 121.167 121.821 121.323 121.858 121.509C121.895 121.694 121.913 121.911 121.913 122.161ZM121.426 122.822V122.08C121.426 121.909 121.415 121.758 121.394 121.629C121.375 121.498 121.346 121.386 121.308 121.294C121.269 121.201 121.22 121.126 121.161 121.068C121.103 121.01 121.036 120.969 120.959 120.942C120.884 120.914 120.799 120.9 120.705 120.9C120.589 120.9 120.487 120.922 120.398 120.966C120.309 121.008 120.234 121.075 120.172 121.168C120.113 121.26 120.068 121.382 120.036 121.532C120.005 121.682 119.989 121.865 119.989 122.08V122.822C119.989 122.993 119.999 123.144 120.018 123.276C120.039 123.407 120.069 123.52 120.11 123.616C120.15 123.711 120.199 123.789 120.256 123.85C120.314 123.911 120.38 123.956 120.456 123.986C120.532 124.014 120.617 124.028 120.71 124.028C120.829 124.028 120.933 124.005 121.022 123.96C121.111 123.914 121.185 123.844 121.245 123.747C121.306 123.65 121.351 123.525 121.381 123.373C121.411 123.219 121.426 123.035 121.426 122.822ZM124.131 120.536V124.374H123.646V121.142L122.668 121.498V121.06L124.055 120.536H124.131ZM126.04 123.968H126.09C126.369 123.968 126.596 123.928 126.771 123.85C126.946 123.771 127.08 123.665 127.175 123.532C127.269 123.4 127.334 123.25 127.369 123.084C127.404 122.916 127.421 122.744 127.421 122.568V121.983C127.421 121.81 127.401 121.656 127.361 121.522C127.323 121.387 127.268 121.274 127.198 121.183C127.13 121.093 127.053 121.024 126.965 120.976C126.878 120.929 126.785 120.906 126.687 120.906C126.575 120.906 126.475 120.928 126.386 120.974C126.298 121.017 126.224 121.079 126.163 121.16C126.103 121.24 126.058 121.335 126.027 121.443C125.995 121.551 125.979 121.669 125.979 121.797C125.979 121.911 125.993 122.021 126.021 122.127C126.049 122.234 126.092 122.33 126.15 122.416C126.207 122.501 126.279 122.569 126.365 122.62C126.452 122.669 126.554 122.694 126.672 122.694C126.78 122.694 126.881 122.673 126.976 122.631C127.072 122.587 127.157 122.528 127.23 122.455C127.305 122.38 127.364 122.295 127.408 122.201C127.454 122.106 127.48 122.008 127.487 121.904H127.718C127.718 122.049 127.689 122.193 127.631 122.334C127.575 122.474 127.496 122.602 127.395 122.717C127.294 122.832 127.175 122.925 127.039 122.995C126.902 123.063 126.754 123.097 126.593 123.097C126.404 123.097 126.241 123.061 126.103 122.987C125.965 122.914 125.851 122.816 125.762 122.694C125.674 122.571 125.609 122.435 125.565 122.285C125.523 122.133 125.502 121.979 125.502 121.823C125.502 121.641 125.528 121.471 125.578 121.312C125.629 121.153 125.704 121.013 125.804 120.892C125.903 120.77 126.027 120.675 126.173 120.607C126.322 120.539 126.493 120.504 126.687 120.504C126.906 120.504 127.092 120.548 127.246 120.636C127.399 120.723 127.524 120.84 127.621 120.987C127.718 121.134 127.79 121.299 127.836 121.482C127.881 121.666 127.904 121.855 127.904 122.049V122.224C127.904 122.422 127.891 122.623 127.864 122.827C127.84 123.03 127.792 123.224 127.72 123.409C127.65 123.595 127.548 123.761 127.413 123.907C127.279 124.052 127.103 124.168 126.886 124.253C126.672 124.337 126.406 124.379 126.09 124.379H126.04V123.968Z" fill="#F5F7F6"/>
<path d="M137.401 123.976V124.374H134.903V124.025L136.153 122.633C136.307 122.462 136.426 122.317 136.51 122.198C136.595 122.077 136.655 121.97 136.688 121.876C136.723 121.779 136.74 121.682 136.74 121.582C136.74 121.456 136.714 121.343 136.662 121.241C136.611 121.138 136.536 121.056 136.436 120.995C136.337 120.934 136.216 120.903 136.074 120.903C135.905 120.903 135.763 120.936 135.65 121.003C135.538 121.067 135.454 121.158 135.398 121.275C135.342 121.392 135.314 121.527 135.314 121.679H134.829C134.829 121.464 134.876 121.267 134.971 121.089C135.065 120.911 135.205 120.769 135.39 120.664C135.575 120.558 135.804 120.504 136.074 120.504C136.316 120.504 136.522 120.547 136.693 120.633C136.864 120.717 136.996 120.836 137.086 120.989C137.179 121.142 137.225 121.32 137.225 121.524C137.225 121.636 137.206 121.75 137.168 121.865C137.131 121.979 137.079 122.092 137.013 122.206C136.948 122.32 136.872 122.431 136.785 122.541C136.699 122.652 136.608 122.76 136.51 122.867L135.487 123.976H137.401ZM140.316 122.161V122.743C140.316 123.056 140.288 123.32 140.232 123.535C140.176 123.75 140.096 123.923 139.991 124.054C139.886 124.185 139.76 124.281 139.611 124.34C139.464 124.398 139.298 124.426 139.113 124.426C138.966 124.426 138.831 124.408 138.707 124.371C138.583 124.335 138.471 124.276 138.371 124.196C138.273 124.114 138.189 124.007 138.119 123.876C138.049 123.745 137.996 123.586 137.959 123.399C137.923 123.212 137.904 122.993 137.904 122.743V122.161C137.904 121.849 137.932 121.586 137.988 121.375C138.046 121.163 138.127 120.994 138.232 120.866C138.337 120.737 138.463 120.644 138.61 120.588C138.758 120.532 138.924 120.504 139.108 120.504C139.256 120.504 139.393 120.523 139.517 120.56C139.643 120.594 139.754 120.651 139.852 120.73C139.95 120.807 140.033 120.91 140.101 121.039C140.171 121.167 140.225 121.323 140.261 121.509C140.298 121.694 140.316 121.911 140.316 122.161ZM139.829 122.822V122.08C139.829 121.909 139.818 121.758 139.797 121.629C139.778 121.498 139.749 121.386 139.711 121.294C139.672 121.201 139.623 121.126 139.564 121.068C139.506 121.01 139.439 120.969 139.362 120.942C139.287 120.914 139.202 120.9 139.108 120.9C138.992 120.9 138.89 120.922 138.801 120.966C138.712 121.008 138.637 121.075 138.576 121.168C138.516 121.26 138.471 121.382 138.439 121.532C138.408 121.682 138.392 121.865 138.392 122.08V122.822C138.392 122.993 138.402 123.144 138.421 123.276C138.442 123.407 138.472 123.52 138.513 123.616C138.553 123.711 138.602 123.789 138.659 123.85C138.717 123.911 138.784 123.956 138.859 123.986C138.936 124.014 139.02 124.028 139.113 124.028C139.232 124.028 139.336 124.005 139.425 123.96C139.514 123.914 139.588 123.844 139.648 123.747C139.709 123.65 139.754 123.525 139.784 123.373C139.814 123.219 139.829 123.035 139.829 122.822ZM143.441 123.976V124.374H140.943V124.025L142.193 122.633C142.347 122.462 142.466 122.317 142.55 122.198C142.636 122.077 142.695 121.97 142.728 121.876C142.763 121.779 142.781 121.682 142.781 121.582C142.781 121.456 142.754 121.343 142.702 121.241C142.651 121.138 142.576 121.056 142.477 120.995C142.377 120.934 142.256 120.903 142.115 120.903C141.945 120.903 141.804 120.936 141.69 121.003C141.578 121.067 141.494 121.158 141.438 121.275C141.382 121.392 141.354 121.527 141.354 121.679H140.869C140.869 121.464 140.917 121.267 141.011 121.089C141.105 120.911 141.245 120.769 141.43 120.664C141.616 120.558 141.844 120.504 142.115 120.504C142.356 120.504 142.562 120.547 142.733 120.633C142.905 120.717 143.036 120.836 143.127 120.989C143.219 121.142 143.266 121.32 143.266 121.524C143.266 121.636 143.246 121.75 143.208 121.865C143.171 121.979 143.12 122.092 143.053 122.206C142.989 122.32 142.913 122.431 142.825 122.541C142.74 122.652 142.648 122.76 142.55 122.867L141.527 123.976H143.441ZM146.357 122.161V122.743C146.357 123.056 146.329 123.32 146.273 123.535C146.217 123.75 146.136 123.923 146.031 124.054C145.927 124.185 145.8 124.281 145.651 124.34C145.505 124.398 145.338 124.426 145.153 124.426C145.006 124.426 144.871 124.408 144.747 124.371C144.623 124.335 144.511 124.276 144.411 124.196C144.313 124.114 144.23 124.007 144.16 123.876C144.09 123.745 144.036 123.586 144 123.399C143.963 123.212 143.945 122.993 143.945 122.743V122.161C143.945 121.849 143.973 121.586 144.029 121.375C144.086 121.163 144.167 120.994 144.272 120.866C144.377 120.737 144.503 120.644 144.65 120.588C144.798 120.532 144.964 120.504 145.148 120.504C145.297 120.504 145.433 120.523 145.557 120.56C145.683 120.594 145.795 120.651 145.893 120.73C145.99 120.807 146.073 120.91 146.142 121.039C146.212 121.167 146.265 121.323 146.302 121.509C146.338 121.694 146.357 121.911 146.357 122.161ZM145.869 122.822V122.08C145.869 121.909 145.858 121.758 145.837 121.629C145.818 121.498 145.789 121.386 145.751 121.294C145.713 121.201 145.664 121.126 145.604 121.068C145.546 121.01 145.479 120.969 145.402 120.942C145.327 120.914 145.242 120.9 145.148 120.9C145.033 120.9 144.93 120.922 144.841 120.966C144.752 121.008 144.677 121.075 144.616 121.168C144.556 121.26 144.511 121.382 144.479 121.532C144.448 121.682 144.432 121.865 144.432 122.08V122.822C144.432 122.993 144.442 123.144 144.461 123.276C144.482 123.407 144.513 123.52 144.553 123.616C144.593 123.711 144.642 123.789 144.7 123.85C144.757 123.911 144.824 123.956 144.899 123.986C144.976 124.014 145.061 124.028 145.153 124.028C145.272 124.028 145.376 124.005 145.465 123.96C145.554 123.914 145.629 123.844 145.688 123.747C145.749 123.65 145.795 123.525 145.824 123.373C145.854 123.219 145.869 123.035 145.869 122.822Z" fill="#F5F7F6"/>
<path d="M155.65 123.976V124.374H153.152V124.025L154.402 122.633C154.556 122.462 154.675 122.317 154.759 122.198C154.844 122.077 154.904 121.97 154.937 121.876C154.972 121.779 154.989 121.682 154.989 121.582C154.989 121.456 154.963 121.343 154.911 121.241C154.86 121.138 154.785 121.056 154.685 120.995C154.586 120.934 154.465 120.903 154.324 120.903C154.154 120.903 154.012 120.936 153.899 121.003C153.787 121.067 153.703 121.158 153.647 121.275C153.591 121.392 153.563 121.527 153.563 121.679H153.078C153.078 121.464 153.125 121.267 153.22 121.089C153.314 120.911 153.454 120.769 153.639 120.664C153.825 120.558 154.053 120.504 154.324 120.504C154.565 120.504 154.771 120.547 154.942 120.633C155.113 120.717 155.245 120.836 155.335 120.989C155.428 121.142 155.474 121.32 155.474 121.524C155.474 121.636 155.455 121.75 155.417 121.865C155.38 121.979 155.328 122.092 155.262 122.206C155.197 122.32 155.121 122.431 155.034 122.541C154.948 122.652 154.857 122.76 154.759 122.867L153.736 123.976H155.65ZM158.565 122.161V122.743C158.565 123.056 158.537 123.32 158.481 123.535C158.426 123.75 158.345 123.923 158.24 124.054C158.135 124.185 158.009 124.281 157.86 124.34C157.713 124.398 157.547 124.426 157.362 124.426C157.215 124.426 157.08 124.408 156.956 124.371C156.832 124.335 156.72 124.276 156.62 124.196C156.522 124.114 156.438 124.007 156.368 123.876C156.298 123.745 156.245 123.586 156.208 123.399C156.172 123.212 156.153 122.993 156.153 122.743V122.161C156.153 121.849 156.181 121.586 156.237 121.375C156.295 121.163 156.376 120.994 156.481 120.866C156.586 120.737 156.712 120.644 156.859 120.588C157.007 120.532 157.173 120.504 157.357 120.504C157.505 120.504 157.642 120.523 157.766 120.56C157.892 120.594 158.003 120.651 158.101 120.73C158.199 120.807 158.282 120.91 158.35 121.039C158.42 121.167 158.474 121.323 158.51 121.509C158.547 121.694 158.565 121.911 158.565 122.161ZM158.078 122.822V122.08C158.078 121.909 158.067 121.758 158.046 121.629C158.027 121.498 157.998 121.386 157.96 121.294C157.921 121.201 157.872 121.126 157.813 121.068C157.755 121.01 157.688 120.969 157.611 120.942C157.536 120.914 157.451 120.9 157.357 120.9C157.241 120.9 157.139 120.922 157.05 120.966C156.961 121.008 156.886 121.075 156.825 121.168C156.765 121.26 156.72 121.382 156.688 121.532C156.657 121.682 156.641 121.865 156.641 122.08V122.822C156.641 122.993 156.651 123.144 156.67 123.276C156.691 123.407 156.721 123.52 156.762 123.616C156.802 123.711 156.851 123.789 156.908 123.85C156.966 123.911 157.033 123.956 157.108 123.986C157.185 124.014 157.269 124.028 157.362 124.028C157.481 124.028 157.585 124.005 157.674 123.96C157.763 123.914 157.837 123.844 157.897 123.747C157.958 123.65 158.003 123.525 158.033 123.373C158.063 123.219 158.078 123.035 158.078 122.822ZM161.69 123.976V124.374H159.192V124.025L160.442 122.633C160.596 122.462 160.715 122.317 160.799 122.198C160.885 122.077 160.944 121.97 160.977 121.876C161.012 121.779 161.03 121.682 161.03 121.582C161.03 121.456 161.003 121.343 160.951 121.241C160.9 121.138 160.825 121.056 160.726 120.995C160.626 120.934 160.505 120.903 160.364 120.903C160.194 120.903 160.053 120.936 159.939 121.003C159.827 121.067 159.743 121.158 159.687 121.275C159.631 121.392 159.603 121.527 159.603 121.679H159.118C159.118 121.464 159.166 121.267 159.26 121.089C159.354 120.911 159.494 120.769 159.68 120.664C159.865 120.558 160.093 120.504 160.364 120.504C160.605 120.504 160.811 120.547 160.982 120.633C161.154 120.717 161.285 120.836 161.376 120.989C161.468 121.142 161.515 121.32 161.515 121.524C161.515 121.636 161.495 121.75 161.457 121.865C161.42 121.979 161.369 122.092 161.302 122.206C161.238 122.32 161.162 122.431 161.074 122.541C160.989 122.652 160.897 122.76 160.799 122.867L159.777 123.976H161.69ZM163.803 120.536V124.374H163.318V121.142L162.34 121.498V121.06L163.727 120.536H163.803Z" fill="#F5F7F6"/>
<path d="M172.942 123.976V124.374H170.444V124.025L171.694 122.633C171.848 122.462 171.967 122.317 172.051 122.198C172.137 122.077 172.196 121.97 172.229 121.876C172.264 121.779 172.282 121.682 172.282 121.582C172.282 121.456 172.255 121.343 172.203 121.241C172.152 121.138 172.077 121.056 171.978 120.995C171.878 120.934 171.757 120.903 171.616 120.903C171.446 120.903 171.305 120.936 171.191 121.003C171.079 121.067 170.995 121.158 170.939 121.275C170.883 121.392 170.855 121.527 170.855 121.679H170.37C170.37 121.464 170.418 121.267 170.512 121.089C170.606 120.911 170.746 120.769 170.931 120.664C171.117 120.558 171.345 120.504 171.616 120.504C171.857 120.504 172.063 120.547 172.234 120.633C172.406 120.717 172.537 120.836 172.628 120.989C172.72 121.142 172.767 121.32 172.767 121.524C172.767 121.636 172.747 121.75 172.709 121.865C172.672 121.979 172.621 122.092 172.554 122.206C172.49 122.32 172.414 122.431 172.326 122.541C172.241 122.652 172.149 122.76 172.051 122.867L171.028 123.976H172.942ZM175.858 122.161V122.743C175.858 123.056 175.83 123.32 175.774 123.535C175.718 123.75 175.637 123.923 175.532 124.054C175.428 124.185 175.301 124.281 175.152 124.34C175.006 124.398 174.839 124.426 174.654 124.426C174.507 124.426 174.372 124.408 174.248 124.371C174.124 124.335 174.012 124.276 173.912 124.196C173.814 124.114 173.731 124.007 173.661 123.876C173.591 123.745 173.537 123.586 173.501 123.399C173.464 123.212 173.446 122.993 173.446 122.743V122.161C173.446 121.849 173.474 121.586 173.53 121.375C173.587 121.163 173.668 120.994 173.773 120.866C173.878 120.737 174.004 120.644 174.151 120.588C174.299 120.532 174.465 120.504 174.649 120.504C174.798 120.504 174.934 120.523 175.058 120.56C175.184 120.594 175.296 120.651 175.394 120.73C175.491 120.807 175.574 120.91 175.643 121.039C175.712 121.167 175.766 121.323 175.803 121.509C175.839 121.694 175.858 121.911 175.858 122.161ZM175.37 122.822V122.08C175.37 121.909 175.359 121.758 175.338 121.629C175.319 121.498 175.29 121.386 175.252 121.294C175.214 121.201 175.165 121.126 175.105 121.068C175.047 121.01 174.98 120.969 174.903 120.942C174.828 120.914 174.743 120.9 174.649 120.9C174.534 120.9 174.431 120.922 174.342 120.966C174.253 121.008 174.178 121.075 174.117 121.168C174.057 121.26 174.012 121.382 173.98 121.532C173.949 121.682 173.933 121.865 173.933 122.08V122.822C173.933 122.993 173.943 123.144 173.962 123.276C173.983 123.407 174.014 123.52 174.054 123.616C174.094 123.711 174.143 123.789 174.201 123.85C174.258 123.911 174.325 123.956 174.4 123.986C174.477 124.014 174.562 124.028 174.654 124.028C174.773 124.028 174.877 124.005 174.966 123.96C175.055 123.914 175.13 123.844 175.189 123.747C175.25 123.65 175.296 123.525 175.325 123.373C175.355 123.219 175.37 123.035 175.37 122.822ZM178.983 123.976V124.374H176.484V124.025L177.735 122.633C177.888 122.462 178.007 122.317 178.091 122.198C178.177 122.077 178.236 121.97 178.269 121.876C178.304 121.779 178.322 121.682 178.322 121.582C178.322 121.456 178.296 121.343 178.243 121.241C178.193 121.138 178.117 121.056 178.018 120.995C177.918 120.934 177.798 120.903 177.656 120.903C177.486 120.903 177.345 120.936 177.231 121.003C177.119 121.067 177.036 121.158 176.98 121.275C176.924 121.392 176.896 121.527 176.896 121.679H176.411C176.411 121.464 176.458 121.267 176.552 121.089C176.647 120.911 176.786 120.769 176.972 120.664C177.157 120.558 177.385 120.504 177.656 120.504C177.897 120.504 178.103 120.547 178.275 120.633C178.446 120.717 178.577 120.836 178.668 120.989C178.761 121.142 178.807 121.32 178.807 121.524C178.807 121.636 178.788 121.75 178.749 121.865C178.713 121.979 178.661 122.092 178.595 122.206C178.53 122.32 178.454 122.431 178.366 122.541C178.281 122.652 178.189 122.76 178.091 122.867L177.069 123.976H178.983ZM182.003 123.976V124.374H179.504V124.025L180.755 122.633C180.909 122.462 181.027 122.317 181.111 122.198C181.197 122.077 181.256 121.97 181.29 121.876C181.325 121.779 181.342 121.682 181.342 121.582C181.342 121.456 181.316 121.343 181.263 121.241C181.213 121.138 181.138 121.056 181.038 120.995C180.938 120.934 180.818 120.903 180.676 120.903C180.507 120.903 180.365 120.936 180.251 121.003C180.14 121.067 180.056 121.158 180 121.275C179.944 121.392 179.916 121.527 179.916 121.679H179.431C179.431 121.464 179.478 121.267 179.572 121.089C179.667 120.911 179.807 120.769 179.992 120.664C180.177 120.558 180.405 120.504 180.676 120.504C180.917 120.504 181.124 120.547 181.295 120.633C181.466 120.717 181.597 120.836 181.688 120.989C181.781 121.142 181.827 121.32 181.827 121.524C181.827 121.636 181.808 121.75 181.769 121.865C181.733 121.979 181.681 122.092 181.615 122.206C181.55 122.32 181.474 122.431 181.387 122.541C181.301 122.652 181.209 122.76 181.111 122.867L180.089 123.976H182.003Z" fill="#F5F7F6"/>
<path d="M190.273 123.976V124.374H187.774V124.025L189.025 122.633C189.179 122.462 189.297 122.317 189.381 122.198C189.467 122.077 189.526 121.97 189.56 121.876C189.594 121.779 189.612 121.682 189.612 121.582C189.612 121.456 189.586 121.343 189.533 121.241C189.483 121.138 189.407 121.056 189.308 120.995C189.208 120.934 189.088 120.903 188.946 120.903C188.777 120.903 188.635 120.936 188.521 121.003C188.409 121.067 188.326 121.158 188.27 121.275C188.214 121.392 188.186 121.527 188.186 121.679H187.701C187.701 121.464 187.748 121.267 187.842 121.089C187.937 120.911 188.077 120.769 188.262 120.664C188.447 120.558 188.675 120.504 188.946 120.504C189.187 120.504 189.393 120.547 189.565 120.633C189.736 120.717 189.867 120.836 189.958 120.989C190.051 121.142 190.097 121.32 190.097 121.524C190.097 121.636 190.078 121.75 190.039 121.865C190.003 121.979 189.951 122.092 189.885 122.206C189.82 122.32 189.744 122.431 189.657 122.541C189.571 122.652 189.479 122.76 189.381 122.867L188.359 123.976H190.273ZM193.188 122.161V122.743C193.188 123.056 193.16 123.32 193.104 123.535C193.048 123.75 192.968 123.923 192.863 124.054C192.758 124.185 192.631 124.281 192.483 124.34C192.336 124.398 192.17 124.426 191.985 124.426C191.838 124.426 191.702 124.408 191.578 124.371C191.454 124.335 191.342 124.276 191.243 124.196C191.145 124.114 191.061 124.007 190.991 123.876C190.921 123.745 190.868 123.586 190.831 123.399C190.794 123.212 190.776 122.993 190.776 122.743V122.161C190.776 121.849 190.804 121.586 190.86 121.375C190.918 121.163 190.999 120.994 191.104 120.866C191.209 120.737 191.334 120.644 191.481 120.588C191.63 120.532 191.796 120.504 191.979 120.504C192.128 120.504 192.264 120.523 192.388 120.56C192.514 120.594 192.626 120.651 192.724 120.73C192.822 120.807 192.905 120.91 192.973 121.039C193.043 121.167 193.096 121.323 193.133 121.509C193.17 121.694 193.188 121.911 193.188 122.161ZM192.7 122.822V122.08C192.7 121.909 192.69 121.758 192.669 121.629C192.65 121.498 192.621 121.386 192.582 121.294C192.544 121.201 192.495 121.126 192.435 121.068C192.378 121.01 192.311 120.969 192.234 120.942C192.158 120.914 192.074 120.9 191.979 120.9C191.864 120.9 191.762 120.922 191.673 120.966C191.583 121.008 191.508 121.075 191.447 121.168C191.388 121.26 191.342 121.382 191.311 121.532C191.279 121.682 191.264 121.865 191.264 122.08V122.822C191.264 122.993 191.273 123.144 191.292 123.276C191.313 123.407 191.344 123.52 191.384 123.616C191.424 123.711 191.473 123.789 191.531 123.85C191.589 123.911 191.655 123.956 191.73 123.986C191.807 124.014 191.892 124.028 191.985 124.028C192.103 124.028 192.207 124.005 192.297 123.96C192.386 123.914 192.46 123.844 192.519 123.747C192.581 123.65 192.626 123.525 192.656 123.373C192.685 123.219 192.7 123.035 192.7 122.822ZM196.313 123.976V124.374H193.814V124.025L195.065 122.633C195.219 122.462 195.338 122.317 195.422 122.198C195.507 122.077 195.567 121.97 195.6 121.876C195.635 121.779 195.652 121.682 195.652 121.582C195.652 121.456 195.626 121.343 195.574 121.241C195.523 121.138 195.448 121.056 195.348 120.995C195.248 120.934 195.128 120.903 194.986 120.903C194.817 120.903 194.675 120.936 194.562 121.003C194.45 121.067 194.366 121.158 194.31 121.275C194.254 121.392 194.226 121.527 194.226 121.679H193.741C193.741 121.464 193.788 121.267 193.883 121.089C193.977 120.911 194.117 120.769 194.302 120.664C194.487 120.558 194.715 120.504 194.986 120.504C195.228 120.504 195.434 120.547 195.605 120.633C195.776 120.717 195.907 120.836 195.998 120.989C196.091 121.142 196.137 121.32 196.137 121.524C196.137 121.636 196.118 121.75 196.08 121.865C196.043 121.979 195.991 122.092 195.925 122.206C195.86 122.32 195.784 122.431 195.697 122.541C195.611 122.652 195.519 122.76 195.422 122.867L194.399 123.976H196.313ZM197.54 122.227H197.886C198.055 122.227 198.195 122.199 198.305 122.143C198.417 122.085 198.5 122.008 198.554 121.91C198.61 121.81 198.638 121.698 198.638 121.574C198.638 121.427 198.614 121.304 198.565 121.204C198.516 121.105 198.443 121.03 198.345 120.979C198.247 120.928 198.123 120.903 197.972 120.903C197.836 120.903 197.715 120.93 197.611 120.984C197.507 121.037 197.426 121.112 197.367 121.21C197.309 121.308 197.28 121.423 197.28 121.556H196.795C196.795 121.362 196.844 121.185 196.942 121.026C197.04 120.867 197.177 120.74 197.354 120.646C197.532 120.552 197.738 120.504 197.972 120.504C198.203 120.504 198.405 120.546 198.578 120.628C198.751 120.708 198.886 120.829 198.982 120.989C199.078 121.149 199.126 121.347 199.126 121.585C199.126 121.681 199.103 121.784 199.058 121.894C199.014 122.002 198.945 122.104 198.851 122.198C198.758 122.292 198.637 122.37 198.489 122.431C198.34 122.491 198.162 122.521 197.954 122.521H197.54V122.227ZM197.54 122.625V122.334H197.954C198.197 122.334 198.398 122.363 198.557 122.421C198.716 122.479 198.841 122.555 198.932 122.652C199.025 122.748 199.089 122.853 199.126 122.969C199.164 123.082 199.184 123.196 199.184 123.31C199.184 123.488 199.153 123.646 199.092 123.784C199.032 123.922 198.948 124.039 198.838 124.135C198.729 124.232 198.602 124.304 198.455 124.353C198.308 124.402 198.148 124.426 197.975 124.426C197.809 124.426 197.653 124.403 197.506 124.356C197.361 124.308 197.232 124.24 197.12 124.151C197.008 124.06 196.921 123.949 196.858 123.818C196.795 123.685 196.764 123.534 196.764 123.365H197.249C197.249 123.498 197.278 123.614 197.335 123.713C197.395 123.813 197.479 123.891 197.587 123.947C197.697 124.001 197.826 124.028 197.975 124.028C198.124 124.028 198.251 124.003 198.358 123.952C198.466 123.9 198.549 123.821 198.607 123.716C198.666 123.611 198.696 123.479 198.696 123.32C198.696 123.161 198.663 123.031 198.596 122.929C198.53 122.826 198.436 122.75 198.313 122.701C198.193 122.651 198.05 122.625 197.886 122.625H197.54Z" fill="#F5F7F6"/>
<path d="M208.101 123.976V124.374H205.603V124.025L206.853 122.633C207.007 122.462 207.126 122.317 207.21 122.198C207.296 122.077 207.355 121.97 207.388 121.876C207.423 121.779 207.441 121.682 207.441 121.582C207.441 121.456 207.414 121.343 207.362 121.241C207.311 121.138 207.236 121.056 207.136 120.995C207.037 120.934 206.916 120.903 206.775 120.903C206.605 120.903 206.464 120.936 206.35 121.003C206.238 121.067 206.154 121.158 206.098 121.275C206.042 121.392 206.014 121.527 206.014 121.679H205.529C205.529 121.464 205.577 121.267 205.671 121.089C205.765 120.911 205.905 120.769 206.09 120.664C206.276 120.558 206.504 120.504 206.775 120.504C207.016 120.504 207.222 120.547 207.393 120.633C207.565 120.717 207.696 120.836 207.787 120.989C207.879 121.142 207.926 121.32 207.926 121.524C207.926 121.636 207.906 121.75 207.868 121.865C207.831 121.979 207.78 122.092 207.713 122.206C207.649 122.32 207.573 122.431 207.485 122.541C207.399 122.652 207.308 122.76 207.21 122.867L206.187 123.976H208.101ZM211.016 122.161V122.743C211.016 123.056 210.989 123.32 210.933 123.535C210.877 123.75 210.796 123.923 210.691 124.054C210.587 124.185 210.46 124.281 210.311 124.34C210.164 124.398 209.998 124.426 209.813 124.426C209.666 124.426 209.531 124.408 209.407 124.371C209.283 124.335 209.171 124.276 209.071 124.196C208.973 124.114 208.889 124.007 208.82 123.876C208.75 123.745 208.696 123.586 208.66 123.399C208.623 123.212 208.605 122.993 208.605 122.743V122.161C208.605 121.849 208.633 121.586 208.688 121.375C208.746 121.163 208.827 120.994 208.932 120.866C209.037 120.737 209.163 120.644 209.31 120.588C209.458 120.532 209.624 120.504 209.808 120.504C209.956 120.504 210.093 120.523 210.217 120.56C210.343 120.594 210.455 120.651 210.552 120.73C210.65 120.807 210.733 120.91 210.802 121.039C210.871 121.167 210.925 121.323 210.961 121.509C210.998 121.694 211.016 121.911 211.016 122.161ZM210.529 122.822V122.08C210.529 121.909 210.518 121.758 210.497 121.629C210.478 121.498 210.449 121.386 210.411 121.294C210.372 121.201 210.324 121.126 210.264 121.068C210.206 121.01 210.139 120.969 210.062 120.942C209.987 120.914 209.902 120.9 209.808 120.9C209.693 120.9 209.59 120.922 209.501 120.966C209.412 121.008 209.337 121.075 209.276 121.168C209.216 121.26 209.171 121.382 209.139 121.532C209.108 121.682 209.092 121.865 209.092 122.08V122.822C209.092 122.993 209.102 123.144 209.121 123.276C209.142 123.407 209.173 123.52 209.213 123.616C209.253 123.711 209.302 123.789 209.36 123.85C209.417 123.911 209.484 123.956 209.559 123.986C209.636 124.014 209.721 124.028 209.813 124.028C209.932 124.028 210.036 124.005 210.125 123.96C210.214 123.914 210.289 123.844 210.348 123.747C210.409 123.65 210.455 123.525 210.484 123.373C210.514 123.219 210.529 123.035 210.529 122.822ZM214.141 123.976V124.374H211.643V124.025L212.894 122.633C213.047 122.462 213.166 122.317 213.25 122.198C213.336 122.077 213.395 121.97 213.428 121.876C213.463 121.779 213.481 121.682 213.481 121.582C213.481 121.456 213.455 121.343 213.402 121.241C213.352 121.138 213.276 121.056 213.177 120.995C213.077 120.934 212.957 120.903 212.815 120.903C212.645 120.903 212.504 120.936 212.39 121.003C212.278 121.067 212.194 121.158 212.139 121.275C212.083 121.392 212.055 121.527 212.055 121.679H211.57C211.57 121.464 211.617 121.267 211.711 121.089C211.806 120.911 211.945 120.769 212.131 120.664C212.316 120.558 212.544 120.504 212.815 120.504C213.056 120.504 213.262 120.547 213.434 120.633C213.605 120.717 213.736 120.836 213.827 120.989C213.92 121.142 213.966 121.32 213.966 121.524C213.966 121.636 213.947 121.75 213.908 121.865C213.871 121.979 213.82 122.092 213.753 122.206C213.689 122.32 213.613 122.431 213.525 122.541C213.44 122.652 213.348 122.76 213.25 122.867L212.228 123.976H214.141ZM217.24 123.089V123.488H214.482V123.202L216.192 120.557H216.587L216.163 121.322L215.033 123.089H217.24ZM216.708 120.557V124.374H216.223V120.557H216.708Z" fill="#F5F7F6"/>
<path d="M31.2862 122.38V122.962C31.2862 123.275 31.2582 123.539 31.2023 123.754C31.1463 123.969 31.0659 124.142 30.9611 124.273C30.8562 124.404 30.7295 124.499 30.5809 124.559C30.4341 124.616 30.2681 124.645 30.0828 124.645C29.936 124.645 29.8006 124.627 29.6765 124.59C29.5524 124.553 29.4405 124.495 29.3409 124.415C29.243 124.332 29.1591 124.226 29.0892 124.095C29.0193 123.964 28.966 123.805 28.9293 123.618C28.8926 123.431 28.8742 123.212 28.8742 122.962V122.38C28.8742 122.067 28.9022 121.805 28.9581 121.594C29.0158 121.382 29.0971 121.213 29.2019 121.085C29.3068 120.956 29.4327 120.863 29.5795 120.807C29.728 120.751 29.8941 120.723 30.0776 120.723C30.2261 120.723 30.3625 120.742 30.4866 120.778C30.6124 120.813 30.7243 120.87 30.8221 120.949C30.92 121.026 31.003 121.129 31.0712 121.258C31.1411 121.386 31.1944 121.542 31.2311 121.727C31.2678 121.913 31.2862 122.13 31.2862 122.38ZM30.7985 123.041V122.299C30.7985 122.128 30.788 121.977 30.7671 121.848C30.7478 121.717 30.719 121.605 30.6806 121.512C30.6421 121.42 30.5932 121.345 30.5337 121.287C30.4761 121.229 30.4088 121.187 30.3319 121.161C30.2567 121.133 30.172 121.119 30.0776 121.119C29.9622 121.119 29.86 121.141 29.7708 121.185C29.6817 121.227 29.6066 121.294 29.5454 121.387C29.486 121.479 29.4405 121.601 29.4091 121.751C29.3776 121.901 29.3619 122.084 29.3619 122.299V123.041C29.3619 123.212 29.3715 123.363 29.3907 123.494C29.4117 123.625 29.4423 123.739 29.4825 123.835C29.5227 123.929 29.5716 124.007 29.6293 124.068C29.687 124.13 29.7534 124.175 29.8285 124.205C29.9054 124.233 29.9902 124.247 30.0828 124.247C30.2017 124.247 30.3057 124.224 30.3948 124.179C30.4839 124.133 30.5582 124.062 30.6176 123.966C30.6788 123.868 30.7243 123.743 30.754 123.591C30.7837 123.438 30.7985 123.254 30.7985 123.041Z" fill="#F5F7F6"/>
<path d="M26.5054 104.841V108.679H26.0204V105.446L25.0425 105.803V105.365L26.4294 104.841H26.5054ZM30.3278 106.466V107.048C30.3278 107.361 30.2998 107.625 30.2439 107.84C30.188 108.055 30.1076 108.228 30.0027 108.359C29.8978 108.49 29.7711 108.585 29.6226 108.645C29.4757 108.702 29.3097 108.731 29.1244 108.731C28.9776 108.731 28.8422 108.713 28.7181 108.676C28.594 108.639 28.4821 108.581 28.3825 108.5C28.2846 108.418 28.2007 108.312 28.1308 108.181C28.0609 108.05 28.0076 107.89 27.9709 107.703C27.9342 107.516 27.9159 107.298 27.9159 107.048V106.466C27.9159 106.153 27.9438 105.891 27.9998 105.68C28.0574 105.468 28.1387 105.299 28.2436 105.171C28.3484 105.042 28.4743 104.949 28.6211 104.893C28.7696 104.837 28.9357 104.809 29.1192 104.809C29.2678 104.809 29.4041 104.828 29.5282 104.864C29.654 104.899 29.7659 104.956 29.8637 105.035C29.9616 105.112 30.0446 105.215 30.1128 105.344C30.1827 105.472 30.236 105.628 30.2727 105.813C30.3094 105.999 30.3278 106.216 30.3278 106.466ZM29.8401 107.127V106.385C29.8401 106.213 29.8297 106.063 29.8087 105.934C29.7895 105.803 29.7606 105.691 29.7222 105.598C29.6837 105.506 29.6348 105.43 29.5754 105.373C29.5177 105.315 29.4504 105.273 29.3735 105.247C29.2983 105.219 29.2136 105.205 29.1192 105.205C29.0038 105.205 28.9016 105.227 28.8125 105.271C28.7233 105.313 28.6482 105.38 28.587 105.472C28.5276 105.565 28.4821 105.687 28.4507 105.837C28.4192 105.987 28.4035 106.17 28.4035 106.385V107.127C28.4035 107.298 28.4131 107.449 28.4323 107.58C28.4533 107.711 28.4839 107.825 28.5241 107.921C28.5643 108.015 28.6132 108.093 28.6709 108.154C28.7286 108.216 28.795 108.261 28.8701 108.291C28.947 108.319 29.0318 108.333 29.1244 108.333C29.2433 108.333 29.3473 108.31 29.4364 108.264C29.5256 108.219 29.5998 108.148 29.6593 108.052C29.7204 107.954 29.7659 107.829 29.7956 107.677C29.8253 107.523 29.8401 107.34 29.8401 107.127Z" fill="#F5F7F6"/>
<path d="M27.4125 95.1186V95.5171H24.9141V95.1684L26.1646 93.7763C26.3184 93.605 26.4373 93.46 26.5211 93.3411C26.6068 93.2205 26.6662 93.113 26.6994 93.0187C26.7344 92.9225 26.7519 92.8247 26.7519 92.725C26.7519 92.5992 26.7256 92.4856 26.6732 92.3842C26.6225 92.2811 26.5474 92.199 26.4477 92.1378C26.3481 92.0766 26.2275 92.046 26.086 92.046C25.9164 92.046 25.7749 92.0792 25.6612 92.1457C25.5494 92.2103 25.4655 92.3012 25.4096 92.4183C25.3536 92.5354 25.3257 92.67 25.3257 92.822H24.8407C24.8407 92.6071 24.8879 92.4104 24.9822 92.2322C25.0766 92.0539 25.2164 91.9123 25.4017 91.8075C25.587 91.7008 25.8151 91.6475 26.086 91.6475C26.3271 91.6475 26.5334 91.6904 26.7047 91.776C26.8759 91.8599 27.007 91.9787 27.0979 92.1325C27.1905 92.2846 27.2369 92.4629 27.2369 92.6674C27.2369 92.7792 27.2176 92.8928 27.1792 93.0082C27.1425 93.1218 27.0909 93.2354 27.0245 93.349C26.9598 93.4626 26.8838 93.5745 26.7964 93.6846C26.7108 93.7947 26.619 93.903 26.5211 94.0096L25.4987 95.1186H27.4125ZM30.3278 93.3044V93.8864C30.3278 94.1993 30.2998 94.4632 30.2439 94.6782C30.188 94.8931 30.1076 95.0662 30.0027 95.1972C29.8978 95.3283 29.7711 95.4236 29.6226 95.483C29.4757 95.5407 29.3097 95.5695 29.1244 95.5695C28.9776 95.5695 28.8422 95.5512 28.7181 95.5145C28.594 95.4778 28.4821 95.4192 28.3825 95.3388C28.2846 95.2567 28.2007 95.1501 28.1308 95.019C28.0609 94.8879 28.0076 94.7288 27.9709 94.5418C27.9342 94.3548 27.9159 94.1364 27.9159 93.8864V93.3044C27.9159 92.9916 27.9438 92.7294 27.9998 92.5179C28.0574 92.3064 28.1387 92.1369 28.2436 92.0093C28.3484 91.88 28.4743 91.7874 28.6211 91.7314C28.7696 91.6755 28.9357 91.6475 29.1192 91.6475C29.2678 91.6475 29.4041 91.6659 29.5282 91.7026C29.654 91.7376 29.7659 91.7944 29.8637 91.873C29.9616 91.9499 30.0446 92.053 30.1128 92.1824C30.1827 92.3099 30.236 92.4664 30.2727 92.6516C30.3094 92.8369 30.3278 93.0545 30.3278 93.3044ZM29.8401 93.9651V93.2232C29.8401 93.0519 29.8297 92.9016 29.8087 92.7722C29.7895 92.6411 29.7606 92.5293 29.7222 92.4367C29.6837 92.344 29.6348 92.2689 29.5754 92.2112C29.5177 92.1535 29.4504 92.1116 29.3735 92.0854C29.2983 92.0574 29.2136 92.0434 29.1192 92.0434C29.0038 92.0434 28.9016 92.0653 28.8125 92.109C28.7233 92.1509 28.6482 92.2182 28.587 92.3108C28.5276 92.4035 28.4821 92.5249 28.4507 92.6752C28.4192 92.8255 28.4035 93.0082 28.4035 93.2232V93.9651C28.4035 94.1364 28.4131 94.2875 28.4323 94.4186C28.4533 94.5497 28.4839 94.6633 28.5241 94.7594C28.5643 94.8538 28.6132 94.9316 28.6709 94.9928C28.7286 95.0539 28.795 95.0994 28.8701 95.1291C28.947 95.1571 29.0318 95.171 29.1244 95.171C29.2433 95.171 29.3473 95.1483 29.4364 95.1029C29.5256 95.0574 29.5998 94.9866 29.6593 94.8905C29.7204 94.7926 29.7659 94.6677 29.7956 94.5156C29.8253 94.3618 29.8401 94.1783 29.8401 93.9651Z" fill="#F5F7F6"/>
<path d="M25.6193 79.7503H25.9654C26.1349 79.7503 26.2747 79.7224 26.3848 79.6664C26.4967 79.6088 26.5797 79.531 26.6339 79.4331C26.6898 79.3335 26.7178 79.2216 26.7178 79.0975C26.7178 78.9507 26.6933 78.8275 26.6444 78.7279C26.5954 78.6283 26.522 78.5531 26.4241 78.5024C26.3263 78.4517 26.2022 78.4264 26.0519 78.4264C25.9155 78.4264 25.795 78.4535 25.6901 78.5077C25.587 78.5601 25.5057 78.6353 25.4463 78.7331C25.3886 78.831 25.3598 78.9464 25.3598 79.0792H24.8748C24.8748 78.8852 24.9237 78.7087 25.0216 78.5496C25.1194 78.3906 25.2566 78.2639 25.4332 78.1695C25.6114 78.0751 25.8177 78.0279 26.0519 78.0279C26.2826 78.0279 26.4844 78.069 26.6575 78.1511C26.8305 78.2315 26.9651 78.3521 27.0612 78.5129C27.1573 78.672 27.2054 78.8703 27.2054 79.108C27.2054 79.2042 27.1827 79.3073 27.1372 79.4174C27.0935 79.5257 27.0245 79.6271 26.9301 79.7215C26.8375 79.8159 26.7169 79.8937 26.5683 79.9548C26.4198 80.0142 26.2415 80.044 26.0335 80.044H25.6193V79.7503ZM25.6193 80.1488V79.8578H26.0335C26.2765 79.8578 26.4775 79.8867 26.6365 79.9443C26.7955 80.002 26.9205 80.0789 27.0114 80.175C27.104 80.2712 27.1687 80.3769 27.2054 80.4923C27.2438 80.6059 27.2631 80.7195 27.2631 80.8331C27.2631 81.0113 27.2325 81.1695 27.1713 81.3076C27.1119 81.4457 27.0271 81.5628 26.917 81.6589C26.8087 81.755 26.6811 81.8276 26.5343 81.8765C26.3874 81.9254 26.2275 81.9499 26.0545 81.9499C25.8885 81.9499 25.732 81.9263 25.5852 81.8791C25.4402 81.8319 25.3117 81.7638 25.1998 81.6746C25.088 81.5837 25.0006 81.4728 24.9377 81.3417C24.8748 81.2088 24.8433 81.0577 24.8433 80.8881H25.3283C25.3283 81.021 25.3571 81.1372 25.4148 81.2368C25.4742 81.3364 25.5581 81.4142 25.6665 81.4701C25.7766 81.5243 25.9059 81.5514 26.0545 81.5514C26.2031 81.5514 26.3306 81.5261 26.4373 81.4754C26.5456 81.4229 26.6286 81.3443 26.6863 81.2394C26.7457 81.1346 26.7754 81.0026 26.7754 80.8436C26.7754 80.6845 26.7422 80.5543 26.6758 80.4529C26.6094 80.3498 26.515 80.2738 26.3927 80.2249C26.2721 80.1742 26.1296 80.1488 25.9654 80.1488H25.6193ZM30.3278 79.6848V80.2668C30.3278 80.5796 30.2998 80.8436 30.2439 81.0585C30.188 81.2735 30.1076 81.4465 30.0027 81.5776C29.8978 81.7087 29.7711 81.804 29.6226 81.8634C29.4757 81.9211 29.3097 81.9499 29.1244 81.9499C28.9776 81.9499 28.8422 81.9315 28.7181 81.8948C28.594 81.8581 28.4821 81.7996 28.3825 81.7192C28.2846 81.637 28.2007 81.5304 28.1308 81.3993C28.0609 81.2683 28.0076 81.1092 27.9709 80.9222C27.9342 80.7352 27.9159 80.5167 27.9159 80.2668V79.6848C27.9159 79.3719 27.9438 79.1098 27.9998 78.8983C28.0574 78.6868 28.1387 78.5173 28.2436 78.3897C28.3484 78.2604 28.4743 78.1677 28.6211 78.1118C28.7696 78.0559 28.9357 78.0279 29.1192 78.0279C29.2678 78.0279 29.4041 78.0463 29.5282 78.083C29.654 78.1179 29.7659 78.1747 29.8637 78.2534C29.9616 78.3303 30.0446 78.4334 30.1128 78.5627C30.1827 78.6903 30.236 78.8467 30.2727 79.032C30.3094 79.2173 30.3278 79.4349 30.3278 79.6848ZM29.8401 80.3454V79.6035C29.8401 79.4322 29.8297 79.2819 29.8087 79.1526C29.7895 79.0215 29.7606 78.9097 29.7222 78.817C29.6837 78.7244 29.6348 78.6492 29.5754 78.5916C29.5177 78.5339 29.4504 78.4919 29.3735 78.4657C29.2983 78.4378 29.2136 78.4238 29.1192 78.4238C29.0038 78.4238 28.9016 78.4456 28.8125 78.4893C28.7233 78.5313 28.6482 78.5986 28.587 78.6912C28.5276 78.7838 28.4821 78.9053 28.4507 79.0556C28.4192 79.2059 28.4035 79.3885 28.4035 79.6035V80.3454C28.4035 80.5167 28.4131 80.6679 28.4323 80.799C28.4533 80.9301 28.4839 81.0437 28.5241 81.1398C28.5643 81.2342 28.6132 81.312 28.6709 81.3731C28.7286 81.4343 28.795 81.4797 28.8701 81.5095C28.947 81.5374 29.0318 81.5514 29.1244 81.5514C29.2433 81.5514 29.3473 81.5287 29.4364 81.4832C29.5256 81.4378 29.5998 81.367 29.6593 81.2709C29.7204 81.173 29.7659 81.048 29.7956 80.896C29.8253 80.7422 29.8401 80.5587 29.8401 80.3454Z" fill="#F5F7F6"/>
<path d="M27.4912 67.4532V67.8517H24.7332V67.5659L26.4425 64.9207H26.8384L26.4137 65.6862L25.2837 67.4532H27.4912ZM26.959 64.9207V68.7378H26.474V64.9207H26.959ZM30.3278 66.5251V67.1071C30.3278 67.42 30.2998 67.6839 30.2439 67.8989C30.188 68.1138 30.1076 68.2869 30.0027 68.418C29.8978 68.549 29.7711 68.6443 29.6226 68.7037C29.4757 68.7614 29.3097 68.7902 29.1244 68.7902C28.9776 68.7902 28.8422 68.7719 28.7181 68.7352C28.594 68.6985 28.4821 68.6399 28.3825 68.5595C28.2846 68.4774 28.2007 68.3708 28.1308 68.2397C28.0609 68.1086 28.0076 67.9496 27.9709 67.7625C27.9342 67.5755 27.9159 67.3571 27.9159 67.1071V66.5251C27.9159 66.2123 27.9438 65.9501 27.9998 65.7386C28.0574 65.5272 28.1387 65.3576 28.2436 65.23C28.3484 65.1007 28.4743 65.0081 28.6211 64.9521C28.7696 64.8962 28.9357 64.8682 29.1192 64.8682C29.2678 64.8682 29.4041 64.8866 29.5282 64.9233C29.654 64.9583 29.7659 65.0151 29.8637 65.0937C29.9616 65.1706 30.0446 65.2737 30.1128 65.4031C30.1827 65.5306 30.236 65.6871 30.2727 65.8723C30.3094 66.0576 30.3278 66.2752 30.3278 66.5251ZM29.8401 67.1858V66.4439C29.8401 66.2726 29.8297 66.1223 29.8087 65.9929C29.7895 65.8618 29.7606 65.75 29.7222 65.6574C29.6837 65.5647 29.6348 65.4896 29.5754 65.4319C29.5177 65.3742 29.4504 65.3323 29.3735 65.3061C29.2983 65.2781 29.2136 65.2641 29.1192 65.2641C29.0038 65.2641 28.9016 65.286 28.8125 65.3297C28.7233 65.3716 28.6482 65.4389 28.587 65.5315C28.5276 65.6242 28.4821 65.7456 28.4507 65.8959C28.4192 66.0462 28.4035 66.2289 28.4035 66.4439V67.1858C28.4035 67.3571 28.4131 67.5082 28.4323 67.6393C28.4533 67.7704 28.4839 67.884 28.5241 67.9801C28.5643 68.0745 28.6132 68.1523 28.6709 68.2135C28.7286 68.2746 28.795 68.3201 28.8701 68.3498C28.947 68.3778 29.0318 68.3917 29.1244 68.3917C29.2433 68.3917 29.3473 68.369 29.4364 68.3236C29.5256 68.2781 29.5998 68.2073 29.6593 68.1112C29.7204 68.0133 29.7659 67.8884 29.7956 67.7363C29.8253 67.5825 29.8401 67.399 29.8401 67.1858Z" fill="#F5F7F6"/>
<path d="M25.5249 54.295L25.1369 54.1954L25.3283 52.2947H27.2867V52.743H25.7399L25.6245 53.7812C25.6945 53.741 25.7827 53.7034 25.8893 53.6684C25.9977 53.6335 26.1218 53.616 26.2616 53.616C26.4381 53.616 26.5963 53.6466 26.7361 53.7078C26.8759 53.7672 26.9948 53.8528 27.0927 53.9647C27.1923 54.0765 27.2683 54.2111 27.3207 54.3684C27.3732 54.5257 27.3994 54.7014 27.3994 54.8954C27.3994 55.0789 27.3741 55.2475 27.3234 55.4014C27.2744 55.5552 27.2002 55.6897 27.1005 55.8051C27.0009 55.9187 26.8751 56.007 26.723 56.0699C26.5727 56.1328 26.3953 56.1642 26.1908 56.1642C26.037 56.1642 25.8911 56.1433 25.753 56.1013C25.6167 56.0576 25.4943 55.9921 25.386 55.9047C25.2794 55.8156 25.192 55.7055 25.1238 55.5744C25.0574 55.4415 25.0154 55.286 24.998 55.1077H25.4594C25.4804 55.251 25.5223 55.3716 25.5852 55.4695C25.6481 55.5674 25.7303 55.6417 25.8317 55.6924C25.9348 55.7413 26.0545 55.7658 26.1908 55.7658C26.3062 55.7658 26.4084 55.7457 26.4976 55.7055C26.5867 55.6653 26.6618 55.6076 26.723 55.5324C26.7842 55.4573 26.8305 55.3664 26.862 55.2598C26.8952 55.1532 26.9118 55.0334 26.9118 54.9006C26.9118 54.78 26.8952 54.6682 26.862 54.565C26.8288 54.4619 26.7789 54.3719 26.7125 54.295C26.6479 54.2181 26.5683 54.1587 26.474 54.1167C26.3796 54.0731 26.2712 54.0512 26.1489 54.0512C25.9863 54.0512 25.8631 54.0731 25.7792 54.1167C25.6971 54.1604 25.6123 54.2199 25.5249 54.295ZM30.3278 53.8991V54.4812C30.3278 54.794 30.2998 55.0579 30.2439 55.2729C30.188 55.4879 30.1076 55.6609 30.0027 55.792C29.8978 55.9231 29.7711 56.0183 29.6226 56.0777C29.4757 56.1354 29.3097 56.1642 29.1244 56.1642C28.9776 56.1642 28.8422 56.1459 28.7181 56.1092C28.594 56.0725 28.4821 56.0139 28.3825 55.9335C28.2846 55.8514 28.2007 55.7448 28.1308 55.6137C28.0609 55.4826 28.0076 55.3236 27.9709 55.1366C27.9342 54.9496 27.9159 54.7311 27.9159 54.4812V53.8991C27.9159 53.5863 27.9438 53.3241 27.9998 53.1127C28.0574 52.9012 28.1387 52.7316 28.2436 52.6041C28.3484 52.4747 28.4743 52.3821 28.6211 52.3262C28.7696 52.2702 28.9357 52.2423 29.1192 52.2423C29.2678 52.2423 29.4041 52.2606 29.5282 52.2973C29.654 52.3323 29.7659 52.3891 29.8637 52.4677C29.9616 52.5446 30.0446 52.6478 30.1128 52.7771C30.1827 52.9047 30.236 53.0611 30.2727 53.2464C30.3094 53.4316 30.3278 53.6492 30.3278 53.8991ZM29.8401 54.5598V53.8179C29.8401 53.6466 29.8297 53.4963 29.8087 53.367C29.7895 53.2359 29.7606 53.124 29.7222 53.0314C29.6837 52.9388 29.6348 52.8636 29.5754 52.8059C29.5177 52.7482 29.4504 52.7063 29.3735 52.6801C29.2983 52.6521 29.2136 52.6381 29.1192 52.6381C29.0038 52.6381 28.9016 52.66 28.8125 52.7037C28.7233 52.7456 28.6482 52.8129 28.587 52.9055C28.5276 52.9982 28.4821 53.1196 28.4507 53.27C28.4192 53.4203 28.4035 53.6029 28.4035 53.8179V54.5598C28.4035 54.7311 28.4131 54.8823 28.4323 55.0133C28.4533 55.1444 28.4839 55.258 28.5241 55.3542C28.5643 55.4485 28.6132 55.5263 28.6709 55.5875C28.7286 55.6487 28.795 55.6941 28.8701 55.7238C28.947 55.7518 29.0318 55.7658 29.1244 55.7658C29.2433 55.7658 29.3473 55.743 29.4364 55.6976C29.5256 55.6522 29.5998 55.5814 29.6593 55.4852C29.7204 55.3874 29.7659 55.2624 29.7956 55.1103C29.8253 54.9565 29.8401 54.773 29.8401 54.5598Z" fill="#F5F7F6"/>
<path d="M26.7728 39.1293H26.8148V39.5409H26.7728C26.5159 39.5409 26.3009 39.5828 26.1279 39.6667C25.9549 39.7489 25.8177 39.8599 25.7163 39.9997C25.6149 40.1378 25.5415 40.2933 25.4961 40.4663C25.4524 40.6394 25.4305 40.815 25.4305 40.9933V41.5543C25.4305 41.7239 25.4506 41.8742 25.4908 42.0052C25.531 42.1346 25.5861 42.2438 25.656 42.333C25.7259 42.4221 25.8046 42.4894 25.892 42.5348C25.9811 42.5803 26.0737 42.603 26.1698 42.603C26.2817 42.603 26.3813 42.582 26.4687 42.5401C26.5561 42.4964 26.6295 42.4361 26.6889 42.3592C26.7501 42.2805 26.7964 42.1879 26.8279 42.0813C26.8593 41.9747 26.8751 41.8576 26.8751 41.73C26.8751 41.6164 26.8611 41.5071 26.8331 41.4023C26.8052 41.2957 26.7623 41.2013 26.7047 41.1191C26.647 41.0352 26.5745 40.9697 26.4871 40.9225C26.4014 40.8736 26.2992 40.8491 26.1803 40.8491C26.0458 40.8491 25.9199 40.8823 25.8028 40.9487C25.6875 41.0134 25.5922 41.099 25.5171 41.2056C25.4437 41.3105 25.4017 41.425 25.3912 41.5491L25.1343 41.5465C25.1588 41.3507 25.2042 41.1838 25.2706 41.0457C25.3388 40.9059 25.4227 40.7923 25.5223 40.7049C25.6237 40.6158 25.7364 40.5511 25.8605 40.5109C25.9863 40.469 26.1192 40.448 26.259 40.448C26.4495 40.448 26.6138 40.4838 26.7519 40.5555C26.8899 40.6271 27.0035 40.7233 27.0927 40.8439C27.1818 40.9627 27.2473 41.0973 27.2893 41.2476C27.333 41.3962 27.3548 41.5491 27.3548 41.7064C27.3548 41.8864 27.3295 42.0551 27.2788 42.2124C27.2281 42.3697 27.1521 42.5077 27.0507 42.6266C26.9511 42.7454 26.8279 42.8381 26.6811 42.9045C26.5343 42.9709 26.3638 43.0041 26.1698 43.0041C25.9636 43.0041 25.7836 42.9621 25.6298 42.8783C25.476 42.7926 25.3484 42.679 25.247 42.5374C25.1457 42.3959 25.0696 42.2386 25.0189 42.0655C24.9683 41.8925 24.9429 41.7169 24.9429 41.5386V41.3105C24.9429 41.0414 24.97 40.7774 25.0242 40.5188C25.0784 40.2601 25.1719 40.0259 25.3047 39.8162C25.4393 39.6064 25.6254 39.4395 25.8631 39.3154C26.1008 39.1913 26.404 39.1293 26.7728 39.1293ZM30.3278 40.739V41.321C30.3278 41.6338 30.2998 41.8978 30.2439 42.1127C30.188 42.3277 30.1076 42.5007 30.0027 42.6318C29.8978 42.7629 29.7711 42.8582 29.6226 42.9176C29.4757 42.9753 29.3097 43.0041 29.1244 43.0041C28.9776 43.0041 28.8422 42.9857 28.7181 42.949C28.594 42.9123 28.4821 42.8538 28.3825 42.7734C28.2846 42.6912 28.2007 42.5846 28.1308 42.4535C28.0609 42.3225 28.0076 42.1634 27.9709 41.9764C27.9342 41.7894 27.9159 41.5709 27.9159 41.321V40.739C27.9159 40.4261 27.9438 40.164 27.9998 39.9525C28.0574 39.741 28.1387 39.5715 28.2436 39.4439C28.3484 39.3146 28.4743 39.2219 28.6211 39.166C28.7696 39.1101 28.9357 39.0821 29.1192 39.0821C29.2678 39.0821 29.4041 39.1005 29.5282 39.1372C29.654 39.1721 29.7659 39.2289 29.8637 39.3076C29.9616 39.3845 30.0446 39.4876 30.1128 39.6169C30.1827 39.7445 30.236 39.9009 30.2727 40.0862C30.3094 40.2715 30.3278 40.4891 30.3278 40.739ZM29.8401 41.3996V40.6577C29.8401 40.4864 29.8297 40.3361 29.8087 40.2068C29.7895 40.0757 29.7606 39.9639 29.7222 39.8712C29.6837 39.7786 29.6348 39.7034 29.5754 39.6458C29.5177 39.5881 29.4504 39.5461 29.3735 39.5199C29.2983 39.492 29.2136 39.478 29.1192 39.478C29.0038 39.478 28.9016 39.4998 28.8125 39.5435C28.7233 39.5855 28.6482 39.6528 28.587 39.7454C28.5276 39.838 28.4821 39.9595 28.4507 40.1098C28.4192 40.2601 28.4035 40.4427 28.4035 40.6577V41.3996C28.4035 41.5709 28.4131 41.7221 28.4323 41.8532C28.4533 41.9843 28.4839 42.0979 28.5241 42.194C28.5643 42.2884 28.6132 42.3662 28.6709 42.4273C28.7286 42.4885 28.795 42.5339 28.8701 42.5637C28.947 42.5916 29.0318 42.6056 29.1244 42.6056C29.2433 42.6056 29.3473 42.5829 29.4364 42.5374C29.5256 42.492 29.5998 42.4212 29.6593 42.3251C29.7204 42.2272 29.7659 42.1022 29.7956 41.9502C29.8253 41.7964 29.8401 41.6129 29.8401 41.3996Z" fill="#F5F7F6"/>
<path d="M27.3784 25.5149V25.7876L25.7976 29.332H25.2864L26.8646 25.9134H24.7987V25.5149H27.3784ZM30.3278 27.1194V27.7014C30.3278 28.0142 30.2998 28.2781 30.2439 28.4931C30.188 28.7081 30.1076 28.8811 30.0027 29.0122C29.8978 29.1433 29.7711 29.2385 29.6226 29.2979C29.4757 29.3556 29.3097 29.3845 29.1244 29.3845C28.9776 29.3845 28.8422 29.3661 28.7181 29.3294C28.594 29.2927 28.4821 29.2342 28.3825 29.1538C28.2846 29.0716 28.2007 28.965 28.1308 28.8339C28.0609 28.7028 28.0076 28.5438 27.9709 28.3568C27.9342 28.1698 27.9159 27.9513 27.9159 27.7014V27.1194C27.9159 26.8065 27.9438 26.5443 27.9998 26.3329C28.0574 26.1214 28.1387 25.9519 28.2436 25.8243C28.3484 25.6949 28.4743 25.6023 28.6211 25.5464C28.7696 25.4904 28.9357 25.4625 29.1192 25.4625C29.2678 25.4625 29.4041 25.4808 29.5282 25.5175C29.654 25.5525 29.7659 25.6093 29.8637 25.6879C29.9616 25.7648 30.0446 25.868 30.1128 25.9973C30.1827 26.1249 30.236 26.2813 30.2727 26.4666C30.3094 26.6518 30.3278 26.8694 30.3278 27.1194ZM29.8401 27.78V27.0381C29.8401 26.8668 29.8297 26.7165 29.8087 26.5872C29.7895 26.4561 29.7606 26.3442 29.7222 26.2516C29.6837 26.159 29.6348 26.0838 29.5754 26.0261C29.5177 25.9685 29.4504 25.9265 29.3735 25.9003C29.2983 25.8723 29.2136 25.8584 29.1192 25.8584C29.0038 25.8584 28.9016 25.8802 28.8125 25.9239C28.7233 25.9658 28.6482 26.0331 28.587 26.1258C28.5276 26.2184 28.4821 26.3399 28.4507 26.4902C28.4192 26.6405 28.4035 26.8231 28.4035 27.0381V27.78C28.4035 27.9513 28.4131 28.1025 28.4323 28.2336C28.4533 28.3646 28.4839 28.4782 28.5241 28.5744C28.5643 28.6688 28.6132 28.7465 28.6709 28.8077C28.7286 28.8689 28.795 28.9143 28.8701 28.944C28.947 28.972 29.0318 28.986 29.1244 28.986C29.2433 28.986 29.3473 28.9633 29.4364 28.9178C29.5256 28.8724 29.5998 28.8016 29.6593 28.7055C29.7204 28.6076 29.7659 28.4826 29.7956 28.3306C29.8253 28.1768 29.8401 27.9932 29.8401 27.78Z" fill="#F5F7F6"/>
<path d="M210.65 61.0425H192.425L174.825 48.187L157.379 61.959L139.316 55.3812L122.179 81.3923H104.124L86.3859 94.5154L69.0939 74.4738L51.4937 81.2057V114.833H210.764L210.65 61.0425Z" fill="url(#paint0_linear_479_2731)"/>
<path d="M86.3128 95.1396L68.9559 75.0169L51.6557 81.6353L51.3313 80.7755L69.2316 73.9301L86.4507 93.8987L103.97 80.9378H121.935L139.138 54.8213L157.298 61.4396L174.809 47.6108L192.571 60.5799H210.65V61.5045H192.271L174.833 48.7626L157.46 62.4778L139.503 55.9324L122.43 81.8543H104.27L86.3128 95.1396Z" fill="url(#paint1_linear_479_2731)"/>
<path d="M53.4563 81.2055C53.4563 82.2923 52.5804 83.1683 51.4935 83.1683C50.4067 83.1683 49.5308 82.2923 49.5308 81.2055C49.5308 80.1186 50.4067 79.2427 51.4935 79.2427C52.5804 79.2427 53.4563 80.1186 53.4563 81.2055Z" fill="#F5F7F6"/>
<path d="M71.0567 74.4736C71.0567 75.5604 70.1807 76.4364 69.0939 76.4364C68.0071 76.4364 67.1311 75.5604 67.1311 74.4736C67.1311 73.3868 68.0071 72.5108 69.0939 72.5108C70.1807 72.5027 71.0567 73.3868 71.0567 74.4736Z" fill="#F5F7F6"/>
<path d="M88.3487 94.515C88.3487 95.6019 87.4646 96.4778 86.3859 96.4778C85.2991 96.4778 84.4231 95.5938 84.4231 94.515C84.4231 93.4282 85.2991 92.5522 86.3859 92.5522C87.4727 92.5522 88.3487 93.4282 88.3487 94.515Z" fill="#F5F7F6"/>
<path d="M106.087 81.392C106.087 82.4788 105.211 83.3548 104.124 83.3548C103.037 83.3548 102.161 82.4707 102.161 81.392C102.161 80.3052 103.037 79.4292 104.124 79.4292C105.211 79.4292 106.087 80.3133 106.087 81.392Z" fill="#F5F7F6"/>
<path d="M124.149 81.392C124.149 82.4788 123.273 83.3548 122.186 83.3548C121.1 83.3548 120.224 82.4707 120.224 81.392C120.224 80.3052 121.108 79.4292 122.186 79.4292C123.265 79.4292 124.149 80.3133 124.149 81.392Z" fill="#F5F7F6"/>
<path d="M141.287 55.3812C141.287 56.4681 140.411 57.344 139.324 57.344C138.238 57.344 137.362 56.46 137.362 55.3812C137.362 54.2944 138.238 53.4185 139.324 53.4185C140.403 53.4185 141.287 54.2944 141.287 55.3812Z" fill="#F5F7F6"/>
<path d="M159.342 61.9589C159.342 63.0457 158.466 63.9217 157.379 63.9217C156.292 63.9217 155.416 63.0457 155.416 61.9589C155.416 60.872 156.292 59.9961 157.379 59.9961C158.466 59.9961 159.342 60.872 159.342 61.9589Z" fill="#F5F7F6"/>
<path d="M176.788 48.1869C176.788 49.2737 175.904 50.1497 174.825 50.1497C173.738 50.1497 172.862 49.2656 172.862 48.1869C172.862 47.1001 173.738 46.2241 174.825 46.2241C175.912 46.2241 176.788 47.1001 176.788 48.1869Z" fill="#F5F7F6"/>
<path d="M194.388 61.0424C194.388 62.1292 193.512 63.0052 192.425 63.0052C191.338 63.0052 190.462 62.1292 190.462 61.0424C190.462 59.9555 191.338 59.0796 192.425 59.0796C193.504 59.0796 194.388 59.9555 194.388 61.0424Z" fill="#F5F7F6"/>
<path d="M212.613 61.1151C212.613 62.202 211.729 63.0779 210.65 63.0779C209.563 63.0779 208.687 62.1939 208.687 61.1151C208.687 60.0283 209.563 59.1523 210.65 59.1523C211.729 59.1523 212.613 60.0364 212.613 61.1151Z" fill="#F5F7F6"/>
<defs>
<linearGradient id="paint0_linear_479_2731" x1="131.128" y1="125.163" x2="131.128" y2="59.6622" gradientUnits="userSpaceOnUse">
<stop offset="0.0101" stop-color="white" stop-opacity="0"/>
<stop offset="1" stop-color="white"/>
</linearGradient>
<linearGradient id="paint1_linear_479_2731" x1="51.6087" y1="71.3753" x2="176.256" y2="71.3753" gradientUnits="userSpaceOnUse">
<stop stop-color="#00EAD1"/>
<stop offset="0.1291" stop-color="#00E0D1"/>
<stop offset="0.3516" stop-color="#00C4CF"/>
<stop offset="0.6406" stop-color="#0097CE"/>
<stop offset="0.9819" stop-color="#0058CB"/>
<stop offset="0.9999" stop-color="#0055CB"/>
</linearGradient>
</defs>
</svg>
