<svg width="193" height="116" viewBox="0 0 193 116" fill="none" xmlns="http://www.w3.org/2000/svg">
<rect y="0.80957" width="192.224" height="114.361" rx="14.7953" fill="black"/>
<rect x="0.308235" y="1.11781" width="191.607" height="113.745" rx="14.4871" stroke="white" stroke-opacity="0.5" stroke-width="0.616471"/>
<path d="M31.8806 28.2842H31.4832V83.656H31.8806V28.2842Z" fill="white"/>
<path d="M165.699 83.4612H31.5642V83.8586H165.699V83.4612Z" fill="white"/>
<path d="M165.699 72.3821H31.5642V72.7795H165.699V72.3821Z" fill="white"/>
<path d="M165.699 61.311H31.5642V61.7085H165.699V61.311Z" fill="white"/>
<path d="M165.699 50.2397H31.5642V50.6372H165.699V50.2397Z" fill="white"/>
<path d="M165.699 39.1606H31.5642V39.5581H165.699V39.1606Z" fill="white"/>
<path d="M165.699 28.0894H31.5645V28.4868H165.699V28.0894Z" fill="white"/>
<path d="M48.6374 28.2842H48.24V83.656H48.6374V28.2842Z" fill="white"/>
<path d="M65.394 28.2842H64.9966V83.656H65.394V28.2842Z" fill="white"/>
<path d="M82.1508 28.2842H81.7534V83.656H82.1508V28.2842Z" fill="white"/>
<path d="M98.9074 28.2842H98.51V83.656H98.9074V28.2842Z" fill="white"/>
<path d="M115.664 28.2842H115.267V83.656H115.664V28.2842Z" fill="white"/>
<path d="M132.421 28.2842H132.023V83.656H132.421V28.2842Z" fill="white"/>
<path d="M149.178 28.2842H148.78V83.656H149.178V28.2842Z" fill="white"/>
<path d="M165.934 28.2842H165.537V83.656H165.934V28.2842Z" fill="white"/>
<path d="M32.132 61.0188L49.0023 49.0312L65.0858 60.816H82.3535L99.2319 37.8546L115.307 49.0312L132.583 37.6519H165.732V83.6477H31.7021L32.132 61.0188Z" fill="url(#paint0_linear_479_2826)"/>
<path d="M165.732 83.6475V48.9661H149.851L132.916 60.613L115.705 37.5786L99.0292 49.7771H82.3535L65.1507 72.8115L49.0023 60.613L31.7833 72.5358L31.7021 83.6475H165.732Z" fill="url(#paint1_linear_479_2826)"/>
<path d="M36.3421 88.1904V86.5307H36.6511V88.1904C36.6511 88.3449 36.6195 88.4753 36.5562 88.5815C36.4928 88.6878 36.4054 88.7688 36.2938 88.8246C36.1832 88.8793 36.0561 88.9067 35.9122 88.9067C35.7684 88.9067 35.6407 88.882 35.5291 88.8327C35.4175 88.7833 35.33 88.7082 35.2667 88.6073C35.2034 88.5064 35.1717 88.3792 35.1717 88.2258H35.4824C35.4824 88.3245 35.5007 88.4055 35.5372 88.4688C35.5737 88.5322 35.6241 88.5788 35.6885 88.6089C35.754 88.6389 35.8285 88.654 35.9122 88.654C35.9938 88.654 36.0668 88.6368 36.1312 88.6025C36.1966 88.567 36.2482 88.515 36.2857 88.4463C36.3233 88.3766 36.3421 88.2912 36.3421 88.1904ZM38.0098 86.7383L37.2339 88.8745H36.9168L37.8102 86.5307H38.0146L38.0098 86.7383ZM38.6602 88.8745L37.8826 86.7383L37.8778 86.5307H38.0822L38.9789 88.8745H38.6602ZM38.6199 88.0068V88.2612H37.3031V88.0068H38.6199ZM41.0958 86.5307V88.8745H40.7835L39.6035 87.0667V88.8745H39.2928V86.5307H39.6035L40.7883 88.3433V86.5307H41.0958Z" fill="#F5F7F6"/>
<path d="M52.7717 86.5307V88.8745H52.461V86.5307H52.7717ZM53.7537 87.5851V87.8394H52.7041V87.5851H53.7537ZM53.913 86.5307V86.785H52.7041V86.5307H53.913ZM55.7723 88.6218V88.8745H54.5312V88.6218H55.7723ZM54.594 86.5307V88.8745H54.2833V86.5307H54.594ZM55.6081 87.5384V87.7911H54.5312V87.5384H55.6081ZM55.7562 86.5307V86.785H54.5312V86.5307H55.7562ZM56.9926 87.7782H56.3986L56.3953 87.5287H56.9346C57.0237 87.5287 57.1015 87.5137 57.168 87.4837C57.2346 87.4536 57.2861 87.4107 57.3226 87.3549C57.3601 87.298 57.3789 87.2304 57.3789 87.152C57.3789 87.0662 57.3623 86.9964 57.329 86.9428C57.2968 86.888 57.2469 86.8483 57.1793 86.8236C57.1128 86.7979 57.028 86.785 56.925 86.785H56.4678V88.8745H56.1571V86.5307H56.925C57.0452 86.5307 57.1525 86.543 57.2469 86.5677C57.3414 86.5913 57.4213 86.6289 57.4868 86.6804C57.5533 86.7308 57.6037 86.7952 57.6381 86.8735C57.6724 86.9519 57.6896 87.0458 57.6896 87.1553C57.6896 87.2518 57.6649 87.3393 57.6156 87.4177C57.5662 87.4949 57.4975 87.5582 57.4095 87.6076C57.3226 87.657 57.2206 87.6886 57.1036 87.7026L56.9926 87.7782ZM56.9781 88.8745H56.2762L56.4517 88.6218H56.9781C57.0768 88.6218 57.1605 88.6046 57.2292 88.5703C57.299 88.5359 57.3521 88.4876 57.3886 88.4254C57.4251 88.3621 57.4433 88.2875 57.4433 88.2016C57.4433 88.1147 57.4277 88.0396 57.3966 87.9763C57.3655 87.9129 57.3167 87.8641 57.2501 87.8298C57.1836 87.7954 57.0977 87.7782 56.9926 87.7782H56.5499L56.5531 87.5287H57.1584L57.2244 87.6189C57.3371 87.6285 57.4326 87.6607 57.5109 87.7155C57.5893 87.7691 57.6488 87.8378 57.6896 87.9215C57.7315 88.0052 57.7524 88.0975 57.7524 88.1984C57.7524 88.3444 57.7202 88.4678 57.6558 88.5687C57.5925 88.6685 57.5029 88.7447 57.387 88.7972C57.2711 88.8488 57.1348 88.8745 56.9781 88.8745Z" fill="#F5F7F6"/>
<path d="M70.4855 86.5307H70.7865L71.5544 88.4415L72.3206 86.5307H72.6233L71.6703 88.8745H71.4353L70.4855 86.5307ZM70.3873 86.5307H70.6529L70.6964 87.9602V88.8745H70.3873V86.5307ZM72.4543 86.5307H72.7199V88.8745H72.4108V87.9602L72.4543 86.5307ZM74.1622 86.7383L73.3863 88.8745H73.0692L73.9626 86.5307H74.1671L74.1622 86.7383ZM74.8126 88.8745L74.0351 86.7383L74.0302 86.5307H74.2347L75.1313 88.8745H74.8126ZM74.7723 88.0068V88.2612H73.4555V88.0068H74.7723ZM75.4452 86.5307H76.2212C76.3972 86.5307 76.5458 86.5575 76.6671 86.6112C76.7894 86.6648 76.8822 86.7442 76.9456 86.8494C77.0099 86.9535 77.0421 87.0817 77.0421 87.2341C77.0421 87.3415 77.0201 87.4397 76.9761 87.5287C76.9332 87.6167 76.871 87.6919 76.7894 87.7541C76.7089 87.8153 76.6123 87.8609 76.4996 87.8909L76.4127 87.9247H75.6835L75.6803 87.672H76.2308C76.3424 87.672 76.4353 87.6527 76.5093 87.614C76.5834 87.5743 76.6392 87.5212 76.6767 87.4547C76.7143 87.3881 76.7331 87.3146 76.7331 87.2341C76.7331 87.144 76.7154 87.0651 76.6799 86.9975C76.6445 86.9299 76.5887 86.8778 76.5125 86.8414C76.4374 86.8038 76.3403 86.785 76.2212 86.785H75.7559V88.8745H75.4452V86.5307ZM76.8152 88.8745L76.2453 87.8121L76.5689 87.8104L77.1468 88.8552V88.8745H76.8152Z" fill="#F5F7F6"/>
<path d="M88.3577 86.7383L87.5818 88.8745H87.2647L88.1581 86.5307H88.3626L88.3577 86.7383ZM89.0081 88.8745L88.2306 86.7383L88.2257 86.5307H88.4302L89.3268 88.8745H89.0081ZM88.9679 88.0068V88.2612H87.651V88.0068H88.9679ZM90.5052 87.9553H89.879V87.7026H90.5052C90.6265 87.7026 90.7247 87.6833 90.7998 87.6446C90.8749 87.606 90.9296 87.5523 90.964 87.4837C90.9994 87.415 91.0171 87.3366 91.0171 87.2486C91.0171 87.1681 90.9994 87.0925 90.964 87.0216C90.9296 86.9508 90.8749 86.8939 90.7998 86.851C90.7247 86.807 90.6265 86.785 90.5052 86.785H89.9514V88.8745H89.6407V86.5307H90.5052C90.6823 86.5307 90.832 86.5612 90.9543 86.6224C91.0767 86.6836 91.1695 86.7684 91.2328 86.8768C91.2961 86.9841 91.3278 87.107 91.3278 87.2454C91.3278 87.3957 91.2961 87.5239 91.2328 87.6301C91.1695 87.7364 91.0767 87.8174 90.9543 87.8732C90.832 87.928 90.6823 87.9553 90.5052 87.9553ZM91.7206 86.5307H92.4965C92.6725 86.5307 92.8211 86.5575 92.9424 86.6112C93.0648 86.6648 93.1576 86.7442 93.2209 86.8494C93.2853 86.9535 93.3175 87.0817 93.3175 87.2341C93.3175 87.3415 93.2955 87.4397 93.2515 87.5287C93.2086 87.6167 93.1463 87.6919 93.0648 87.7541C92.9843 87.8153 92.8877 87.8609 92.775 87.8909L92.6881 87.9247H91.9588L91.9556 87.672H92.5062C92.6178 87.672 92.7106 87.6527 92.7847 87.614C92.8587 87.5743 92.9145 87.5212 92.9521 87.4547C92.9896 87.3881 93.0084 87.3146 93.0084 87.2341C93.0084 87.144 92.9907 87.0651 92.9553 86.9975C92.9199 86.9299 92.8641 86.8778 92.7879 86.8414C92.7128 86.8038 92.6156 86.785 92.4965 86.785H92.0313V88.8745H91.7206V86.5307ZM93.0905 88.8745L92.5207 87.8121L92.8442 87.8104L93.4221 88.8552V88.8745H93.0905Z" fill="#F5F7F6"/>
<path d="M106.339 86.5307H106.64L107.408 88.4415L108.174 86.5307H108.477L107.524 88.8745H107.289L106.339 86.5307ZM106.241 86.5307H106.506L106.55 87.9602V88.8745H106.241V86.5307ZM108.308 86.5307H108.573V88.8745H108.264V87.9602L108.308 86.5307ZM110.016 86.7383L109.24 88.8745H108.923L109.816 86.5307H110.021L110.016 86.7383ZM110.666 88.8745L109.889 86.7383L109.884 86.5307H110.088L110.985 88.8745H110.666ZM110.626 88.0068V88.2612H109.309V88.0068H110.626ZM111.255 86.5307L111.864 87.7074L112.474 86.5307H112.826L112.018 87.9988V88.8745H111.708V87.9988L110.9 86.5307H111.255Z" fill="#F5F7F6"/>
<path d="M124.327 88.1904V86.5307H124.636V88.1904C124.636 88.3449 124.604 88.4753 124.541 88.5815C124.478 88.6878 124.39 88.7688 124.279 88.8246C124.168 88.8793 124.041 88.9067 123.897 88.9067C123.753 88.9067 123.626 88.882 123.514 88.8327C123.402 88.7833 123.315 88.7082 123.252 88.6073C123.188 88.5064 123.157 88.3792 123.157 88.2258H123.467C123.467 88.3245 123.486 88.4055 123.522 88.4688C123.559 88.5322 123.609 88.5788 123.673 88.6089C123.739 88.6389 123.813 88.654 123.897 88.654C123.979 88.654 124.052 88.6368 124.116 88.6025C124.182 88.567 124.233 88.515 124.271 88.4463C124.308 88.3766 124.327 88.2912 124.327 88.1904ZM126.503 86.5307H126.812V88.1163C126.812 88.2923 126.773 88.4388 126.695 88.5558C126.617 88.6728 126.512 88.7608 126.383 88.8198C126.254 88.8777 126.114 88.9067 125.962 88.9067C125.804 88.9067 125.66 88.8777 125.531 88.8198C125.403 88.7608 125.302 88.6728 125.227 88.5558C125.153 88.4388 125.116 88.2923 125.116 88.1163V86.5307H125.423V88.1163C125.423 88.2386 125.446 88.3395 125.491 88.4189C125.536 88.4984 125.599 88.5574 125.679 88.596C125.761 88.6347 125.855 88.654 125.962 88.654C126.071 88.654 126.165 88.6347 126.246 88.596C126.327 88.5574 126.391 88.4984 126.436 88.4189C126.481 88.3395 126.503 88.2386 126.503 88.1163V86.5307ZM129.103 86.5307V88.8745H128.791L127.611 87.0667V88.8745H127.3V86.5307H127.611L128.796 88.3433V86.5307H129.103Z" fill="#F5F7F6"/>
<path d="M142.254 88.1904V86.5307H142.563V88.1904C142.563 88.3449 142.531 88.4753 142.468 88.5815C142.404 88.6878 142.317 88.7688 142.205 88.8246C142.095 88.8793 141.968 88.9067 141.824 88.9067C141.68 88.9067 141.552 88.882 141.441 88.8327C141.329 88.7833 141.242 88.7082 141.178 88.6073C141.115 88.5064 141.083 88.3792 141.083 88.2258H141.394C141.394 88.3245 141.412 88.4055 141.449 88.4688C141.485 88.5322 141.536 88.5788 141.6 88.6089C141.666 88.6389 141.74 88.654 141.824 88.654C141.905 88.654 141.978 88.6368 142.043 88.6025C142.108 88.567 142.16 88.515 142.197 88.4463C142.235 88.3766 142.254 88.2912 142.254 88.1904ZM144.43 86.5307H144.739V88.1163C144.739 88.2923 144.7 88.4388 144.622 88.5558C144.543 88.6728 144.439 88.7608 144.309 88.8198C144.181 88.8777 144.041 88.9067 143.889 88.9067C143.73 88.9067 143.587 88.8777 143.458 88.8198C143.33 88.7608 143.229 88.6728 143.154 88.5558C143.079 88.4388 143.042 88.2923 143.042 88.1163V86.5307H143.35V88.1163C143.35 88.2386 143.372 88.3395 143.418 88.4189C143.463 88.4984 143.525 88.5574 143.606 88.596C143.687 88.6347 143.782 88.654 143.889 88.654C143.998 88.654 144.092 88.6347 144.173 88.596C144.254 88.5574 144.317 88.4984 144.362 88.4189C144.408 88.3395 144.43 88.2386 144.43 88.1163V86.5307ZM146.648 88.6218V88.8745H145.476V88.6218H146.648ZM145.538 86.5307V88.8745H145.227V86.5307H145.538Z" fill="#F5F7F6"/>
<path d="M159.24 86.7383L158.464 88.8745H158.147L159.041 86.5307H159.245L159.24 86.7383ZM159.891 88.8745L159.113 86.7383L159.108 86.5307H159.313L160.209 88.8745H159.891ZM159.85 88.0068V88.2612H158.534V88.0068H159.85ZM161.835 86.5307H162.144V88.1163C162.144 88.2923 162.105 88.4388 162.027 88.5558C161.949 88.6728 161.844 88.7608 161.715 88.8198C161.586 88.8777 161.446 88.9067 161.294 88.9067C161.136 88.9067 160.992 88.8777 160.863 88.8198C160.735 88.7608 160.634 88.6728 160.559 88.5558C160.485 88.4388 160.448 88.2923 160.448 88.1163V86.5307H160.755V88.1163C160.755 88.2386 160.778 88.3395 160.823 88.4189C160.868 88.4984 160.931 88.5574 161.011 88.596C161.093 88.6347 161.187 88.654 161.294 88.654C161.403 88.654 161.497 88.6347 161.578 88.596C161.659 88.5574 161.723 88.4984 161.768 88.4189C161.813 88.3395 161.835 88.2386 161.835 88.1163V86.5307ZM164.364 87.7074V88.5654C164.335 88.6084 164.289 88.6567 164.226 88.7103C164.163 88.7629 164.075 88.809 163.963 88.8488C163.853 88.8874 163.71 88.9067 163.535 88.9067C163.392 88.9067 163.261 88.882 163.141 88.8327C163.022 88.7822 162.918 88.7092 162.83 88.6137C162.743 88.5171 162.676 88.4002 162.627 88.2628C162.58 88.1244 162.556 87.9677 162.556 87.7927V87.6108C162.556 87.4359 162.577 87.2798 162.618 87.1424C162.659 87.005 162.721 86.8886 162.801 86.7931C162.882 86.6965 162.98 86.6235 163.097 86.5741C163.214 86.5237 163.348 86.4985 163.5 86.4985C163.679 86.4985 163.829 86.5296 163.949 86.5918C164.07 86.653 164.165 86.7378 164.232 86.8462C164.301 86.9546 164.345 87.078 164.364 87.2164H164.054C164.04 87.1317 164.012 87.0544 163.97 86.9846C163.929 86.9149 163.871 86.8591 163.794 86.8172C163.718 86.7743 163.62 86.7528 163.5 86.7528C163.391 86.7528 163.298 86.7727 163.218 86.8124C163.139 86.8521 163.073 86.909 163.022 86.983C162.97 87.0571 162.932 87.1467 162.906 87.2518C162.881 87.357 162.869 87.4756 162.869 87.6076V87.7927C162.869 87.928 162.884 88.0487 162.915 88.1549C162.948 88.2612 162.993 88.3519 163.052 88.427C163.111 88.501 163.182 88.5574 163.263 88.596C163.346 88.6347 163.437 88.654 163.537 88.654C163.647 88.654 163.737 88.6448 163.806 88.6266C163.874 88.6073 163.928 88.5848 163.967 88.559C164.005 88.5322 164.035 88.5069 164.055 88.4833V87.9585H163.513V87.7074H164.364Z" fill="#F5F7F6"/>
<path d="M27.6205 82.636V82.9933C27.6205 83.1854 27.6033 83.3475 27.569 83.4795C27.5346 83.6115 27.4853 83.7177 27.4209 83.7982C27.3565 83.8787 27.2787 83.9372 27.1874 83.9737C27.0973 84.0091 26.9953 84.0268 26.8816 84.0268C26.7914 84.0268 26.7083 84.0156 26.6321 83.993C26.5559 83.9705 26.4872 83.9345 26.426 83.8852C26.3659 83.8347 26.3144 83.7693 26.2715 83.6888C26.2285 83.6083 26.1958 83.5106 26.1733 83.3958C26.1507 83.281 26.1395 83.1468 26.1395 82.9933V82.636C26.1395 82.4439 26.1566 82.2829 26.191 82.153C26.2264 82.0232 26.2763 81.9191 26.3407 81.8407C26.4051 81.7613 26.4824 81.7044 26.5725 81.6701C26.6637 81.6358 26.7657 81.6186 26.8784 81.6186C26.9696 81.6186 27.0533 81.6299 27.1295 81.6524C27.2068 81.6739 27.2754 81.7087 27.3355 81.757C27.3956 81.8042 27.4466 81.8676 27.4885 81.947C27.5314 82.0253 27.5641 82.1214 27.5867 82.2351C27.6092 82.3489 27.6205 82.4825 27.6205 82.636ZM27.3211 83.0416V82.5861C27.3211 82.4809 27.3146 82.3886 27.3017 82.3092C27.2899 82.2287 27.2722 82.16 27.2486 82.1031C27.225 82.0463 27.195 82.0001 27.1585 81.9647C27.1231 81.9293 27.0817 81.9035 27.0345 81.8874C26.9884 81.8702 26.9363 81.8617 26.8784 81.8617C26.8075 81.8617 26.7448 81.8751 26.69 81.9019C26.6353 81.9277 26.5891 81.969 26.5516 82.0259C26.5151 82.0827 26.4872 82.1573 26.4679 82.2496C26.4485 82.3419 26.4389 82.4541 26.4389 82.5861V83.0416C26.4389 83.1468 26.4448 83.2396 26.4566 83.3201C26.4695 83.4006 26.4883 83.4704 26.5129 83.5294C26.5376 83.5874 26.5677 83.6351 26.6031 83.6727C26.6385 83.7102 26.6793 83.7381 26.7254 83.7564C26.7727 83.7736 26.8247 83.7821 26.8816 83.7821C26.9546 83.7821 27.0184 83.7682 27.0731 83.7403C27.1279 83.7124 27.1735 83.6689 27.21 83.6099C27.2475 83.5498 27.2754 83.4731 27.2937 83.3797C27.3119 83.2853 27.3211 83.1726 27.3211 83.0416Z" fill="#F5F7F6"/>
<path d="M27.1279 71.4765V73.8333H26.8301V71.8484L26.2296 72.0673V71.7985L27.0812 71.4765H27.1279ZM29.4749 72.4746V72.832C29.4749 73.0241 29.4578 73.1861 29.4234 73.3181C29.3891 73.4501 29.3397 73.5564 29.2753 73.6369C29.2109 73.7173 29.1331 73.7758 29.0419 73.8123C28.9518 73.8477 28.8498 73.8654 28.7361 73.8654C28.6459 73.8654 28.5627 73.8542 28.4865 73.8316C28.4103 73.8091 28.3417 73.7732 28.2805 73.7238C28.2204 73.6733 28.1689 73.6079 28.1259 73.5274C28.083 73.4469 28.0503 73.3492 28.0277 73.2344C28.0052 73.1196 27.9939 72.9854 27.9939 72.832V72.4746C27.9939 72.2825 28.0111 72.1215 28.0455 71.9917C28.0809 71.8618 28.1308 71.7577 28.1952 71.6794C28.2596 71.5999 28.3368 71.5431 28.427 71.5087C28.5182 71.4744 28.6202 71.4572 28.7328 71.4572C28.8241 71.4572 28.9078 71.4685 28.984 71.491C29.0612 71.5125 29.1299 71.5474 29.19 71.5956C29.2501 71.6429 29.3011 71.7062 29.3429 71.7856C29.3859 71.8639 29.4186 71.96 29.4411 72.0738C29.4637 72.1875 29.4749 72.3211 29.4749 72.4746ZM29.1755 72.8803V72.4247C29.1755 72.3195 29.1691 72.2272 29.1562 72.1478C29.1444 72.0673 29.1267 71.9986 29.1031 71.9418C29.0795 71.8849 29.0494 71.8387 29.0129 71.8033C28.9775 71.7679 28.9362 71.7421 28.889 71.726C28.8428 71.7089 28.7908 71.7003 28.7328 71.7003C28.662 71.7003 28.5992 71.7137 28.5445 71.7405C28.4898 71.7663 28.4436 71.8076 28.406 71.8645C28.3696 71.9214 28.3417 71.9959 28.3223 72.0882C28.303 72.1805 28.2934 72.2927 28.2934 72.4247V72.8803C28.2934 72.9854 28.2993 73.0783 28.3111 73.1588C28.324 73.2392 28.3427 73.309 28.3674 73.368C28.3921 73.426 28.4221 73.4737 28.4576 73.5113C28.493 73.5489 28.5338 73.5768 28.5799 73.595C28.6271 73.6122 28.6792 73.6208 28.7361 73.6208C28.809 73.6208 28.8729 73.6068 28.9276 73.5789C28.9824 73.551 29.028 73.5075 29.0645 73.4485C29.102 73.3884 29.1299 73.3117 29.1482 73.2183C29.1664 73.1239 29.1755 73.0112 29.1755 72.8803Z" fill="#F5F7F6"/>
<path d="M27.1279 59.9577V62.3145H26.8301V60.3296L26.2296 60.5485V60.2797L27.0812 59.9577H27.1279ZM28.9824 59.9577V62.3145H28.6845V60.3296L28.0841 60.5485V60.2797L28.9357 59.9577H28.9824Z" fill="#F5F7F6"/>
<path d="M27.1279 49.1999V51.5566H26.8301V49.5718L26.2296 49.7907V49.5219L27.0812 49.1999H27.1279ZM29.5393 51.312V51.5566H28.0052V51.3425L28.7731 50.4877C28.8675 50.3826 28.9405 50.2935 28.992 50.2205C29.0446 50.1465 29.0811 50.0805 29.1015 50.0225C29.1229 49.9635 29.1337 49.9034 29.1337 49.8422C29.1337 49.7649 29.1176 49.6952 29.0854 49.6329C29.0543 49.5696 29.0081 49.5192 28.9469 49.4816C28.8858 49.4441 28.8117 49.4253 28.7248 49.4253C28.6207 49.4253 28.5338 49.4457 28.464 49.4865C28.3953 49.5262 28.3438 49.582 28.3095 49.6539C28.2751 49.7258 28.2579 49.8084 28.2579 49.9018H27.9601C27.9601 49.7698 27.9891 49.649 28.0471 49.5396C28.105 49.4301 28.1909 49.3432 28.3046 49.2788C28.4184 49.2133 28.5584 49.1806 28.7248 49.1806C28.8729 49.1806 28.9995 49.2069 29.1047 49.2595C29.2099 49.311 29.2904 49.384 29.3462 49.4784C29.403 49.5718 29.4315 49.6812 29.4315 49.8068C29.4315 49.8755 29.4197 49.9452 29.3961 50.0161C29.3735 50.0858 29.3419 50.1556 29.3011 50.2253C29.2614 50.2951 29.2147 50.3638 29.161 50.4314C29.1085 50.499 29.0521 50.5655 28.992 50.631L28.3642 51.312H29.5393Z" fill="#F5F7F6"/>
<path d="M27.1279 38.6604V41.0171H26.8301V39.0322L26.2296 39.2512V38.9823L27.0812 38.6604H27.1279ZM28.4382 39.6987H28.6507C28.7548 39.6987 28.8407 39.6815 28.9083 39.6472C28.977 39.6117 29.028 39.564 29.0612 39.5039C29.0956 39.4427 29.1127 39.374 29.1127 39.2978C29.1127 39.2077 29.0977 39.132 29.0677 39.0709C29.0376 39.0097 28.9925 38.9635 28.9324 38.9324C28.8724 38.9013 28.7962 38.8857 28.7039 38.8857C28.6202 38.8857 28.5461 38.9024 28.4817 38.9356C28.4184 38.9678 28.3685 39.014 28.332 39.0741C28.2966 39.1342 28.2789 39.205 28.2789 39.2866H27.9811C27.9811 39.1674 28.0111 39.0591 28.0712 38.9614C28.1313 38.8637 28.2156 38.7859 28.324 38.728C28.4334 38.67 28.5601 38.641 28.7039 38.641C28.8455 38.641 28.9695 38.6663 29.0757 38.7167C29.182 38.7661 29.2646 38.8401 29.3236 38.9389C29.3827 39.0365 29.4122 39.1583 29.4122 39.3043C29.4122 39.3633 29.3982 39.4266 29.3703 39.4942C29.3435 39.5608 29.3011 39.623 29.2431 39.681C29.1863 39.7389 29.1122 39.7867 29.021 39.8242C28.9298 39.8607 28.8203 39.879 28.6926 39.879H28.4382V39.6987ZM28.4382 39.9434V39.7647H28.6926C28.8418 39.7647 28.9652 39.7824 29.0628 39.8178C29.1605 39.8532 29.2372 39.9004 29.293 39.9595C29.3499 40.0185 29.3896 40.0834 29.4122 40.1542C29.4358 40.224 29.4476 40.2938 29.4476 40.3635C29.4476 40.473 29.4288 40.5701 29.3912 40.6549C29.3547 40.7397 29.3027 40.8116 29.2351 40.8706C29.1686 40.9296 29.0902 40.9742 29.0001 41.0042C28.9099 41.0343 28.8117 41.0493 28.7055 41.0493C28.6035 41.0493 28.5075 41.0348 28.4173 41.0058C28.3282 40.9768 28.2494 40.935 28.1807 40.8803C28.112 40.8245 28.0583 40.7563 28.0197 40.6758C27.9811 40.5943 27.9617 40.5014 27.9617 40.3973H28.2596C28.2596 40.4789 28.2773 40.5503 28.3127 40.6114C28.3492 40.6726 28.4007 40.7204 28.4672 40.7547C28.5348 40.788 28.6142 40.8046 28.7055 40.8046C28.7967 40.8046 28.875 40.789 28.9405 40.7579C29.007 40.7257 29.058 40.6774 29.0934 40.613C29.1299 40.5486 29.1482 40.4676 29.1482 40.37C29.1482 40.2723 29.1278 40.1923 29.087 40.1301C29.0462 40.0668 28.9883 40.0201 28.9131 39.99C28.8391 39.9589 28.7516 39.9434 28.6507 39.9434H28.4382Z" fill="#F5F7F6"/>
<path d="M27.1279 27.4069V29.7637H26.8301V27.7788L26.2296 27.9977V27.7289L27.0812 27.4069H27.1279ZM29.5876 28.9749V29.2196H27.8941V29.0441L28.9437 27.4198H29.1868L28.926 27.8899L28.2322 28.9749H29.5876ZM29.2608 27.4198V29.7637H28.963V27.4198H29.2608Z" fill="#F5F7F6"/>
<defs>
<linearGradient id="paint0_linear_479_2826" x1="98.7178" y1="81.6022" x2="98.7178" y2="19.5609" gradientUnits="userSpaceOnUse">
<stop stop-color="#27B7FF"/>
<stop offset="0.895833" stop-color="#F408AB"/>
</linearGradient>
<linearGradient id="paint1_linear_479_2826" x1="98.7178" y1="106.206" x2="98.7178" y2="41.0944" gradientUnits="userSpaceOnUse">
<stop offset="0.000116" stop-color="#0055CB"/>
<stop offset="0.3594" stop-color="#0077CE"/>
<stop offset="0.6484" stop-color="#0066FF"/>
<stop offset="0.8709" stop-color="#0066FF"/>
<stop offset="1" stop-color="#0066FF"/>
</linearGradient>
</defs>
</svg>
