<svg width="183" height="194" viewBox="0 0 183 194" fill="none" xmlns="http://www.w3.org/2000/svg">
<rect x="0.356201" y="0.491211" width="182.491" height="193.035" rx="14.7953" fill="black"/>
<rect x="0.664437" y="0.799446" width="181.875" height="192.418" rx="14.4871" stroke="white" stroke-opacity="0.5" stroke-width="0.616471"/>
<path d="M107.799 29.6899C101.01 29.6899 94.4405 30.5983 88.179 32.2691C81.6986 33.9967 75.575 36.5759 69.8975 39.8527C64.147 43.1781 58.8588 47.2253 54.1952 51.889C49.5315 56.5526 45.4843 61.8489 42.1508 67.5994C38.8659 73.2688 36.2948 79.4005 34.5672 85.8809C32.8964 92.1424 31.988 98.7121 31.988 105.501H40.8044C40.8044 99.5069 41.6073 93.6997 43.0916 88.16C44.6245 82.442 46.9036 77.024 49.8073 72.0197C52.7515 66.9424 56.3283 62.2707 60.4485 58.1504C64.5688 54.0302 69.2405 50.4534 74.3178 47.5092C79.3302 44.6055 84.7401 42.3264 90.4581 40.7935C95.9896 39.3092 101.805 38.5063 107.799 38.5063V29.6899Z" fill="url(#paint0_radial_479_2635)"/>
<path d="M90.4582 40.7936C84.7402 42.3265 79.3222 44.6056 74.3179 47.5092C69.2406 50.4534 64.5688 54.0302 60.4486 58.1505C56.3283 62.2707 52.7515 66.9425 49.8073 72.0198C46.9037 77.0322 44.6246 82.4421 43.0917 88.1601C41.6074 93.6916 40.8044 99.507 40.8044 105.501C40.8044 111.495 41.6074 117.302 43.0917 122.842C44.6246 128.56 46.9037 133.978 49.8073 138.982C52.7515 144.059 56.3283 148.731 60.4486 152.851L66.6776 146.622C63.0927 143.037 59.9944 138.99 57.4395 134.578C54.9171 130.23 52.9381 125.526 51.6079 120.554C50.3183 115.753 49.6208 110.7 49.6208 105.501C49.6208 100.294 50.3183 95.2489 51.6079 90.4473C52.9381 85.4836 54.9171 80.7794 57.4395 76.4239C59.9944 72.0117 63.1008 67.9644 66.6776 64.3795C70.2625 60.7946 74.3098 57.6963 78.722 55.1414C83.0694 52.619 87.7736 50.64 92.7454 49.3098C97.547 48.0202 102.6 47.3227 107.799 47.3227V38.5063C101.805 38.5063 95.9978 39.3093 90.4582 40.7936Z" fill="url(#paint1_linear_479_2635)"/>
<path d="M60.1159 92.7265C61.2433 88.5089 62.9222 84.5266 65.0634 80.8281C67.229 77.0891 69.8649 73.6501 72.9065 70.6086C75.948 67.5671 79.3869 64.9392 83.1259 62.7655C86.8163 60.6243 90.8068 58.9454 95.0244 57.818C99.104 56.7231 103.386 56.131 107.799 56.131V47.3228C102.592 47.3228 97.5468 48.0203 92.7452 49.3099C87.7815 50.64 83.0773 52.619 78.7218 55.1415C74.3096 57.6964 70.2624 60.8028 66.6774 64.3796C63.0925 67.9645 59.9942 72.0118 57.4393 76.424C54.9169 80.7713 52.9379 85.4755 51.6077 90.4474C50.3181 95.2489 49.6206 100.294 49.6206 105.501C49.6206 110.708 50.3181 115.753 51.6077 120.554C52.9379 125.518 54.9169 130.222 57.4393 134.578C59.9942 138.99 63.1006 143.037 66.6774 146.622C70.2624 150.207 74.3096 153.305 78.7218 155.86C83.0692 158.383 87.7734 160.362 92.7452 161.692C97.5549 162.981 102.6 163.679 107.799 163.679V154.871C103.378 154.871 99.104 154.279 95.0244 153.184C90.8068 152.056 86.8244 150.377 83.1259 148.236C79.3869 146.071 75.948 143.435 72.9065 140.393C69.8649 137.352 67.2371 133.913 65.0634 130.174C62.9222 126.483 61.2433 122.493 60.1159 118.275C59.0209 114.196 58.4288 109.913 58.4288 105.501C58.4288 101.081 59.0209 96.8062 60.1159 92.7265Z" fill="url(#paint2_radial_479_2635)"/>
<path d="M142.902 125.769C141.118 128.843 138.96 131.666 136.462 134.164C133.964 136.662 131.141 138.828 128.068 140.604C125.034 142.364 121.757 143.743 118.294 144.667C114.944 145.568 111.432 146.054 107.799 146.054C104.173 146.054 100.653 145.568 97.3036 144.667C93.8403 143.743 90.5636 142.364 87.5302 140.604C84.4562 138.82 81.6337 136.662 79.1356 134.164C76.6375 131.666 74.48 128.843 72.6957 125.769C70.9357 122.736 69.5568 119.459 68.6322 115.996C67.7319 112.646 67.2453 109.126 67.2453 105.501C67.2453 101.875 67.7319 98.3552 68.6322 95.0055C69.5568 91.5422 70.9357 88.2655 72.6957 85.2321C74.48 82.1581 76.6375 79.3356 79.1356 76.8375C81.6337 74.3394 84.4562 72.182 87.5302 70.3976C90.5636 68.6376 93.8403 67.2588 97.3036 66.3341C100.653 65.4338 104.173 64.9472 107.799 64.9472V56.1309C103.379 56.1309 99.1042 56.7229 95.0245 57.8179C90.8069 58.9453 86.8246 60.6242 83.1261 62.7654C79.387 64.931 75.9481 67.567 72.9066 70.6085C69.8651 73.65 67.2372 77.0889 65.0635 80.828C62.9223 84.5183 61.2434 88.5088 60.116 92.7264C59.021 96.8061 58.429 101.089 58.429 105.501C58.429 109.921 59.021 114.195 60.116 118.275C61.2434 122.493 62.9223 126.475 65.0635 130.174C67.2291 133.913 69.8651 137.352 72.9066 140.393C75.9481 143.435 79.387 146.062 83.1261 148.236C86.8164 150.377 90.8069 152.056 95.0245 153.184C99.1042 154.279 103.387 154.871 107.799 154.871C112.219 154.871 116.494 154.279 120.573 153.184C124.791 152.056 128.773 150.377 132.472 148.236C136.211 146.071 139.65 143.435 142.691 140.393C145.733 137.352 148.361 133.913 150.534 130.174L142.902 125.769Z" fill="url(#paint3_linear_479_2635)"/>
<path d="M139.536 105.501C139.536 108.34 139.155 111.089 138.449 113.717C137.719 116.426 136.641 118.989 135.27 121.365C133.875 123.774 132.18 125.98 130.233 127.935C128.278 129.89 126.072 131.585 123.663 132.98C121.287 134.359 118.724 135.437 116.015 136.159C113.395 136.865 110.646 137.246 107.799 137.246C104.96 137.246 102.211 136.865 99.5827 136.159C96.8737 135.429 94.3107 134.351 91.9343 132.98C89.5254 131.585 87.3193 129.89 85.3646 127.943C83.41 125.997 81.7148 123.774 80.3279 121.373C78.9491 118.997 77.8703 116.434 77.1485 113.725C76.4429 111.105 76.0616 108.356 76.0616 105.509C76.0616 102.67 76.4429 99.9206 77.1485 97.2928C77.8784 94.5838 78.9572 92.0208 80.3279 89.6444C81.7229 87.2355 83.4181 85.0294 85.3727 83.0747C87.3274 81.12 89.5335 79.4249 91.9424 78.0379C94.3189 76.6591 96.8818 75.5804 99.5908 74.8586C102.211 74.1529 104.96 73.7717 107.807 73.7717V64.9473C104.181 64.9473 100.661 65.4339 97.3117 66.3342C93.8484 67.2588 90.5717 68.6376 87.5383 70.3977C84.4643 72.182 81.6418 74.3395 79.1437 76.8376C76.6456 79.3357 74.4882 82.1582 72.7038 85.2322C70.9438 88.2656 69.565 91.5423 68.6403 95.0056C67.7401 98.3553 67.2534 101.867 67.2534 105.501C67.2534 109.126 67.7401 112.646 68.6403 115.996C69.565 119.459 70.9438 122.736 72.7038 125.769C74.4882 128.843 76.6456 131.666 79.1437 134.164C81.6418 136.662 84.4643 138.82 87.5383 140.604C90.5717 142.364 93.8484 143.743 97.3117 144.667C100.661 145.568 104.181 146.054 107.807 146.054C111.432 146.054 114.953 145.568 118.302 144.667C121.766 143.743 125.042 142.364 128.076 140.604C131.15 138.82 133.972 136.662 136.47 134.164C138.968 131.666 141.126 128.843 142.91 125.769C144.67 122.736 146.049 119.459 146.974 115.996C147.874 112.646 148.361 109.134 148.361 105.501H139.536V105.501Z" fill="url(#paint4_radial_479_2635)"/>
<path opacity="0.77" d="M145.505 104.925C144.776 102.216 143.697 99.6529 142.326 97.2765C140.931 94.8676 139.236 92.6615 137.289 90.7068C135.335 88.7521 133.129 87.057 130.72 85.67C128.343 84.2912 125.78 83.2125 123.071 82.4906C120.452 81.785 117.702 81.4038 114.855 81.4038C112.016 81.4038 109.267 81.785 106.639 82.4906C103.93 83.2206 101.367 84.2993 98.9906 85.67C96.5817 87.0651 94.3756 88.7602 92.4209 90.7068C90.4662 92.6615 88.7711 94.8676 87.3842 97.2765C86.0053 99.6529 84.9266 102.216 84.2048 104.925C83.4991 107.545 83.1179 110.294 83.1179 113.141C83.1179 115.98 83.4991 118.729 84.2048 121.357C84.9347 124.066 86.0134 126.629 87.3842 129.006C88.7792 131.414 90.4743 133.621 92.4209 135.575C94.3675 137.53 96.5898 139.225 98.9906 140.612C101.367 141.991 103.93 143.07 106.639 143.791C109.259 144.497 112.008 144.878 114.855 144.878C117.694 144.878 120.443 144.497 123.071 143.791C125.78 143.061 128.343 141.983 130.72 140.612C133.129 139.217 135.335 137.522 137.289 135.567C139.244 133.612 140.939 131.406 142.326 128.997C143.705 126.621 144.784 124.058 145.505 121.349C146.211 118.729 146.592 115.98 146.592 113.133C146.592 110.302 146.211 107.553 145.505 104.925Z" fill="url(#paint5_radial_479_2635)"/>
<path d="M138.449 97.2847C137.719 94.5758 136.64 92.0128 135.27 89.6363C133.875 87.2274 132.18 85.0213 130.233 83.0667C128.278 81.112 126.072 79.4168 123.663 78.0299C121.287 76.6511 118.724 75.5724 116.015 74.8505C113.395 74.1449 110.646 73.7637 107.799 73.7637C104.96 73.7637 102.211 74.1449 99.5826 74.8505C96.8737 75.5805 94.3107 76.6592 91.9342 78.0299C89.5254 79.4249 87.3192 81.1201 85.3646 83.0667C83.4099 85.0213 81.7147 87.2274 80.3197 89.6363C78.9409 92.0128 77.8622 94.5758 77.1403 97.2847C76.4347 99.9045 76.0535 102.654 76.0535 105.501C76.0535 108.34 76.4347 111.089 77.1403 113.717C77.8703 116.426 78.949 118.989 80.3197 121.365C81.7147 123.774 83.4099 125.98 85.3565 127.935C87.303 129.89 89.5172 131.585 91.9261 132.972C94.3026 134.351 96.8655 135.429 99.5745 136.151C102.194 136.857 104.944 137.238 107.791 137.238C110.629 137.238 113.379 136.857 116.007 136.151C118.716 135.421 121.279 134.343 123.655 132.972C126.064 131.577 128.27 129.882 130.225 127.927C132.18 125.972 133.875 123.766 135.262 121.357C136.64 118.981 137.719 116.418 138.441 113.709C139.147 111.089 139.528 108.34 139.528 105.493C139.536 102.662 139.155 99.9126 138.449 97.2847Z" fill="url(#paint6_linear_479_2635)"/>
<path d="M131.287 99.2066C130.728 97.1302 129.901 95.1674 128.846 93.3506C127.775 91.5095 126.478 89.8144 124.985 88.3139C123.485 86.8134 121.798 85.5238 119.949 84.4532C118.132 83.3988 116.169 82.5715 114.093 82.0119C112.081 81.4766 109.972 81.1846 107.799 81.1846C105.625 81.1846 103.516 81.4766 101.505 82.0119C99.4286 82.5715 97.4658 83.3988 95.649 84.4532C93.8078 85.5238 92.1127 86.8215 90.6122 88.3139C89.1117 89.8144 87.8221 91.5014 86.7515 93.3506C85.6971 95.1674 84.8698 97.1302 84.3102 99.2066C83.7749 101.218 83.4829 103.327 83.4829 105.5C83.4829 107.674 83.7749 109.783 84.3102 111.794C84.8698 113.871 85.6971 115.834 86.7515 117.65C87.8221 119.491 89.1199 121.187 90.6122 122.687C92.1127 124.188 93.7997 125.477 95.649 126.548C97.4658 127.602 99.4286 128.429 101.505 128.989C103.516 129.524 105.625 129.816 107.799 129.816C109.972 129.816 112.081 129.524 114.093 128.989C116.169 128.429 118.132 127.602 119.949 126.548C121.79 125.477 123.485 124.179 124.985 122.687C126.486 121.187 127.775 119.5 128.846 117.65C129.901 115.834 130.728 113.871 131.287 111.794C131.823 109.783 132.115 107.674 132.115 105.5C132.115 103.327 131.823 101.218 131.287 99.2066Z" fill="#F5F7F6"/>
<path d="M131.231 36.2922L135.197 34.0293L131.231 31.7583V33.8022H112.057V34.2483H131.231V36.2922Z" fill="#F5F7F6"/>
<path d="M131.231 42.6916H112.057V43.1377H131.231V45.0762L135.197 42.8052L131.231 40.5342V42.6916Z" fill="#F5F7F6"/>
<path d="M131.231 51.5486H112.057V51.9866H131.231V54.0386L135.197 51.7676L131.231 49.4966V51.5486Z" fill="#F5F7F6"/>
<path d="M131.231 60.9084H112.057V61.3545H131.231V63.1794L135.197 60.9084L131.231 58.6455V60.9084Z" fill="#F5F7F6"/>
<path d="M131.231 69.9438H112.057V70.3899H131.231V72.4419L135.197 70.1709L131.231 67.8999V69.9438Z" fill="#F5F7F6"/>
<path d="M141.635 67.3769V67.6543L140.026 71.2607H139.506L141.112 67.7824H139.01V67.3769H141.635ZM142.822 69.4122L142.427 69.3108L142.622 67.3769H144.614V67.833H143.04L142.923 68.8894C142.994 68.8485 143.084 68.8102 143.192 68.7747C143.303 68.7391 143.429 68.7213 143.571 68.7213C143.751 68.7213 143.912 68.7524 144.054 68.8147C144.196 68.8751 144.317 68.9623 144.417 69.0761C144.518 69.1899 144.595 69.3268 144.649 69.4869C144.702 69.6469 144.729 69.8256 144.729 70.023C144.729 70.2098 144.703 70.3814 144.652 70.5379C144.602 70.6944 144.526 70.8313 144.425 70.9486C144.323 71.0642 144.195 71.154 144.041 71.2181C143.888 71.2821 143.707 71.3141 143.499 71.3141C143.343 71.3141 143.194 71.2928 143.054 71.2501C142.915 71.2056 142.791 71.1389 142.68 71.05C142.572 70.9593 142.483 70.8473 142.414 70.7139C142.346 70.5788 142.303 70.4205 142.285 70.2391H142.755C142.776 70.3849 142.819 70.5076 142.883 70.6072C142.947 70.7068 143.031 70.7824 143.134 70.8339C143.239 70.8837 143.36 70.9086 143.499 70.9086C143.617 70.9086 143.721 70.8882 143.811 70.8473C143.902 70.8064 143.978 70.7477 144.041 70.6712C144.103 70.5948 144.15 70.5023 144.182 70.3938C144.216 70.2853 144.233 70.1635 144.233 70.0284C144.233 69.9057 144.216 69.7919 144.182 69.6869C144.148 69.582 144.098 69.4904 144.03 69.4122C143.964 69.3339 143.883 69.2735 143.787 69.2308C143.691 69.1863 143.581 69.1641 143.456 69.1641C143.291 69.1641 143.166 69.1863 143.08 69.2308C142.997 69.2753 142.911 69.3357 142.822 69.4122ZM145.228 68.3292V68.1238C145.228 67.9762 145.26 67.8419 145.324 67.721C145.388 67.6001 145.479 67.5032 145.598 67.4303C145.718 67.3574 145.859 67.3209 146.023 67.3209C146.19 67.3209 146.332 67.3574 146.449 67.4303C146.569 67.5032 146.66 67.6001 146.724 67.721C146.788 67.8419 146.82 67.9762 146.82 68.1238V68.3292C146.82 68.4732 146.788 68.6057 146.724 68.7267C146.662 68.8476 146.571 68.9445 146.452 69.0174C146.335 69.0903 146.193 69.1268 146.028 69.1268C145.863 69.1268 145.719 69.0903 145.598 69.0174C145.479 68.9445 145.388 68.8476 145.324 68.7267C145.26 68.6057 145.228 68.4732 145.228 68.3292ZM145.598 68.1238V68.3292C145.598 68.411 145.614 68.4884 145.644 68.5613C145.676 68.6342 145.724 68.6938 145.788 68.74C145.852 68.7844 145.932 68.8067 146.028 68.8067C146.124 68.8067 146.203 68.7844 146.265 68.74C146.328 68.6938 146.374 68.6342 146.404 68.5613C146.434 68.4884 146.449 68.411 146.449 68.3292V68.1238C146.449 68.0402 146.433 67.962 146.401 67.8891C146.371 67.8144 146.324 67.7548 146.26 67.7103C146.198 67.6641 146.119 67.641 146.023 67.641C145.928 67.641 145.849 67.6641 145.785 67.7103C145.723 67.7548 145.676 67.8144 145.644 67.8891C145.614 67.962 145.598 68.0402 145.598 68.1238ZM147.119 70.5165V70.3085C147.119 70.1626 147.151 70.0293 147.215 69.9083C147.279 69.7874 147.371 69.6905 147.49 69.6176C147.609 69.5447 147.75 69.5082 147.914 69.5082C148.081 69.5082 148.223 69.5447 148.341 69.6176C148.46 69.6905 148.551 69.7874 148.615 69.9083C148.679 70.0293 148.711 70.1626 148.711 70.3085V70.5165C148.711 70.6623 148.679 70.7957 148.615 70.9166C148.553 71.0376 148.462 71.1345 148.343 71.2074C148.226 71.2803 148.085 71.3168 147.919 71.3168C147.754 71.3168 147.612 71.2803 147.492 71.2074C147.373 71.1345 147.281 71.0376 147.215 70.9166C147.151 70.7957 147.119 70.6623 147.119 70.5165ZM147.49 70.3085V70.5165C147.49 70.5983 147.505 70.6766 147.535 70.7513C147.567 70.8242 147.615 70.8837 147.679 70.93C147.743 70.9744 147.823 70.9967 147.919 70.9967C148.015 70.9967 148.094 70.9744 148.157 70.93C148.221 70.8837 148.268 70.8242 148.298 70.7513C148.328 70.6783 148.343 70.6001 148.343 70.5165V70.3085C148.343 70.2249 148.327 70.1466 148.295 70.0737C148.265 70.0008 148.218 69.9421 148.154 69.8977C148.092 69.8514 148.012 69.8283 147.914 69.8283C147.82 69.8283 147.74 69.8514 147.676 69.8977C147.614 69.9421 147.567 70.0008 147.535 70.0737C147.505 70.1466 147.49 70.2249 147.49 70.3085ZM148.037 67.9291L146.14 70.9647L145.863 70.7886L147.759 67.753L148.037 67.9291Z" fill="#F5F7F6"/>
<path d="M141.018 58.646H141.061V59.0648H141.018C140.757 59.0648 140.538 59.1075 140.362 59.1928C140.186 59.2764 140.047 59.3893 139.943 59.5316C139.84 59.6721 139.766 59.8303 139.719 60.0064C139.675 60.1825 139.653 60.3612 139.653 60.5426V61.1134C139.653 61.2859 139.673 61.4388 139.714 61.5722C139.755 61.7038 139.811 61.8149 139.882 61.9056C139.953 61.9963 140.033 62.0648 140.122 62.111C140.213 62.1573 140.307 62.1804 140.405 62.1804C140.519 62.1804 140.62 62.159 140.709 62.1164C140.798 62.0719 140.873 62.0106 140.933 61.9323C140.995 61.8523 141.042 61.758 141.074 61.6496C141.106 61.5411 141.122 61.4219 141.122 61.2921C141.122 61.1765 141.108 61.0654 141.08 60.9587C141.051 60.8502 141.008 60.7542 140.949 60.6706C140.89 60.5852 140.817 60.5186 140.728 60.4705C140.641 60.4207 140.536 60.3958 140.416 60.3958C140.279 60.3958 140.151 60.4296 140.031 60.4972C139.914 60.563 139.817 60.6501 139.741 60.7586C139.666 60.8653 139.623 60.9818 139.613 61.1081L139.351 61.1054C139.376 60.9062 139.422 60.7364 139.49 60.5959C139.559 60.4536 139.645 60.3381 139.746 60.2491C139.849 60.1584 139.964 60.0926 140.09 60.0517C140.218 60.0091 140.353 59.9877 140.496 59.9877C140.689 59.9877 140.857 60.0242 140.997 60.0971C141.138 60.17 141.253 60.2678 141.344 60.3905C141.435 60.5114 141.501 60.6484 141.544 60.8013C141.588 60.9525 141.611 61.1081 141.611 61.2681C141.611 61.4513 141.585 61.6229 141.533 61.7829C141.482 61.943 141.404 62.0835 141.301 62.2044C141.2 62.3253 141.074 62.4196 140.925 62.4871C140.776 62.5547 140.602 62.5885 140.405 62.5885C140.195 62.5885 140.012 62.5458 139.855 62.4605C139.699 62.3733 139.569 62.2577 139.466 62.1137C139.363 61.9697 139.285 61.8096 139.234 61.6336C139.182 61.4575 139.157 61.2788 139.157 61.0974V60.8653C139.157 60.5915 139.184 60.3229 139.239 60.0597C139.294 59.7966 139.389 59.5583 139.525 59.3449C139.662 59.1315 139.851 58.9616 140.093 58.8354C140.335 58.7091 140.643 58.646 141.018 58.646ZM144.636 60.2838V60.876C144.636 61.1943 144.607 61.4628 144.55 61.6816C144.493 61.9003 144.411 62.0764 144.305 62.2097C144.198 62.3431 144.069 62.44 143.918 62.5005C143.769 62.5592 143.6 62.5885 143.411 62.5885C143.262 62.5885 143.124 62.5698 142.998 62.5325C142.871 62.4951 142.758 62.4356 142.656 62.3538C142.557 62.2702 142.471 62.1617 142.4 62.0283C142.329 61.895 142.275 61.7331 142.237 61.5429C142.2 61.3526 142.181 61.1303 142.181 60.876V60.2838C142.181 59.9655 142.21 59.6988 142.267 59.4836C142.325 59.2684 142.408 59.0959 142.515 58.9661C142.622 58.8345 142.75 58.7402 142.899 58.6833C143.05 58.6264 143.219 58.598 143.406 58.598C143.557 58.598 143.696 58.6167 143.822 58.654C143.95 58.6896 144.064 58.7474 144.163 58.8274C144.263 58.9056 144.347 59.0105 144.417 59.1421C144.488 59.272 144.542 59.4311 144.579 59.6196C144.617 59.8081 144.636 60.0295 144.636 60.2838ZM144.139 60.956V60.2011C144.139 60.0268 144.129 59.8739 144.107 59.7423C144.088 59.6089 144.058 59.4951 144.019 59.4009C143.98 59.3066 143.93 59.2302 143.87 59.1715C143.811 59.1128 143.743 59.0701 143.665 59.0434C143.588 59.015 143.502 59.0008 143.406 59.0008C143.288 59.0008 143.184 59.023 143.094 59.0675C143.003 59.1101 142.927 59.1786 142.864 59.2728C142.804 59.3671 142.758 59.4907 142.726 59.6436C142.694 59.7966 142.678 59.9824 142.678 60.2011V60.956C142.678 61.1303 142.687 61.2841 142.707 61.4175C142.728 61.5509 142.759 61.6665 142.8 61.7643C142.841 61.8603 142.891 61.9394 142.95 62.0017C143.008 62.0639 143.076 62.1101 143.152 62.1404C143.231 62.1688 143.317 62.1831 143.411 62.1831C143.532 62.1831 143.638 62.1599 143.729 62.1137C143.819 62.0675 143.895 61.9954 143.955 61.8976C144.018 61.798 144.064 61.6709 144.094 61.5162C144.124 61.3597 144.139 61.173 144.139 60.956ZM145.228 59.6036V59.3982C145.228 59.2506 145.26 59.1164 145.324 58.9954C145.388 58.8745 145.479 58.7776 145.598 58.7047C145.718 58.6318 145.859 58.5953 146.023 58.5953C146.19 58.5953 146.332 58.6318 146.449 58.7047C146.569 58.7776 146.66 58.8745 146.724 58.9954C146.788 59.1164 146.82 59.2506 146.82 59.3982V59.6036C146.82 59.7477 146.788 59.8801 146.724 60.0011C146.662 60.122 146.571 60.2189 146.452 60.2918C146.335 60.3647 146.193 60.4012 146.028 60.4012C145.863 60.4012 145.719 60.3647 145.598 60.2918C145.479 60.2189 145.388 60.122 145.324 60.0011C145.26 59.8801 145.228 59.7477 145.228 59.6036ZM145.598 59.3982V59.6036C145.598 59.6854 145.614 59.7628 145.644 59.8357C145.676 59.9086 145.724 59.9682 145.788 60.0144C145.852 60.0589 145.932 60.0811 146.028 60.0811C146.124 60.0811 146.203 60.0589 146.265 60.0144C146.328 59.9682 146.374 59.9086 146.404 59.8357C146.434 59.7628 146.449 59.6854 146.449 59.6036V59.3982C146.449 59.3146 146.433 59.2364 146.401 59.1635C146.371 59.0888 146.324 59.0292 146.26 58.9848C146.198 58.9385 146.119 58.9154 146.023 58.9154C145.928 58.9154 145.849 58.9385 145.785 58.9848C145.723 59.0292 145.676 59.0888 145.644 59.1635C145.614 59.2364 145.598 59.3146 145.598 59.3982ZM147.119 61.7909V61.5829C147.119 61.437 147.151 61.3037 147.215 61.1828C147.279 61.0618 147.371 60.9649 147.49 60.892C147.609 60.8191 147.75 60.7826 147.914 60.7826C148.081 60.7826 148.223 60.8191 148.341 60.892C148.46 60.9649 148.551 61.0618 148.615 61.1828C148.679 61.3037 148.711 61.437 148.711 61.5829V61.7909C148.711 61.9368 148.679 62.0701 148.615 62.1911C148.553 62.312 148.462 62.4089 148.343 62.4818C148.226 62.5547 148.085 62.5912 147.919 62.5912C147.754 62.5912 147.612 62.5547 147.492 62.4818C147.373 62.4089 147.281 62.312 147.215 62.1911C147.151 62.0701 147.119 61.9368 147.119 61.7909ZM147.49 61.5829V61.7909C147.49 61.8727 147.505 61.951 147.535 62.0257C147.567 62.0986 147.615 62.1582 147.679 62.2044C147.743 62.2488 147.823 62.2711 147.919 62.2711C148.015 62.2711 148.094 62.2488 148.157 62.2044C148.221 62.1582 148.268 62.0986 148.298 62.0257C148.328 61.9528 148.343 61.8745 148.343 61.7909V61.5829C148.343 61.4993 148.327 61.421 148.295 61.3481C148.265 61.2752 148.218 61.2165 148.154 61.1721C148.092 61.1258 148.012 61.1027 147.914 61.1027C147.82 61.1027 147.74 61.1258 147.676 61.1721C147.614 61.2165 147.567 61.2752 147.535 61.3481C147.505 61.421 147.49 61.4993 147.49 61.5829ZM148.037 59.2035L146.14 62.2391L145.863 62.063L147.759 59.0274L148.037 59.2035Z" fill="#F5F7F6"/>
<path d="M139.749 51.8096L139.354 51.7083L139.549 49.7744H141.541V50.2305H139.967L139.85 51.2868C139.921 51.2459 140.011 51.2077 140.119 51.1721C140.23 51.1366 140.356 51.1188 140.498 51.1188C140.678 51.1188 140.839 51.1499 140.981 51.2121C141.123 51.2726 141.244 51.3597 141.344 51.4735C141.445 51.5874 141.523 51.7243 141.576 51.8843C141.629 52.0444 141.656 52.2231 141.656 52.4205C141.656 52.6072 141.63 52.7788 141.579 52.9353C141.529 53.0918 141.453 53.2287 141.352 53.3461C141.25 53.4617 141.122 53.5515 140.968 53.6155C140.815 53.6795 140.634 53.7116 140.426 53.7116C140.27 53.7116 140.121 53.6902 139.981 53.6475C139.842 53.6031 139.718 53.5364 139.607 53.4475C139.499 53.3568 139.41 53.2447 139.341 53.1114C139.273 52.9762 139.23 52.818 139.213 52.6366H139.682C139.703 52.7824 139.746 52.9051 139.81 53.0047C139.874 53.1043 139.958 53.1798 140.061 53.2314C140.166 53.2812 140.288 53.3061 140.426 53.3061C140.544 53.3061 140.648 53.2856 140.738 53.2447C140.829 53.2038 140.905 53.1452 140.968 53.0687C141.03 52.9922 141.077 52.8998 141.109 52.7913C141.143 52.6828 141.16 52.561 141.16 52.4258C141.16 52.3031 141.143 52.1893 141.109 52.0844C141.075 51.9795 141.025 51.8879 140.957 51.8096C140.891 51.7314 140.81 51.6709 140.714 51.6283C140.618 51.5838 140.508 51.5616 140.384 51.5616C140.218 51.5616 140.093 51.5838 140.007 51.6283C139.924 51.6727 139.838 51.7332 139.749 51.8096ZM144.636 51.4069V51.999C144.636 52.3174 144.607 52.5859 144.55 52.8046C144.493 53.0233 144.411 53.1994 144.305 53.3328C144.198 53.4661 144.069 53.5631 143.918 53.6235C143.769 53.6822 143.6 53.7116 143.411 53.7116C143.262 53.7116 143.124 53.6929 142.998 53.6555C142.871 53.6182 142.758 53.5586 142.656 53.4768C142.557 53.3932 142.471 53.2848 142.4 53.1514C142.329 53.018 142.275 52.8562 142.237 52.6659C142.2 52.4756 142.181 52.2533 142.181 51.999V51.4069C142.181 51.0885 142.21 50.8218 142.267 50.6066C142.325 50.3914 142.408 50.219 142.515 50.0891C142.622 49.9575 142.75 49.8633 142.899 49.8064C143.05 49.7495 143.219 49.721 143.406 49.721C143.557 49.721 143.696 49.7397 143.822 49.777C143.95 49.8126 144.064 49.8704 144.163 49.9504C144.263 50.0287 144.347 50.1336 144.417 50.2652C144.488 50.395 144.542 50.5542 144.579 50.7427C144.617 50.9312 144.636 51.1526 144.636 51.4069ZM144.139 52.0791V51.3242C144.139 51.1499 144.129 50.997 144.107 50.8654C144.088 50.732 144.058 50.6182 144.019 50.5239C143.98 50.4297 143.93 50.3532 143.87 50.2945C143.811 50.2358 143.743 50.1932 143.665 50.1665C143.588 50.138 143.502 50.1238 143.406 50.1238C143.288 50.1238 143.184 50.146 143.094 50.1905C143.003 50.2332 142.927 50.3016 142.864 50.3959C142.804 50.4901 142.758 50.6137 142.726 50.7667C142.694 50.9196 142.678 51.1054 142.678 51.3242V52.0791C142.678 52.2533 142.687 52.4072 142.707 52.5405C142.728 52.6739 142.759 52.7895 142.8 52.8873C142.841 52.9833 142.891 53.0625 142.95 53.1247C143.008 53.187 143.076 53.2332 143.152 53.2634C143.231 53.2919 143.317 53.3061 143.411 53.3061C143.532 53.3061 143.638 53.283 143.729 53.2367C143.819 53.1905 143.895 53.1185 143.955 53.0207C144.018 52.9211 144.064 52.7939 144.094 52.6392C144.124 52.4827 144.139 52.296 144.139 52.0791ZM145.228 50.7267V50.5213C145.228 50.3737 145.26 50.2394 145.324 50.1185C145.388 49.9976 145.479 49.9006 145.598 49.8277C145.718 49.7548 145.859 49.7184 146.023 49.7184C146.19 49.7184 146.332 49.7548 146.449 49.8277C146.569 49.9006 146.66 49.9976 146.724 50.1185C146.788 50.2394 146.82 50.3737 146.82 50.5213V50.7267C146.82 50.8707 146.788 51.0032 146.724 51.1241C146.662 51.245 146.571 51.342 146.452 51.4149C146.335 51.4878 146.193 51.5242 146.028 51.5242C145.863 51.5242 145.719 51.4878 145.598 51.4149C145.479 51.342 145.388 51.245 145.324 51.1241C145.26 51.0032 145.228 50.8707 145.228 50.7267ZM145.598 50.5213V50.7267C145.598 50.8085 145.614 50.8858 145.644 50.9587C145.676 51.0316 145.724 51.0912 145.788 51.1374C145.852 51.1819 145.932 51.2041 146.028 51.2041C146.124 51.2041 146.203 51.1819 146.265 51.1374C146.328 51.0912 146.374 51.0316 146.404 50.9587C146.434 50.8858 146.449 50.8085 146.449 50.7267V50.5213C146.449 50.4377 146.433 50.3594 146.401 50.2865C146.371 50.2118 146.324 50.1523 146.26 50.1078C146.198 50.0616 146.119 50.0385 146.023 50.0385C145.928 50.0385 145.849 50.0616 145.785 50.1078C145.723 50.1523 145.676 50.2118 145.644 50.2865C145.614 50.3594 145.598 50.4377 145.598 50.5213ZM147.119 52.914V52.7059C147.119 52.5601 147.151 52.4267 147.215 52.3058C147.279 52.1849 147.371 52.088 147.49 52.015C147.609 51.9421 147.75 51.9057 147.914 51.9057C148.081 51.9057 148.223 51.9421 148.341 52.015C148.46 52.088 148.551 52.1849 148.615 52.3058C148.679 52.4267 148.711 52.5601 148.711 52.7059V52.914C148.711 53.0598 148.679 53.1932 148.615 53.3141C148.553 53.435 148.462 53.5319 148.343 53.6049C148.226 53.6778 148.085 53.7142 147.919 53.7142C147.754 53.7142 147.612 53.6778 147.492 53.6049C147.373 53.5319 147.281 53.435 147.215 53.3141C147.151 53.1932 147.119 53.0598 147.119 52.914ZM147.49 52.7059V52.914C147.49 52.9958 147.505 53.074 147.535 53.1487C147.567 53.2216 147.615 53.2812 147.679 53.3274C147.743 53.3719 147.823 53.3941 147.919 53.3941C148.015 53.3941 148.094 53.3719 148.157 53.3274C148.221 53.2812 148.268 53.2216 148.298 53.1487C148.328 53.0758 148.343 52.9976 148.343 52.914V52.7059C148.343 52.6223 148.327 52.5441 148.295 52.4712C148.265 52.3983 148.218 52.3396 148.154 52.2951C148.092 52.2489 148.012 52.2258 147.914 52.2258C147.82 52.2258 147.74 52.2489 147.676 52.2951C147.614 52.3396 147.567 52.3983 147.535 52.4712C147.505 52.5441 147.49 52.6223 147.49 52.7059ZM148.037 50.3265L146.14 53.3621L145.863 53.1861L147.759 50.1505L148.037 50.3265Z" fill="#F5F7F6"/>
<path d="M139.845 42.0649H140.197C140.369 42.0649 140.512 42.0364 140.624 41.9795C140.737 41.9208 140.822 41.8417 140.877 41.7421C140.934 41.6407 140.962 41.5269 140.962 41.4007C140.962 41.2513 140.938 41.1259 140.888 41.0245C140.838 40.9232 140.763 40.8467 140.664 40.7951C140.564 40.7436 140.438 40.7178 140.285 40.7178C140.146 40.7178 140.023 40.7454 139.917 40.8005C139.812 40.8538 139.729 40.9303 139.669 41.0299C139.61 41.1295 139.581 41.2468 139.581 41.382H139.087C139.087 41.1846 139.137 41.005 139.237 40.8432C139.336 40.6813 139.476 40.5524 139.655 40.4564C139.837 40.3603 140.047 40.3123 140.285 40.3123C140.52 40.3123 140.725 40.3541 140.901 40.4377C141.077 40.5195 141.214 40.6422 141.312 40.8058C141.41 40.9676 141.459 41.1695 141.459 41.4113C141.459 41.5091 141.435 41.6141 141.389 41.7261C141.345 41.8363 141.274 41.9395 141.178 42.0355C141.084 42.1315 140.962 42.2107 140.81 42.2729C140.659 42.3334 140.478 42.3636 140.266 42.3636H139.845V42.0649ZM139.845 42.4703V42.1742H140.266C140.513 42.1742 140.718 42.2036 140.88 42.2623C141.042 42.3209 141.169 42.3992 141.261 42.497C141.355 42.5948 141.421 42.7024 141.459 42.8198C141.498 42.9353 141.517 43.0509 141.517 43.1665C141.517 43.3479 141.486 43.5088 141.424 43.6493C141.363 43.7898 141.277 43.909 141.165 44.0068C141.055 44.1046 140.925 44.1784 140.776 44.2282C140.626 44.278 140.464 44.3029 140.288 44.3029C140.119 44.3029 139.959 44.2789 139.81 44.2308C139.662 44.1828 139.532 44.1135 139.418 44.0228C139.304 43.9303 139.215 43.8174 139.151 43.684C139.087 43.5489 139.055 43.395 139.055 43.2225H139.549C139.549 43.3577 139.578 43.4759 139.637 43.5773C139.697 43.6787 139.782 43.7578 139.893 43.8147C140.005 43.8698 140.136 43.8974 140.288 43.8974C140.439 43.8974 140.569 43.8716 140.677 43.82C140.787 43.7667 140.872 43.6867 140.93 43.58C140.991 43.4733 141.021 43.339 141.021 43.1772C141.021 43.0154 140.987 42.8829 140.92 42.7797C140.852 42.6748 140.756 42.5975 140.632 42.5477C140.509 42.4961 140.364 42.4703 140.197 42.4703H139.845ZM144.636 41.9982V42.5903C144.636 42.9087 144.607 43.1772 144.55 43.3959C144.493 43.6147 144.411 43.7907 144.305 43.9241C144.198 44.0575 144.069 44.1544 143.918 44.2148C143.769 44.2735 143.6 44.3029 143.411 44.3029C143.262 44.3029 143.124 44.2842 142.998 44.2468C142.871 44.2095 142.758 44.1499 142.656 44.0681C142.557 43.9845 142.471 43.8761 142.4 43.7427C142.329 43.6093 142.275 43.4475 142.237 43.2572C142.2 43.0669 142.181 42.8446 142.181 42.5903V41.9982C142.181 41.6799 142.21 41.4131 142.267 41.1979C142.325 40.9828 142.408 40.8103 142.515 40.6804C142.622 40.5488 142.75 40.4546 142.899 40.3977C143.05 40.3408 143.219 40.3123 143.406 40.3123C143.557 40.3123 143.696 40.331 143.822 40.3684C143.95 40.4039 144.064 40.4617 144.163 40.5417C144.263 40.62 144.347 40.7249 144.417 40.8565C144.488 40.9863 144.542 41.1455 144.579 41.334C144.617 41.5225 144.636 41.7439 144.636 41.9982ZM144.139 42.6704V41.9155C144.139 41.7412 144.129 41.5883 144.107 41.4567C144.088 41.3233 144.058 41.2095 144.019 41.1152C143.98 41.021 143.93 40.9445 143.87 40.8858C143.811 40.8272 143.743 40.7845 143.665 40.7578C143.588 40.7293 143.502 40.7151 143.406 40.7151C143.288 40.7151 143.184 40.7373 143.094 40.7818C143.003 40.8245 142.927 40.893 142.864 40.9872C142.804 41.0815 142.758 41.205 142.726 41.358C142.694 41.5109 142.678 41.6967 142.678 41.9155V42.6704C142.678 42.8446 142.687 42.9985 142.707 43.1318C142.728 43.2652 142.759 43.3808 142.8 43.4786C142.841 43.5746 142.891 43.6538 142.95 43.716C143.008 43.7783 143.076 43.8245 143.152 43.8547C143.231 43.8832 143.317 43.8974 143.411 43.8974C143.532 43.8974 143.638 43.8743 143.729 43.8281C143.819 43.7818 143.895 43.7098 143.955 43.612C144.018 43.5124 144.064 43.3853 144.094 43.2305C144.124 43.074 144.139 42.8873 144.139 42.6704ZM145.228 41.318V41.1126C145.228 40.965 145.26 40.8307 145.324 40.7098C145.388 40.5889 145.479 40.4919 145.598 40.419C145.718 40.3461 145.859 40.3097 146.023 40.3097C146.19 40.3097 146.332 40.3461 146.449 40.419C146.569 40.4919 146.66 40.5889 146.724 40.7098C146.788 40.8307 146.82 40.965 146.82 41.1126V41.318C146.82 41.462 146.788 41.5945 146.724 41.7154C146.662 41.8363 146.571 41.9333 146.452 42.0062C146.335 42.0791 146.193 42.1155 146.028 42.1155C145.863 42.1155 145.719 42.0791 145.598 42.0062C145.479 41.9333 145.388 41.8363 145.324 41.7154C145.26 41.5945 145.228 41.462 145.228 41.318ZM145.598 41.1126V41.318C145.598 41.3998 145.614 41.4771 145.644 41.55C145.676 41.6229 145.724 41.6825 145.788 41.7288C145.852 41.7732 145.932 41.7954 146.028 41.7954C146.124 41.7954 146.203 41.7732 146.265 41.7288C146.328 41.6825 146.374 41.6229 146.404 41.55C146.434 41.4771 146.449 41.3998 146.449 41.318V41.1126C146.449 41.029 146.433 40.9507 146.401 40.8778C146.371 40.8031 146.324 40.7436 146.26 40.6991C146.198 40.6529 146.119 40.6298 146.023 40.6298C145.928 40.6298 145.849 40.6529 145.785 40.6991C145.723 40.7436 145.676 40.8031 145.644 40.8778C145.614 40.9507 145.598 41.029 145.598 41.1126ZM147.119 43.5053V43.2972C147.119 43.1514 147.151 43.018 147.215 42.8971C147.279 42.7762 147.371 42.6793 147.49 42.6064C147.609 42.5334 147.75 42.497 147.914 42.497C148.081 42.497 148.223 42.5334 148.341 42.6064C148.46 42.6793 148.551 42.7762 148.615 42.8971C148.679 43.018 148.711 43.1514 148.711 43.2972V43.5053C148.711 43.6511 148.679 43.7845 148.615 43.9054C148.553 44.0263 148.462 44.1233 148.343 44.1962C148.226 44.2691 148.085 44.3055 147.919 44.3055C147.754 44.3055 147.612 44.2691 147.492 44.1962C147.373 44.1233 147.281 44.0263 147.215 43.9054C147.151 43.7845 147.119 43.6511 147.119 43.5053ZM147.49 43.2972V43.5053C147.49 43.5871 147.505 43.6653 147.535 43.74C147.567 43.8129 147.615 43.8725 147.679 43.9187C147.743 43.9632 147.823 43.9854 147.919 43.9854C148.015 43.9854 148.094 43.9632 148.157 43.9187C148.221 43.8725 148.268 43.8129 148.298 43.74C148.328 43.6671 148.343 43.5889 148.343 43.5053V43.2972C148.343 43.2136 148.327 43.1354 148.295 43.0625C148.265 42.9896 148.218 42.9309 148.154 42.8864C148.092 42.8402 148.012 42.8171 147.914 42.8171C147.82 42.8171 147.74 42.8402 147.676 42.8864C147.614 42.9309 147.567 42.9896 147.535 43.0625C147.505 43.1354 147.49 43.2136 147.49 43.2972ZM148.037 40.9178L146.14 43.9534L145.863 43.7774L147.759 40.7418L148.037 40.9178Z" fill="#F5F7F6"/>
<path d="M140.746 30.7848V34.6899H140.253V31.401L139.258 31.7637V31.3183L140.669 30.7848H140.746ZM142.822 32.8414L142.427 32.74L142.622 30.8061H144.614V31.2622H143.04L142.923 32.3186C142.994 32.2777 143.084 32.2394 143.192 32.2039C143.303 32.1683 143.429 32.1505 143.571 32.1505C143.751 32.1505 143.912 32.1816 144.054 32.2439C144.196 32.3043 144.317 32.3915 144.417 32.5053C144.518 32.6191 144.595 32.756 144.649 32.9161C144.702 33.0761 144.729 33.2548 144.729 33.4522C144.729 33.639 144.703 33.8106 144.652 33.9671C144.602 34.1235 144.526 34.2605 144.425 34.3778C144.323 34.4934 144.195 34.5832 144.041 34.6473C143.888 34.7113 143.707 34.7433 143.499 34.7433C143.343 34.7433 143.194 34.722 143.054 34.6793C142.915 34.6348 142.791 34.5681 142.68 34.4792C142.572 34.3885 142.483 34.2765 142.414 34.1431C142.346 34.008 142.303 33.8497 142.285 33.6683H142.755C142.776 33.8141 142.819 33.9368 142.883 34.0364C142.947 34.136 143.031 34.2116 143.134 34.2631C143.239 34.3129 143.36 34.3378 143.499 34.3378C143.617 34.3378 143.721 34.3174 143.811 34.2765C143.902 34.2356 143.978 34.1769 144.041 34.1004C144.103 34.024 144.15 33.9315 144.182 33.823C144.216 33.7145 144.233 33.5927 144.233 33.4576C144.233 33.3349 144.216 33.2211 144.182 33.1161C144.148 33.0112 144.098 32.9196 144.03 32.8414C143.964 32.7631 143.883 32.7027 143.787 32.66C143.691 32.6155 143.581 32.5933 143.456 32.5933C143.291 32.5933 143.166 32.6155 143.08 32.66C142.997 32.7045 142.911 32.7649 142.822 32.8414ZM145.228 31.7584V31.553C145.228 31.4054 145.26 31.2711 145.324 31.1502C145.388 31.0293 145.479 30.9324 145.598 30.8595C145.718 30.7866 145.859 30.7501 146.023 30.7501C146.19 30.7501 146.332 30.7866 146.449 30.8595C146.569 30.9324 146.66 31.0293 146.724 31.1502C146.788 31.2711 146.82 31.4054 146.82 31.553V31.7584C146.82 31.9024 146.788 32.0349 146.724 32.1558C146.662 32.2768 146.571 32.3737 146.452 32.4466C146.335 32.5195 146.193 32.556 146.028 32.556C145.863 32.556 145.719 32.5195 145.598 32.4466C145.479 32.3737 145.388 32.2768 145.324 32.1558C145.26 32.0349 145.228 31.9024 145.228 31.7584ZM145.598 31.553V31.7584C145.598 31.8402 145.614 31.9176 145.644 31.9905C145.676 32.0634 145.724 32.123 145.788 32.1692C145.852 32.2136 145.932 32.2359 146.028 32.2359C146.124 32.2359 146.203 32.2136 146.265 32.1692C146.328 32.123 146.374 32.0634 146.404 31.9905C146.434 31.9176 146.449 31.8402 146.449 31.7584V31.553C146.449 31.4694 146.433 31.3912 146.401 31.3183C146.371 31.2436 146.324 31.184 146.26 31.1395C146.198 31.0933 146.119 31.0702 146.023 31.0702C145.928 31.0702 145.849 31.0933 145.785 31.1395C145.723 31.184 145.676 31.2436 145.644 31.3183C145.614 31.3912 145.598 31.4694 145.598 31.553ZM147.119 33.9457V33.7377C147.119 33.5918 147.151 33.4585 147.215 33.3375C147.279 33.2166 147.371 33.1197 147.49 33.0468C147.609 32.9739 147.75 32.9374 147.914 32.9374C148.081 32.9374 148.223 32.9739 148.341 33.0468C148.46 33.1197 148.551 33.2166 148.615 33.3375C148.679 33.4585 148.711 33.5918 148.711 33.7377V33.9457C148.711 34.0915 148.679 34.2249 148.615 34.3458C148.553 34.4668 148.462 34.5637 148.343 34.6366C148.226 34.7095 148.085 34.746 147.919 34.746C147.754 34.746 147.612 34.7095 147.492 34.6366C147.373 34.5637 147.281 34.4668 147.215 34.3458C147.151 34.2249 147.119 34.0915 147.119 33.9457ZM147.49 33.7377V33.9457C147.49 34.0275 147.505 34.1058 147.535 34.1805C147.567 34.2534 147.615 34.3129 147.679 34.3592C147.743 34.4036 147.823 34.4259 147.919 34.4259C148.015 34.4259 148.094 34.4036 148.157 34.3592C148.221 34.3129 148.268 34.2534 148.298 34.1805C148.328 34.1075 148.343 34.0293 148.343 33.9457V33.7377C148.343 33.6541 148.327 33.5758 148.295 33.5029C148.265 33.43 148.218 33.3713 148.154 33.3269C148.092 33.2806 148.012 33.2575 147.914 33.2575C147.82 33.2575 147.74 33.2806 147.676 33.3269C147.614 33.3713 147.567 33.43 147.535 33.5029C147.505 33.5758 147.49 33.6541 147.49 33.7377ZM148.037 31.3583L146.14 34.3939L145.863 34.2178L147.759 31.1822L148.037 31.3583Z" fill="#F5F7F6"/>
<path d="M111.377 100.249C109.326 98.6194 106.419 98.5923 104.449 100.195C103.037 101.336 102.33 103.048 102.33 105.262C102.33 106.729 103.648 108.834 103.811 109.106C103.824 109.119 104.911 110.586 105.169 112.339L105.237 112.773H110.711L110.779 112.339C111.037 110.586 112.124 109.119 112.151 109.079C112.3 108.848 113.618 106.742 113.618 105.275C113.604 103.102 112.857 101.418 111.377 100.249ZM107.859 103.129C106.935 103.156 106.093 103.727 105.74 104.583C105.658 104.773 105.468 104.895 105.264 104.895C105.196 104.895 105.128 104.881 105.061 104.854C104.802 104.746 104.68 104.447 104.789 104.189C105.305 102.966 106.5 102.151 107.818 102.11C108.09 102.097 108.334 102.328 108.334 102.613C108.361 102.885 108.144 103.116 107.859 103.129Z" fill="#193566"/>
<path d="M110.67 115.069H105.02C104.735 115.069 104.504 114.838 104.504 114.553C104.504 114.268 104.735 114.037 105.02 114.037H110.67C110.956 114.037 111.187 114.268 111.187 114.553C111.187 114.838 110.956 115.069 110.67 115.069Z" fill="#193566"/>
<path d="M109.394 114.797H106.174V116.142H109.394V114.797Z" fill="#193566"/>
<path d="M107.736 97.8589C107.451 97.8589 107.22 97.628 107.22 97.3427V95.9029C107.22 95.6176 107.451 95.3867 107.736 95.3867C108.022 95.3867 108.253 95.6176 108.253 95.9029V97.3427C108.253 97.6416 108.022 97.8589 107.736 97.8589Z" fill="#193566"/>
<path d="M103.648 99.0135C103.471 99.0135 103.295 98.9184 103.2 98.7554L102.48 97.5057C102.344 97.2612 102.425 96.9488 102.67 96.813C102.914 96.6772 103.227 96.7587 103.363 97.0032L104.083 98.2528C104.218 98.4973 104.137 98.8097 103.892 98.9456C103.824 98.9999 103.743 99.0135 103.648 99.0135Z" fill="#193566"/>
<path d="M100.687 102.07C100.605 102.07 100.51 102.043 100.429 102.002L99.1789 101.282C98.9344 101.146 98.8529 100.834 98.9888 100.589C99.1246 100.345 99.437 100.263 99.6815 100.399L100.931 101.119C101.176 101.255 101.257 101.567 101.121 101.812C101.04 101.975 100.863 102.07 100.687 102.07Z" fill="#193566"/>
<path d="M99.6408 106.186H98.201C97.9157 106.186 97.6848 105.955 97.6848 105.669C97.6848 105.384 97.9157 105.153 98.201 105.153H99.6408C99.9261 105.153 100.157 105.384 100.157 105.669C100.157 105.955 99.9261 106.186 99.6408 106.186Z" fill="#193566"/>
<path d="M99.5593 110.994C99.3828 110.994 99.2062 110.899 99.1111 110.736C98.9753 110.491 99.0568 110.179 99.3013 110.043L100.551 109.323C100.795 109.187 101.108 109.269 101.244 109.513C101.38 109.758 101.298 110.07 101.054 110.206L99.8038 110.926C99.7359 110.967 99.6408 110.994 99.5593 110.994Z" fill="#193566"/>
<path d="M116.267 110.804C116.185 110.804 116.09 110.777 116.009 110.736L114.759 110.016C114.515 109.88 114.433 109.568 114.569 109.323C114.705 109.079 115.017 108.997 115.262 109.133L116.511 109.853C116.756 109.989 116.837 110.301 116.701 110.546C116.606 110.709 116.443 110.804 116.267 110.804Z" fill="#193566"/>
<path d="M117.503 105.955H116.063C115.778 105.955 115.547 105.724 115.547 105.439C115.547 105.153 115.778 104.922 116.063 104.922H117.503C117.788 104.922 118.019 105.153 118.019 105.439C118.019 105.724 117.788 105.955 117.503 105.955Z" fill="#193566"/>
<path d="M114.908 101.866C114.732 101.866 114.555 101.771 114.46 101.608C114.324 101.363 114.406 101.051 114.65 100.915L115.9 100.195C116.145 100.059 116.457 100.141 116.593 100.385C116.729 100.63 116.647 100.942 116.403 101.078L115.153 101.798C115.085 101.852 114.99 101.866 114.908 101.866Z" fill="#193566"/>
<path d="M111.866 98.9051C111.784 98.9051 111.689 98.8779 111.608 98.8372C111.363 98.7013 111.282 98.3889 111.417 98.1444L112.137 96.8948C112.273 96.6503 112.586 96.5688 112.83 96.7046C113.075 96.8404 113.156 97.1528 113.02 97.3973L112.3 98.647C112.205 98.81 112.029 98.9051 111.866 98.9051Z" fill="#193566"/>
<defs>
<radialGradient id="paint0_radial_479_2635" cx="0" cy="0" r="1" gradientUnits="userSpaceOnUse" gradientTransform="translate(69.8938 91.3239) rotate(-90) scale(65.2316)">
<stop stop-color="#0066FF"/>
<stop offset="0.276042" stop-color="#0066FF"/>
<stop offset="0.6406" stop-color="#0097CE"/>
<stop offset="1" stop-color="#0058CB"/>
</radialGradient>
<linearGradient id="paint1_linear_479_2635" x1="74.3013" y1="173.745" x2="74.3013" y2="42.8385" gradientUnits="userSpaceOnUse">
<stop stop-color="#27B7FF"/>
<stop offset="0.9899" stop-color="#F408AB"/>
</linearGradient>
<radialGradient id="paint2_radial_479_2635" cx="0" cy="0" r="1" gradientUnits="userSpaceOnUse" gradientTransform="translate(78.7086 91.3238) rotate(-90) scale(65.2318)">
<stop stop-color="#0066FF"/>
<stop offset="0.307292" stop-color="#0066FF"/>
<stop offset="0.651042" stop-color="#0097CE"/>
<stop offset="0.9819" stop-color="#0058CB"/>
</radialGradient>
<linearGradient id="paint3_linear_479_2635" x1="104.482" y1="173.745" x2="104.482" y2="42.838" gradientUnits="userSpaceOnUse">
<stop stop-color="#27B7FF"/>
<stop offset="0.9899" stop-color="#F408AB"/>
</linearGradient>
<radialGradient id="paint4_radial_479_2635" cx="0" cy="0" r="1" gradientUnits="userSpaceOnUse" gradientTransform="translate(107.8 91.3241) rotate(-90) scale(65.2315)">
<stop stop-color="#0066FF"/>
<stop offset="0.338542" stop-color="#0066FF"/>
<stop offset="0.692708" stop-color="#0097CE"/>
<stop offset="0.9819" stop-color="#0058CB"/>
</radialGradient>
<radialGradient id="paint5_radial_479_2635" cx="0" cy="0" r="1" gradientUnits="userSpaceOnUse" gradientTransform="translate(114.852 113.141) scale(31.7366 31.7366)">
<stop offset="0.000116"/>
<stop offset="0.0894" stop-color="#1D1D1D"/>
<stop offset="0.3464" stop-color="#6C6C6C"/>
<stop offset="0.5751" stop-color="#ABABAB"/>
<stop offset="0.7669" stop-color="#D9D9D9"/>
<stop offset="0.9145" stop-color="#F5F5F5"/>
<stop offset="1" stop-color="white"/>
</radialGradient>
<linearGradient id="paint6_linear_479_2635" x1="136.008" y1="133.71" x2="83.8751" y2="81.5772" gradientUnits="userSpaceOnUse">
<stop stop-color="#071A35"/>
<stop offset="1" stop-color="#193566"/>
</linearGradient>
</defs>
</svg>
